<svg id="Layer_1" data-name="Layer 1" xmlns="http://www.w3.org/2000/svg" xmlns:xlink="http://www.w3.org/1999/xlink" viewBox="0 0 555.84 107.11"><defs><style>.cls-1,.cls-5{fill:none;}.cls-2{fill:#231f20;}.cls-3{clip-path:url(#clip-path);}.cls-4{fill:#a7a9ac;}.cls-5{stroke:#fff;stroke-miterlimit:10;stroke-width:1.82px;}.cls-6{fill:#ffc844;}.cls-7{fill:#fff;}</style><clipPath id="clip-path" transform="translate(-30.96 -305.49)"><polygon class="cls-1" points="32.78 307.31 32.78 344.1 57 344.1 57.01 393.13 93.67 393.13 93.67 344.1 118.57 344.1 118.57 307.31 32.78 307.31"/></clipPath></defs><path class="cls-2" d="M257.64,367.84H259v9.44h-1.37Z" transform="translate(-30.96 -305.49)"/><path class="cls-2" d="M261.05,370.4h1.16v1a3.11,3.11,0,0,1,1.1-.87,3,3,0,0,1,1.29-.26,2.17,2.17,0,0,1,2.1,1,3.42,3.42,0,0,1,.3,1.6v4.41h-1.25v-4.34a2.24,2.24,0,0,0-.2-1,1.2,1.2,0,0,0-1.18-.64,2.47,2.47,0,0,0-.72.08,1.85,1.85,0,0,0-.89.56,1.73,1.73,0,0,0-.39.71,4,4,0,0,0-.1,1v3.61h-1.22Z" transform="translate(-30.96 -305.49)"/><path class="cls-2" d="M272.82,370.61a3.32,3.32,0,0,1,.74.68v-3.48h1.18v9.47h-1.11v-1a2.59,2.59,0,0,1-1,.92,3,3,0,0,1-1.34.28,2.74,2.74,0,0,1-2.1-1,3.65,3.65,0,0,1-.89-2.57,4.26,4.26,0,0,1,.81-2.6,3,3,0,0,1,3.72-.77Zm-2.74,5.16a1.76,1.76,0,0,0,1.59.74,1.71,1.71,0,0,0,1.39-.69,3.15,3.15,0,0,0,.54-2,2.8,2.8,0,0,0-.56-1.93,1.78,1.78,0,0,0-1.39-.62,1.88,1.88,0,0,0-1.49.66,3,3,0,0,0-.58,2A3.27,3.27,0,0,0,270.08,375.77Z" transform="translate(-30.96 -305.49)"/><path class="cls-2" d="M281.08,370.59a2.67,2.67,0,0,1,1.1.89,3,3,0,0,1,.49,1.21,7.9,7.9,0,0,1,.1,1.52h-5.3a2.78,2.78,0,0,0,.52,1.68,1.78,1.78,0,0,0,1.51.64,2,2,0,0,0,1.52-.6,2.09,2.09,0,0,0,.45-.81h1.2a2.23,2.23,0,0,1-.31.84,3.21,3.21,0,0,1-.6.77,2.91,2.91,0,0,1-1.38.69,4.25,4.25,0,0,1-1,.1,3.16,3.16,0,0,1-2.3-.93,3.57,3.57,0,0,1-.94-2.62,3.84,3.84,0,0,1,1-2.69,3.2,3.2,0,0,1,2.48-1A3.49,3.49,0,0,1,281.08,370.59Zm.43,2.7a2.9,2.9,0,0,0-.34-1.2,1.78,1.78,0,0,0-1.67-.84,1.89,1.89,0,0,0-1.4.58,2.14,2.14,0,0,0-.61,1.46Z" transform="translate(-30.96 -305.49)"/><path class="cls-2" d="M284.23,370.43h1.19v.91a3,3,0,0,1,.81-.72,2.7,2.7,0,0,1,1.46-.39,2.81,2.81,0,0,1,2.11.9,3.53,3.53,0,0,1,.87,2.56,3.81,3.81,0,0,1-1.25,3.21,2.94,2.94,0,0,1-1.85.61,2.63,2.63,0,0,1-1.39-.34,3.42,3.42,0,0,1-.73-.66V380h-1.22Zm4.61,5.39a3.06,3.06,0,0,0,.57-2,3.61,3.61,0,0,0-.25-1.42,1.9,1.9,0,0,0-3.5.07,4.45,4.45,0,0,0-.26,1.63,3.22,3.22,0,0,0,.26,1.35,1.74,1.74,0,0,0,1.75,1.07A1.8,1.8,0,0,0,288.84,375.82Z" transform="translate(-30.96 -305.49)"/><path class="cls-2" d="M296.6,370.59a2.67,2.67,0,0,1,1.1.89,3,3,0,0,1,.49,1.21,7.9,7.9,0,0,1,.1,1.52H293a2.78,2.78,0,0,0,.52,1.68,1.78,1.78,0,0,0,1.51.64,2,2,0,0,0,1.52-.6,2.09,2.09,0,0,0,.45-.81h1.2a2.23,2.23,0,0,1-.31.84,3.21,3.21,0,0,1-.6.77,2.91,2.91,0,0,1-1.38.69,4.25,4.25,0,0,1-1,.1,3.16,3.16,0,0,1-2.3-.93,3.57,3.57,0,0,1-.94-2.62,3.84,3.84,0,0,1,.95-2.69,3.2,3.2,0,0,1,2.48-1A3.49,3.49,0,0,1,296.6,370.59Zm.43,2.7a2.9,2.9,0,0,0-.34-1.2,1.78,1.78,0,0,0-1.67-.84,1.89,1.89,0,0,0-1.4.58,2.14,2.14,0,0,0-.61,1.46Z" transform="translate(-30.96 -305.49)"/><path class="cls-2" d="M299.85,370.4H301v1a3.11,3.11,0,0,1,1.1-.87,3,3,0,0,1,1.29-.26,2.17,2.17,0,0,1,2.1,1,3.42,3.42,0,0,1,.3,1.6v4.41h-1.25v-4.34a2.24,2.24,0,0,0-.2-1,1.2,1.2,0,0,0-1.18-.64,2.47,2.47,0,0,0-.72.08,1.78,1.78,0,0,0-.88.56,1.65,1.65,0,0,0-.4.71,4.44,4.44,0,0,0-.1,1v3.61h-1.22Z" transform="translate(-30.96 -305.49)"/><path class="cls-2" d="M311.62,370.61a3.32,3.32,0,0,1,.74.68v-3.48h1.18v9.47h-1.11v-1a2.59,2.59,0,0,1-1,.92,3,3,0,0,1-1.34.28,2.74,2.74,0,0,1-2.1-1,3.65,3.65,0,0,1-.89-2.57,4.26,4.26,0,0,1,.81-2.6,3,3,0,0,1,3.72-.77Zm-2.74,5.16a1.76,1.76,0,0,0,1.59.74,1.7,1.7,0,0,0,1.39-.69,3.15,3.15,0,0,0,.54-2,2.8,2.8,0,0,0-.56-1.93,1.78,1.78,0,0,0-1.39-.62A1.88,1.88,0,0,0,309,372a3,3,0,0,0-.58,2A3.27,3.27,0,0,0,308.88,375.77Z" transform="translate(-30.96 -305.49)"/><path class="cls-2" d="M319.88,370.59a2.67,2.67,0,0,1,1.1.89,3,3,0,0,1,.49,1.21,7.71,7.71,0,0,1,.11,1.52h-5.31a2.78,2.78,0,0,0,.52,1.68,1.79,1.79,0,0,0,1.51.64,2,2,0,0,0,1.52-.6,2.09,2.09,0,0,0,.45-.81h1.2a2.23,2.23,0,0,1-.31.84,3.21,3.21,0,0,1-.6.77,2.91,2.91,0,0,1-1.38.69,4.25,4.25,0,0,1-1,.1,3.16,3.16,0,0,1-2.3-.93A3.57,3.57,0,0,1,315,374a3.84,3.84,0,0,1,.95-2.69,3.2,3.2,0,0,1,2.48-1A3.49,3.49,0,0,1,319.88,370.59Zm.44,2.7a2.89,2.89,0,0,0-.35-1.2,1.78,1.78,0,0,0-1.67-.84,1.9,1.9,0,0,0-1.4.58,2.09,2.09,0,0,0-.6,1.46Z" transform="translate(-30.96 -305.49)"/><path class="cls-2" d="M323.13,370.4h1.16v1a3.11,3.11,0,0,1,1.1-.87,3,3,0,0,1,1.29-.26,2.17,2.17,0,0,1,2.1,1,3.42,3.42,0,0,1,.3,1.6v4.41h-1.25v-4.34a2.24,2.24,0,0,0-.2-1,1.2,1.2,0,0,0-1.18-.64,2.47,2.47,0,0,0-.72.08,1.82,1.82,0,0,0-.88.56,1.65,1.65,0,0,0-.4.71,4.54,4.54,0,0,0-.09,1v3.61h-1.23Z" transform="translate(-30.96 -305.49)"/><path class="cls-2" d="M331.13,368.48h1.24v1.92h1.17v.94h-1.17v4.49a.48.48,0,0,0,.26.48,1.15,1.15,0,0,0,.48.07h.19l.24,0v.92a3.11,3.11,0,0,1-.44.08,3.79,3.79,0,0,1-.49,0,1.36,1.36,0,0,1-1.17-.42,1.76,1.76,0,0,1-.31-1.07v-4.56h-1v-.94h1Z" transform="translate(-30.96 -305.49)"/><path class="cls-2" d="M334.8,367.84H336v9.44H334.8Z" transform="translate(-30.96 -305.49)"/><path class="cls-2" d="M342.43,370.4h1.35l-1.15,3c-.44,1.18-.82,2.15-1.12,2.89a19,19,0,0,1-1.49,3.21,1.78,1.78,0,0,1-1.5.58l-.4,0-.34-.07V379l.46.11.25,0a.93.93,0,0,0,.5-.11,1,1,0,0,0,.27-.26s.1-.21.24-.53.25-.55.31-.7l-2.7-7.08h1.39l2,5.6Z" transform="translate(-30.96 -305.49)"/><path class="cls-2" d="M357.13,369.19a5,5,0,0,1,1,3.21,5.37,5.37,0,0,1-1.14,3.51,4.61,4.61,0,0,1-3.81,1.64,4.71,4.71,0,0,1-3.63-1.43,5.28,5.28,0,0,1-1.18-3.51,5.38,5.38,0,0,1,1-3.28,4.48,4.48,0,0,1,3.83-1.74A4.71,4.71,0,0,1,357.13,369.19Zm-1.2,6a5,5,0,0,0,.8-2.79,3.86,3.86,0,0,0-.92-2.68,3.25,3.25,0,0,0-2.53-1,3.38,3.38,0,0,0-2.53,1,4.06,4.06,0,0,0-1,3,4.17,4.17,0,0,0,.84,2.64,3.25,3.25,0,0,0,2.73,1.08A2.89,2.89,0,0,0,355.93,375.21Z" transform="translate(-30.96 -305.49)"/><path class="cls-2" d="M360.14,370.4l1.4,5.42L363,370.4h1.37l1.44,5.39,1.49-5.39h1.22l-2.11,6.88H365.1L363.62,372l-1.44,5.33H360.9l-2.1-6.88Z" transform="translate(-30.96 -305.49)"/><path class="cls-2" d="M369.65,370.4h1.16v1a3.11,3.11,0,0,1,1.1-.87,3,3,0,0,1,1.29-.26,2.17,2.17,0,0,1,2.1,1,3.42,3.42,0,0,1,.3,1.6v4.41h-1.25v-4.34a2.24,2.24,0,0,0-.2-1,1.2,1.2,0,0,0-1.18-.64,2.47,2.47,0,0,0-.72.08,1.82,1.82,0,0,0-.88.56,1.65,1.65,0,0,0-.4.71,4.54,4.54,0,0,0-.09,1v3.61h-1.23Z" transform="translate(-30.96 -305.49)"/><path class="cls-2" d="M381.92,370.59a2.67,2.67,0,0,1,1.1.89,3.18,3.18,0,0,1,.49,1.21,7.71,7.71,0,0,1,.11,1.52h-5.31a2.78,2.78,0,0,0,.52,1.68,1.78,1.78,0,0,0,1.5.64,2,2,0,0,0,1.53-.6,2.09,2.09,0,0,0,.45-.81h1.2a2.23,2.23,0,0,1-.31.84,3.21,3.21,0,0,1-.6.77,2.91,2.91,0,0,1-1.38.69,4.25,4.25,0,0,1-1,.1,3.16,3.16,0,0,1-2.3-.93A3.57,3.57,0,0,1,377,374a3.84,3.84,0,0,1,.95-2.69,3.2,3.2,0,0,1,2.48-1A3.49,3.49,0,0,1,381.92,370.59Zm.43,2.7a2.9,2.9,0,0,0-.34-1.2,1.78,1.78,0,0,0-1.67-.84,1.89,1.89,0,0,0-1.4.58,2.14,2.14,0,0,0-.61,1.46Z" transform="translate(-30.96 -305.49)"/><path class="cls-2" d="M389.18,370.61a3.32,3.32,0,0,1,.74.68v-3.48h1.18v9.47H390v-1a2.59,2.59,0,0,1-1,.92,3,3,0,0,1-1.34.28,2.74,2.74,0,0,1-2.1-1,3.65,3.65,0,0,1-.89-2.57,4.26,4.26,0,0,1,.81-2.6,3,3,0,0,1,3.72-.77Zm-2.74,5.16a1.76,1.76,0,0,0,1.59.74,1.7,1.7,0,0,0,1.39-.69,3.15,3.15,0,0,0,.54-2,2.8,2.8,0,0,0-.56-1.93,1.78,1.78,0,0,0-1.39-.62,1.88,1.88,0,0,0-1.49.66,3,3,0,0,0-.57,2A3.27,3.27,0,0,0,386.44,375.77Z" transform="translate(-30.96 -305.49)"/><path class="cls-2" d="M397.92,370.88a2.26,2.26,0,0,1-.21-.91,1.94,1.94,0,0,1,.65-1.51,2.45,2.45,0,0,1,1.74-.6,2.23,2.23,0,0,1,1.63.56,1.76,1.76,0,0,1,.58,1.33,2.35,2.35,0,0,1-.6,1.59,5.77,5.77,0,0,1-1.18.91l1.81,2.06c.12-.34.21-.6.26-.77s.09-.4.14-.71h1.17a6.78,6.78,0,0,1-.47,1.74c-.23.55-.34.78-.34.67l1.77,2h-1.58l-.93-1.08a4.59,4.59,0,0,1-1,.83,3.67,3.67,0,0,1-1.86.47,2.87,2.87,0,0,1-2.26-.8,2.62,2.62,0,0,1-.71-1.79,2.49,2.49,0,0,1,.69-1.79,7.54,7.54,0,0,1,1.57-1.09A4.92,4.92,0,0,1,397.92,370.88Zm2.95,5.27a2.72,2.72,0,0,0,.83-.73l-2.25-2.6a6.21,6.21,0,0,0-1.25.93,1.65,1.65,0,0,0-.45,1.17,1.35,1.35,0,0,0,.58,1.16,2.13,2.13,0,0,0,1.24.4A2.49,2.49,0,0,0,400.87,376.15Zm-.1-5.34a1.44,1.44,0,0,0,.4-1,1,1,0,0,0-.29-.72,1.06,1.06,0,0,0-.79-.3,1.13,1.13,0,0,0-1,.47,1,1,0,0,0-.15.54,1.32,1.32,0,0,0,.23.75,6.36,6.36,0,0,0,.76.93A5.39,5.39,0,0,0,400.77,370.81Z" transform="translate(-30.96 -305.49)"/><path class="cls-2" d="M418.4,369.19a5,5,0,0,1,1,3.21,5.37,5.37,0,0,1-1.14,3.51,4.61,4.61,0,0,1-3.8,1.64,4.73,4.73,0,0,1-3.64-1.43,5.28,5.28,0,0,1-1.18-3.51,5.38,5.38,0,0,1,1-3.28,4.48,4.48,0,0,1,3.83-1.74A4.71,4.71,0,0,1,418.4,369.19Zm-1.2,6a5,5,0,0,0,.8-2.79,3.86,3.86,0,0,0-.92-2.68,3.25,3.25,0,0,0-2.53-1,3.38,3.38,0,0,0-2.53,1,4.11,4.11,0,0,0-1,3,4.17,4.17,0,0,0,.84,2.64,3.25,3.25,0,0,0,2.73,1.08A2.89,2.89,0,0,0,417.2,375.21Z" transform="translate(-30.96 -305.49)"/><path class="cls-2" d="M420.74,370.43h1.2v.91a2.73,2.73,0,0,1,.81-.72,2.68,2.68,0,0,1,1.46-.39,2.82,2.82,0,0,1,2.11.9,3.53,3.53,0,0,1,.86,2.56,3.78,3.78,0,0,1-1.25,3.21,2.91,2.91,0,0,1-1.84.61,2.58,2.58,0,0,1-1.39-.34,3.2,3.2,0,0,1-.73-.66V380h-1.23Zm4.61,5.39a3.06,3.06,0,0,0,.57-2,3.61,3.61,0,0,0-.25-1.42,1.9,1.9,0,0,0-3.5.07,4.47,4.47,0,0,0-.25,1.63,3.22,3.22,0,0,0,.25,1.35,1.74,1.74,0,0,0,1.75,1.07A1.79,1.79,0,0,0,425.35,375.82Z" transform="translate(-30.96 -305.49)"/><path class="cls-2" d="M433.11,370.59a2.67,2.67,0,0,1,1.1.89,2.89,2.89,0,0,1,.49,1.21,7.71,7.71,0,0,1,.11,1.52H429.5a2.84,2.84,0,0,0,.52,1.68,1.8,1.8,0,0,0,1.51.64,2,2,0,0,0,1.52-.6,2.09,2.09,0,0,0,.45-.81h1.21a2.46,2.46,0,0,1-.32.84,3.21,3.21,0,0,1-.6.77,2.92,2.92,0,0,1-1.37.69,4.4,4.4,0,0,1-1,.1,3.12,3.12,0,0,1-2.29-.93,3.53,3.53,0,0,1-.94-2.62,3.84,3.84,0,0,1,.94-2.69,3.22,3.22,0,0,1,2.48-1A3.43,3.43,0,0,1,433.11,370.59Zm.44,2.7a2.89,2.89,0,0,0-.35-1.2,1.78,1.78,0,0,0-1.66-.84,1.92,1.92,0,0,0-1.41.58,2.09,2.09,0,0,0-.6,1.46Z" transform="translate(-30.96 -305.49)"/><path class="cls-2" d="M436.4,370.4h1.16v1.19a2.86,2.86,0,0,1,.7-.85,1.89,1.89,0,0,1,1.29-.49h.12l.28,0v1.22l-.2,0h-.21a1.78,1.78,0,0,0-1.42.56,1.88,1.88,0,0,0-.5,1.29v4H436.4Z" transform="translate(-30.96 -305.49)"/><path class="cls-2" d="M444.92,373.12a.7.7,0,0,0,.57-.34,1,1,0,0,0,.08-.44.91.91,0,0,0-.45-.86,2.47,2.47,0,0,0-1.27-.27,1.64,1.64,0,0,0-1.36.49,1.6,1.6,0,0,0-.3.81h-1.14a2,2,0,0,1,.87-1.78,3.77,3.77,0,0,1,1.95-.5,4.12,4.12,0,0,1,2.09.47,1.53,1.53,0,0,1,.8,1.43v4a.47.47,0,0,0,.08.28c.05.08.16.11.33.11h.18l.22,0v.85l-.44.1h-.41a1,1,0,0,1-.92-.42,1.72,1.72,0,0,1-.21-.63,3.19,3.19,0,0,1-1.07.8,3.49,3.49,0,0,1-1.55.34,2.41,2.41,0,0,1-1.66-.58,1.87,1.87,0,0,1-.64-1.45,1.84,1.84,0,0,1,.63-1.49,3.11,3.11,0,0,1,1.66-.64Zm-2.58,3.12a1.51,1.51,0,0,0,.92.29,2.9,2.9,0,0,0,1.25-.29,1.58,1.58,0,0,0,1-1.53v-.93a2.18,2.18,0,0,1-.57.23,6.11,6.11,0,0,1-.7.13l-.74.09a2.86,2.86,0,0,0-1,.26,1,1,0,0,0-.57,1A.93.93,0,0,0,442.34,376.24Z" transform="translate(-30.96 -305.49)"/><path class="cls-2" d="M449,368.48h1.24v1.92h1.17v.94h-1.17v4.49a.48.48,0,0,0,.26.48,1.15,1.15,0,0,0,.48.07h.19l.24,0v.92a3.11,3.11,0,0,1-.44.08,3.79,3.79,0,0,1-.49,0,1.36,1.36,0,0,1-1.17-.42,1.76,1.76,0,0,1-.31-1.07v-4.56h-1v-.94h1Z" transform="translate(-30.96 -305.49)"/><path class="cls-2" d="M457.15,370.59a2.71,2.71,0,0,1,1.11.89,3,3,0,0,1,.48,1.21,7,7,0,0,1,.11,1.52h-5.31a2.85,2.85,0,0,0,.53,1.68,1.77,1.77,0,0,0,1.5.64,2,2,0,0,0,1.52-.6,1.86,1.86,0,0,0,.45-.81h1.21a2.27,2.27,0,0,1-.32.84,3.21,3.21,0,0,1-.6.77,2.88,2.88,0,0,1-1.37.69,4.25,4.25,0,0,1-1,.1,3.15,3.15,0,0,1-2.3-.93,3.53,3.53,0,0,1-.94-2.62,3.84,3.84,0,0,1,.95-2.69,3.2,3.2,0,0,1,2.48-1A3.41,3.41,0,0,1,457.15,370.59Zm.44,2.7a2.9,2.9,0,0,0-.34-1.2,1.8,1.8,0,0,0-1.67-.84,1.92,1.92,0,0,0-1.41.58,2.09,2.09,0,0,0-.6,1.46Z" transform="translate(-30.96 -305.49)"/><path class="cls-2" d="M464.41,370.61a2.94,2.94,0,0,1,.74.68v-3.48h1.18v9.47h-1.1v-1a2.66,2.66,0,0,1-1,.92,3,3,0,0,1-1.34.28,2.74,2.74,0,0,1-2.1-1,3.61,3.61,0,0,1-.89-2.57,4.26,4.26,0,0,1,.81-2.6,3,3,0,0,1,3.71-.77Zm-2.73,5.16a1.75,1.75,0,0,0,1.58.74,1.71,1.71,0,0,0,1.4-.69,3.15,3.15,0,0,0,.54-2,2.85,2.85,0,0,0-.56-1.93,1.79,1.79,0,0,0-1.39-.62,1.9,1.9,0,0,0-1.5.66,3,3,0,0,0-.57,2A3.27,3.27,0,0,0,461.68,375.77Z" transform="translate(-30.96 -305.49)"/><path class="cls-2" d="M561.07,374.93h-13.3v-7.41l6.72-3.94,6.58,3.94Zm-6.58-13.59-10.44,5.94v2.15h1.6v7.38h17.42v-7.38h1.63v-2.09Z" transform="translate(-30.96 -305.49)"/><rect class="cls-2" x="519.96" y="63.03" width="6.95" height="1.82"/><rect class="cls-2" x="519.96" y="65.75" width="6.95" height="1.82"/><path class="cls-2" d="M555.87,382h-.53v-1.33h.59a.72.72,0,0,1,.78.71c0,.53-.35.62-.84.62m.06-1.83H554.7v2.33h1.2c1,0,1.51-.21,1.51-1.12s-.61-1.21-1.48-1.21" transform="translate(-30.96 -305.49)"/><path class="cls-2" d="M562.65,381h-.93v-.36h1c.26,0,.37,0,.37.18s-.08.18-.4.18m1-.12c0-.53-.26-.74-.9-.74h-1.69v2.33h.64v-1h.61l.67,1h.7l-.67-1c.43-.06.64-.24.64-.62" transform="translate(-30.96 -305.49)"/><polygon class="cls-2" points="522.18 76.11 520.96 74.67 520.24 74.67 520.24 76.99 520.85 76.99 520.85 75.58 522.07 76.99 522.8 76.99 522.8 74.67 522.18 74.67 522.18 76.11"/><polygon class="cls-2" points="514.88 74.67 514.24 74.67 514.24 76.99 516.54 76.99 516.54 76.49 514.88 76.46 514.88 74.67"/><polygon class="cls-2" points="517.2 76.99 519.43 76.99 519.43 76.49 517.86 76.49 517.86 75.99 519.17 75.99 519.17 75.52 517.86 75.52 517.86 75.17 519.43 75.17 519.43 74.67 517.2 74.67 517.2 76.99"/><polygon class="cls-2" points="527.16 76.99 529.38 76.96 529.38 76.49 527.8 76.49 527.8 75.99 529.14 75.99 529.14 75.52 527.8 75.52 527.8 75.17 529.38 75.17 529.38 74.67 527.16 74.67 527.16 76.99"/><path class="cls-2" d="M550.4,378.76l.18-.82.2.82Zm.43-1.27h-.49l-.58,2.09h.42l.13-.47h.52l.13.47h.46Z" transform="translate(-30.96 -305.49)"/><path class="cls-2" d="M547.47,378.82c0,.38,0,.47-.26.47s-.26-.12-.26-.5v-.5c0-.39,0-.5.29-.5s.23,0,.23.47Zm.44-.09v-.44c0-.5-.11-.86-.7-.86s-.69.3-.69.83v.56c0,.7.4.73,1.6.73l0-.15-.34-.11a1.17,1.17,0,0,0,.11-.56" transform="translate(-30.96 -305.49)"/><path class="cls-2" d="M559.08,379.29c-.17,0-.29-.12-.35-.33l-.35.06a.59.59,0,0,0,.67.59.69.69,0,0,0,.73-.59c0-.5-.93-.73-.93-1.06,0-.12.12-.17.23-.17s.26.11.35.29l.29-.12a.59.59,0,0,0-.67-.53c-.35,0-.64.18-.64.53,0,.59.93.74.93,1.12,0,.15-.08.21-.26.21" transform="translate(-30.96 -305.49)"/><path class="cls-2" d="M555.66,378.84v-.64c0-.27,0-.44.27-.44s.26.2.26.44v.62c0,.35-.09.47-.26.47s-.27-.15-.27-.45m1,0v-.65c0-.53-.15-.74-.7-.74s-.7.24-.7.8v.67c0,.5.15.71.7.71s.7-.24.7-.79" transform="translate(-30.96 -305.49)"/><path class="cls-2" d="M563,377.76a.35.35,0,0,1,.35.35l.29-.12a.59.59,0,0,0-.67-.56c-.58,0-.7.33-.7.77v.61c0,.62.18.8.76.8s.58-.21.58-.44v-.68H563v.32h.2v.24c0,.18-.05.26-.2.26s-.32-.2-.32-.5v-.47c0-.35,0-.58.32-.58" transform="translate(-30.96 -305.49)"/><path class="cls-2" d="M558.17,377.49h-.4v1.21c0,.47,0,.59-.26.59s-.27-.18-.27-.62v-1.18h-.43v1.21c0,.7.12.93.73.93s.63-.26.63-.87Z" transform="translate(-30.96 -305.49)"/><polygon class="cls-2" points="531.1 74.09 531.1 72 530.75 72 530.75 73.3 530.29 72 529.73 72 529.73 74.09 530.08 74.09 530.08 72.68 530.58 74.09 531.1 74.09"/><path class="cls-2" d="M548.33,377.49v1.27c0,.58.06.85.64.85s.7-.32.7-.91v-1.21h-.41v1.24c0,.41-.06.53-.26.53s-.26-.12-.26-.59v-1.18Z" transform="translate(-30.96 -305.49)"/><polygon class="cls-2" points="523.97 74.09 523.97 72 523.56 72 523.56 72.8 523.07 72.8 523.07 72 522.66 72 522.66 74.09 523.07 74.09 523.07 73.15 523.56 73.15 523.56 74.09 523.97 74.09"/><polygon class="cls-2" points="515.26 72.33 515.26 72 514.21 72 514.21 74.09 515.26 74.09 515.26 73.77 514.62 73.77 514.62 73.18 515.2 73.18 515.2 72.89 514.62 72.89 514.62 72.33 515.26 72.33"/><polygon class="cls-2" points="520.64 72 520.64 74.09 521.6 74.09 521.6 73.77 520.99 73.77 520.99 72 520.64 72"/><rect class="cls-2" x="529.03" y="72" width="0.38" height="2.09"/><path class="cls-2" d="M162,363.37h4.4v11.86H162Zm6.18,6.29,5.69,5.58h-5.69Zm0-6.29h1.45a3,3,0,0,1,2.1.86,3,3,0,0,1-2.1,5.06h-1.45Zm-8.45,14h15.8v-16h-15.8Z" transform="translate(-30.96 -305.49)"/><polygon class="cls-2" points="130.9 75.87 132.07 75.87 132.07 75.45 130.9 75.45 130.9 74.9 132.16 74.9 132.16 74.48 130.4 74.48 130.4 76.91 132.22 76.91 132.22 76.5 130.9 76.5 130.9 75.87"/><polygon class="cls-2" points="135.78 74.48 135.28 74.48 135.28 76.91 136.94 76.91 136.94 76.5 135.78 76.5 135.78 74.48"/><polygon class="cls-2" points="137.22 74.9 137.95 74.9 137.95 76.91 138.46 76.91 138.46 74.9 139.17 74.9 139.17 74.48 137.22 74.48 137.22 74.9"/><path class="cls-2" d="M176.16,380.93a.41.41,0,1,1,.41-.41.4.4,0,0,1-.41.41m0-.87a.46.46,0,1,0,.47.46.46.46,0,0,0-.47-.46" transform="translate(-30.96 -305.49)"/><path class="cls-2" d="M160,381h-.68v-.64H160c.23,0,.31.1.31.28a.32.32,0,0,1-.3.36m.72,1.09c0-.12,0-.44,0-.54s-.18-.28-.27-.34a.57.57,0,0,0,.33-.39.85.85,0,0,0,0-.49.56.56,0,0,0-.56-.38h-1.35v2.43h.5v-1h.58c.18,0,.3.08.31.24a4,4,0,0,0,0,.49.46.46,0,0,0,.06.23h.54v-.09c-.05,0-.09-.06-.09-.2" transform="translate(-30.96 -305.49)"/><path class="cls-2" d="M164.35,381.5l.32-.95.32.95Zm0-1.53-.85,2.43H164l.17-.49h.9l.17.49h.51L165,380Z" transform="translate(-30.96 -305.49)"/><path class="cls-2" d="M172,381.88a.69.69,0,0,1-.45.16.65.65,0,0,1-.44-.16,1,1,0,0,1-.25-.68,1,1,0,0,1,.25-.67.61.61,0,0,1,.44-.17.65.65,0,0,1,.45.17.92.92,0,0,1,.24.67.94.94,0,0,1-.24.68m-.45-1.95a1.12,1.12,0,0,0-.81.3,1.42,1.42,0,0,0-.36,1,1.4,1.4,0,0,0,.36,1,1.12,1.12,0,0,0,.81.31,1.11,1.11,0,0,0,.81-.31,1.4,1.4,0,0,0,.36-1,1.42,1.42,0,0,0-.36-1,1.1,1.1,0,0,0-.81-.3" transform="translate(-30.96 -305.49)"/><path class="cls-2" d="M174.45,381h-.68v-.64h.68c.22,0,.3.1.3.28a.32.32,0,0,1-.3.36m.72,1.09c0-.12,0-.44,0-.54a.46.46,0,0,0-.28-.34.58.58,0,0,0,.34-.39.76.76,0,0,0,0-.49.56.56,0,0,0-.56-.38h-1.35v2.43h.5v-1h.59c.17,0,.29.08.3.24a4,4,0,0,0,0,.49.46.46,0,0,0,.06.23h.54v-.09s-.09-.06-.09-.2" transform="translate(-30.96 -305.49)"/><path class="cls-2" d="M176.15,380.49h-.1v-.18h.15c.07,0,.14,0,.14.09s-.12.09-.19.09m.25-.09a.11.11,0,0,0-.06-.11.18.18,0,0,0-.12,0H176v.52h.06v-.24h.12l.15.24h.07l-.15-.24c.09,0,.16,0,.16-.14" transform="translate(-30.96 -305.49)"/><path class="cls-2" d="M580.71,352.65c3.35,0,6-1.6,6.09-4.77,0-2.32-1.5-3.81-3.92-5-1.6-.78-2.28-1.46-2.28-2.28a1.59,1.59,0,0,1,1.78-1.56c1.18,0,2.07.75,2.78,2.81.22.25,1.11.25,1.25-.14a9.73,9.73,0,0,0-.54-3.56,8.48,8.48,0,0,0-3.81-.75c-3.06,0-5.66,1.49-5.66,4.59,0,2.14,1.53,3.42,3.67,4.49,1.21.61,2.35,1.35,2.35,2.67a1.72,1.72,0,0,1-1.85,1.85c-1.82,0-3.17-2.1-3.63-3.56a.86.86,0,0,0-1.21.07,9.14,9.14,0,0,0,.57,4,7.1,7.1,0,0,0,4.41,1.1m-6.27-12.82c.36-.21.47-.85.47-1.25a.79.79,0,0,0-.29-.67h-3.17c-.64,0-.67,0-.67-.71v-2.67a1,1,0,0,0-1.07-.18,11.18,11.18,0,0,1-2.64,2.77,13.59,13.59,0,0,1-3,1.61.74.74,0,0,0,.21,1.1h1.1c.65,0,.68.07.68.82v7.94c0,2.35,1,4.06,4,4.06a7.27,7.27,0,0,0,5.13-2.07.8.8,0,0,0-.5-.92,3,3,0,0,1-1.5.53c-2.49,0-2.49-2.2-2.49-4.2v-5.34c0-.78,0-.82.5-.82Zm-21.58,8.26c0,2.49-.14,2.81-1.31,2.92l-.68.07a1,1,0,0,0,0,1.25c1.17-.07,2.74-.11,4.2-.11,1.67,0,3.1,0,4.81.11a1,1,0,0,0,0-1.25l-1.14-.1c-1.17-.11-1.32-.4-1.32-2.89v-5.48c0-1.35.18-2.14.68-2.14.21,0,.53,0,1.35.71a2,2,0,0,0,1.39.64,2.15,2.15,0,0,0,2.28-2.31,2,2,0,0,0-2-2.1c-1.49,0-2.53,1.17-3.49,1.78-.28-.07-.35-.18-.35-.43s.07-.82.14-1.53a.73.73,0,0,0-.64-.32,24.89,24.89,0,0,1-5.2,2.14.86.86,0,0,0,0,1.07l.5.32c.67.42.67.85.67,2.27Zm-10.5-5.94c-1.14,0-1.64,0-1.64-.54a2.91,2.91,0,0,1,2.78-2.56,1.78,1.78,0,0,1,1.89,2c0,.35-.07.71-.25.81a2.83,2.83,0,0,1-1.46.33Zm5.8,1.56c1.11,0,1.29-.5,1.29-1.17,0-2.74-2-5.13-5.7-5.13a7.66,7.66,0,0,0-7.69,8,7,7,0,0,0,7.4,7.26,6.83,6.83,0,0,0,6.24-4.06.81.81,0,0,0-.93-.82,3.51,3.51,0,0,1-3.31,1.85,5,5,0,0,1-5-5.27c0-.57.07-.64.89-.64ZM523,342.43c0-1.39.22-1.85.39-2.07a2,2,0,0,1,1.5-.49c2.35,0,4.06,2,4.06,5.48,0,3.31-1.21,5.66-3.42,5.66a2.49,2.49,0,0,1-1.71-.82,2.91,2.91,0,0,1-.82-2.06Zm-4.63,14.67c0,2.49-.14,2.81-1.31,2.92l-.72.07a1,1,0,0,0,0,1.25c1.28-.07,2.67-.11,4.24-.11s3.1,0,4.88.11a1,1,0,0,0,0-1.25l-1.21-.1c-1.17-.11-1.32-.4-1.32-2.89v-3.52c0-.75.22-1,.54-1a10.38,10.38,0,0,0,1.6.11c5.2,0,8.72-3.45,8.72-8.44,0-3.85-2.28-6.8-6-6.8a10,10,0,0,0-4.52,1.42.51.51,0,0,1-.29-.49,7.08,7.08,0,0,1,.07-1.18.75.75,0,0,0-.74-.43,25.31,25.31,0,0,1-5.13,2.25.84.84,0,0,0,0,1.06l.5.32c.67.43.67.86.67,2.28Zm-3.13-18.05c.32-.22.29-1.14-.07-1.25-.89.07-1.82.11-2.71.11-1.28,0-2.2,0-3.24-.11-.35.14-.42,1-.1,1.25l.39.1c.35.11.57.18.57.32a1.08,1.08,0,0,1-.25.65c-.57.85-1.18,1.7-1.53,2.2-.5-.71-1-1.39-1.46-2.17a1.68,1.68,0,0,1-.32-.75c0-.1.25-.21.53-.25l.43-.1c.39-.22.35-1.11-.07-1.25-1.29.07-2.53.11-3.81.11-2,0-2.92,0-4.31-.11-.36.11-.36,1.07-.11,1.25l.75.18a3.09,3.09,0,0,1,2.17,1.56l1.92,3a10.67,10.67,0,0,1,1.14,1.89,1.73,1.73,0,0,1-.32.78,46.69,46.69,0,0,1-2.92,3.74,3.37,3.37,0,0,1-1.67.71l-.89.14a.89.89,0,0,0,.07,1.25c1.1-.07,2-.11,2.78-.11,1.1,0,2.17,0,3.2.11a1,1,0,0,0,.07-1.25l-.57-.11c-.49-.1-.64-.17-.64-.35a2.68,2.68,0,0,1,.43-1c.46-.79,1-1.61,1.46-2.35.57.82,1,1.56,1.53,2.35a2.55,2.55,0,0,1,.43,1c0,.14-.11.28-.61.39l-.78.14c-.29.25-.21,1.11.11,1.25,1.63-.07,3.31-.11,4.73-.11s2.74,0,4.31.11c.39-.14.39-1,.11-1.25l-.39,0c-1.21-.11-1.93-.47-3.17-2.32L510,345.07a5.12,5.12,0,0,1-.75-1.39c0-.18.25-.5.67-1.07a19.79,19.79,0,0,1,2.68-2.85,4.75,4.75,0,0,1,2.13-.64Zm-27.67-7.37c0-1.32,0-1.39,1.18-1.39h2.85a4.68,4.68,0,0,1,3.49,1.1,8.32,8.32,0,0,1,1.35,2.81c.36.33,1.17.25,1.32-.14-.18-2.38-.43-4.95-.47-5.52-.46.07-2.49.11-4.77.11h-7.55c-1.71,0-3.45,0-5.13-.11a.91.91,0,0,0-.07,1.25l.89.18c1.61.32,1.82.53,1.82,3.77V347c0,3.28-.21,3.49-1.82,3.74l-1.67.25a1,1,0,0,0,0,1.25c2.67-.07,4.42-.11,6.13-.11h4.62c2.92,0,6.34,0,8.23.11a20.41,20.41,0,0,0,1.5-5.7.87.87,0,0,0-1.32-.18c-2,4-3.17,4.13-6.27,4.13-2.6,0-3.28-.28-3.74-.92a6.46,6.46,0,0,1-.57-3.39V342c0-1.07,0-1.11,1-1.11H491c1.85,0,2.28.29,2.63,2l.18.89a1,1,0,0,0,1.32,0c-.07-1.14-.11-2.42-.11-3.77s0-2.64.11-3.78c-.18-.32-1.07-.32-1.32,0l-.18.89c-.35,1.71-.78,2-2.63,2h-2.46c-1,0-1-.08-1-1.07Zm-25.21,10.47c-1.14,0-1.64,0-1.64-.54a2.91,2.91,0,0,1,2.78-2.56,1.78,1.78,0,0,1,1.89,2c0,.35-.07.71-.25.81a2.83,2.83,0,0,1-1.46.33Zm5.81,1.56c1.1,0,1.28-.5,1.28-1.17,0-2.74-2-5.13-5.7-5.13a7.66,7.66,0,0,0-7.69,8,7,7,0,0,0,7.4,7.26,6.83,6.83,0,0,0,6.24-4.06.81.81,0,0,0-.93-.82,3.51,3.51,0,0,1-3.31,1.85,5,5,0,0,1-5-5.27c0-.57.07-.64.89-.64Zm-13.68-3.88c.36-.21.46-.85.46-1.25a.78.78,0,0,0-.28-.67h-3.17c-.64,0-.68,0-.68-.71v-2.67a1,1,0,0,0-1.06-.18,11.18,11.18,0,0,1-2.64,2.77,13.44,13.44,0,0,1-3,1.61.75.75,0,0,0,.22,1.1h1.1c.64,0,.68.07.68.82v7.94c0,2.35,1,4.06,4,4.06a7.24,7.24,0,0,0,5.12-2.07.79.79,0,0,0-.49-.92,3,3,0,0,1-1.5.53c-2.49,0-2.49-2.2-2.49-4.2v-5.34c0-.78,0-.82.5-.82Zm-18,8.76c0,1.1-.25,1.75-1.35,1.75a2,2,0,0,1-1.82-2.14c0-1.67,1.39-2.28,3-2.49.25,0,.29.07.25.64Zm4.59-6c.18-3.67-1.56-5.16-4.56-5.16a10.14,10.14,0,0,0-6,2.17,4.25,4.25,0,0,0-1.71,2.74c0,.5.22.89.82.89a6,6,0,0,0,2.57-.82,1.53,1.53,0,0,0,.6-1.13c.25-1.54,1-2,1.85-2,1.53,0,2.07,1.7,2.07,3.06,0,.42,0,.82-.07,1.21s-.22.53-.86.71c-1,.28-2,.57-3.35,1-2.59.78-3.7,1.89-3.7,3.7a3.69,3.69,0,0,0,4,3.74,5.28,5.28,0,0,0,3-1.14,1.62,1.62,0,0,1,.74-.39.86.86,0,0,1,.57.28,4.23,4.23,0,0,0,3,1.25,5.81,5.81,0,0,0,4.13-1.92.68.68,0,0,0-.43-.82,2.59,2.59,0,0,1-1.35.43c-.72,0-1.75-.65-1.61-3.07Zm-13.89-2.74c.36-.21.47-.85.47-1.25a.79.79,0,0,0-.29-.67h-3.17c-.64,0-.67,0-.67-.71v-2.67a1,1,0,0,0-1.07-.18,11.18,11.18,0,0,1-2.64,2.77,13.59,13.59,0,0,1-3,1.61.74.74,0,0,0,.21,1.1h1.11c.64,0,.67.07.67.82v7.94c0,2.35,1,4.06,4,4.06a7.27,7.27,0,0,0,5.13-2.07.79.79,0,0,0-.5-.92,3,3,0,0,1-1.5.53c-2.49,0-2.49-2.2-2.49-4.2v-5.34c0-.78,0-.82.5-.82Zm-18,12.82c3.35,0,6.06-1.6,6.09-4.77,0-2.32-1.49-3.81-3.92-5-1.6-.78-2.27-1.46-2.27-2.28a1.59,1.59,0,0,1,1.78-1.56c1.17,0,2.06.75,2.77,2.81.22.25,1.11.25,1.25-.14a10,10,0,0,0-.53-3.56,8.55,8.55,0,0,0-3.81-.75c-3.07,0-5.67,1.49-5.67,4.59,0,2.14,1.53,3.42,3.67,4.49,1.21.61,2.35,1.35,2.35,2.67A1.72,1.72,0,0,1,409,351c-1.82,0-3.17-2.1-3.63-3.56a.86.86,0,0,0-1.21.07,9.44,9.44,0,0,0,.57,4,7.1,7.1,0,0,0,4.41,1.1m-17.8-21c0-1.32,0-1.39,1.17-1.39h2.85a4.65,4.65,0,0,1,3.49,1.1,8.32,8.32,0,0,1,1.35,2.81c.36.33,1.18.25,1.32-.14-.18-2.38-.42-4.95-.46-5.52-.46.07-2.49.11-4.77.11h-7.55c-1.71,0-3.46,0-5.13-.11a.9.9,0,0,0-.07,1.25l.89.18c1.6.32,1.82.53,1.82,3.77V347c0,3.28-.22,3.49-1.82,3.74l-1.67.25a1,1,0,0,0,0,1.25c2.67-.07,4.41-.11,6.12-.11h4.63c2.92,0,6.34,0,8.23.11a20.43,20.43,0,0,0,1.49-5.7.87.87,0,0,0-1.32-.18c-1.95,4-3.16,4.13-6.26,4.13-2.6,0-3.28-.28-3.74-.92a6.46,6.46,0,0,1-.57-3.39V342c0-1.07,0-1.11,1-1.11h2.45c1.85,0,2.28.29,2.64,2l.18.89a1,1,0,0,0,1.31,0c-.07-1.14-.1-2.42-.1-3.77s0-2.64.1-3.78c-.17-.32-1.07-.32-1.31,0l-.18.89c-.36,1.71-.79,2-2.64,2h-2.45c-1,0-1-.08-1-1.07ZM366.49,348c0,2.49-.14,2.81-1.32,2.92l-.68.07a1,1,0,0,0,0,1.25c1.25-.07,2.74-.11,4.27-.11s3.1,0,4.28.11a1,1,0,0,0,0-1.25l-.6-.07c-1.25-.14-1.39-.43-1.39-2.92V332.14c0-2.24,0-3.74.1-5.2a.77.77,0,0,0-.6-.25,35.24,35.24,0,0,1-5.45,2,.86.86,0,0,0,0,1.07l.61.36c.71.43.71.82.71,2.24Zm-9.62.57c0,1.1-.25,1.75-1.35,1.75a2,2,0,0,1-1.82-2.14c0-1.67,1.39-2.28,3-2.49.24,0,.28.07.24.64Zm4.6-6c.17-3.67-1.57-5.16-4.56-5.16a10.12,10.12,0,0,0-6,2.17,4.21,4.21,0,0,0-1.71,2.74c0,.5.21.89.82.89a5.89,5.89,0,0,0,2.56-.82,1.57,1.57,0,0,0,.61-1.13c.24-1.54,1-2,1.85-2,1.53,0,2.06,1.7,2.06,3.06a11.76,11.76,0,0,1-.07,1.21c0,.28-.21.53-.85.71-1,.28-2,.57-3.35,1-2.6.78-3.7,1.89-3.7,3.7a3.69,3.69,0,0,0,4,3.74,5.28,5.28,0,0,0,3-1.14c.36-.25.57-.39.75-.39a.86.86,0,0,1,.57.28,4.19,4.19,0,0,0,3,1.25,5.81,5.81,0,0,0,4.13-1.92.67.67,0,0,0-.43-.82,2.56,2.56,0,0,1-1.35.43c-.71,0-1.74-.65-1.6-3.07Zm-21-.42c-1.14,0-1.64,0-1.64-.54a2.91,2.91,0,0,1,2.78-2.56,1.78,1.78,0,0,1,1.89,2c0,.35-.07.71-.25.81a2.83,2.83,0,0,1-1.46.33Zm5.81,1.56c1.1,0,1.28-.5,1.28-1.17,0-2.74-2-5.13-5.7-5.13a7.66,7.66,0,0,0-7.69,8,7,7,0,0,0,7.41,7.26,6.83,6.83,0,0,0,6.23-4.06.81.81,0,0,0-.93-.82,3.51,3.51,0,0,1-3.31,1.85,5,5,0,0,1-5-5.27c0-.57.07-.64.89-.64ZM318.77,332c0-1.71.07-1.82,1.53-1.82,2.78,0,4.67,2.07,4.67,5.27a5.22,5.22,0,0,1-1.28,3.85,3.46,3.46,0,0,1-2.71,1c-2.1,0-2.21-.1-2.21-1.35Zm-4.88,15c0,3.28-.21,3.53-1.81,3.81l-1,.18a1,1,0,0,0,0,1.25c1.85-.07,3.41-.11,5.19-.11s3.35,0,5.24.11a1.13,1.13,0,0,0,0-1.25l-1-.18c-1.6-.28-1.82-.53-1.82-3.81v-4.38c0-.71.07-.78,1.32-.78a1.82,1.82,0,0,1,1.89,1.25,45.2,45.2,0,0,0,2.77,5.52,7.29,7.29,0,0,0,6.91,3.74,8.54,8.54,0,0,0,2.82-.33.68.68,0,0,0-.15-.92,4.36,4.36,0,0,1-2.38-1c-1.71-1.46-3.17-4.13-5.52-8.9-.18-.39-.18-.61.18-.78,1.63-.82,3.77-2.18,3.77-5.35a5.86,5.86,0,0,0-3.13-5.27c-1.36-.81-4-1.28-7-1.28-3.39,0-6.16.14-8.83.32a.82.82,0,0,0-.08,1.25l1,.14c1.49.21,1.56.61,1.56,4.17Zm-22.82,1.07c0,2.49-.14,2.81-1.32,2.92l-.68.07a1,1,0,0,0,0,1.25c1.17-.07,2.74-.11,4.2-.11,1.68,0,3.1,0,4.81.11a1,1,0,0,0,0-1.25L297,351c-1.17-.11-1.31-.4-1.31-2.89v-5.48c0-1.35.18-2.14.67-2.14.22,0,.54,0,1.36.71a2,2,0,0,0,1.39.64,2.14,2.14,0,0,0,2.27-2.31,2,2,0,0,0-1.95-2.1c-1.5,0-2.53,1.17-3.49,1.78-.29-.07-.36-.18-.36-.43s.07-.82.14-1.53a.72.72,0,0,0-.64-.32,24.67,24.67,0,0,1-5.2,2.14.86.86,0,0,0,0,1.07l.5.32c.68.42.68.85.68,2.27Zm-10.51-5.94c-1.14,0-1.63,0-1.63-.54a2.9,2.9,0,0,1,2.77-2.56,1.78,1.78,0,0,1,1.89,2c0,.35-.07.71-.25.81a2.83,2.83,0,0,1-1.46.33Zm5.81,1.56c1.1,0,1.28-.5,1.28-1.17,0-2.74-2-5.13-5.7-5.13a7.66,7.66,0,0,0-7.69,8,7,7,0,0,0,7.41,7.26,6.83,6.83,0,0,0,6.23-4.06.81.81,0,0,0-.93-.82,3.51,3.51,0,0,1-3.31,1.85,5,5,0,0,1-5-5.27c0-.57.07-.64.89-.64ZM256.88,348c0,2.49-.14,2.78-1.42,2.92l-.68.07a1,1,0,0,0,0,1.25c1.24-.07,2.7-.11,4.34-.11s3.14,0,4.28.11a1,1,0,0,0,0-1.25l-.57-.07c-1.25-.14-1.39-.43-1.39-2.92V346c0-.68.18-.86.43-.86a1,1,0,0,1,.89.54l2.53,3.84a4.68,4.68,0,0,1,.6,1.14c0,.14-.21.21-.57.28l-.46.11a.94.94,0,0,0,.14,1.25c1-.07,2.28-.11,4.38-.11s3.39,0,4.49.11c.36-.14.43-1,.14-1.25l-.53-.11a4,4,0,0,1-2.1-.81,58.77,58.77,0,0,1-4.67-6.81,1.32,1.32,0,0,1-.25-.6.71.71,0,0,1,.22-.46,19.87,19.87,0,0,1,2.38-2.07,6,6,0,0,1,2.39-1.25l1.14-.25c.25-.28.21-1.06-.14-1.24a52.9,52.9,0,0,1-6.73.5h-.86c-.36.14-.39.92-.07,1.24l.89.15c.32,0,.68.17.68.35s-.18.61-.86,1.43l-1.49,1.74a2.63,2.63,0,0,1-2.07,1c-.39,0-.5-.11-.5-.5V332.14c0-2.24,0-3.74.11-5.2a.77.77,0,0,0-.61-.25,39.34,39.34,0,0,1-5.44,2,.86.86,0,0,0,0,1.07l.6.36c.71.43.71.82.71,2.24Zm-7.51-10.61c-4.81,0-8.9,3-8.9,8,0,4.2,3.06,7.19,7.55,7.19a6.74,6.74,0,0,0,6.3-3.81.8.8,0,0,0-.93-.78,3.36,3.36,0,0,1-3.17,1.74c-3.27,0-5.09-2.85-5.09-5.66,0-2.46,1.25-5.09,3.56-5.09,1.29,0,2.67,1.24,3.67,2.67a.94.94,0,0,0,.57.18c.43,0,.93-1,.93-2a2.18,2.18,0,0,0-.75-1.86,12.47,12.47,0,0,0-3.74-.6M236.76,341c0-1.32.08-2.49.11-3.13,0-.25-.21-.43-.35-.43s-1.29.39-2.53.57-2.42.28-3.71.36c-.42.14-.46,1-.17,1.24l.49.07c1.29.18,1.54.5,1.54,1.93v6.73a1.49,1.49,0,0,1-.4,1.06,2.79,2.79,0,0,1-1.85.68c-2.28,0-2.53-1.49-2.53-3.2V341c0-1.28,0-2.24.11-3.13,0-.18-.21-.43-.43-.43a21.3,21.3,0,0,1-2.24.6,26.23,26.23,0,0,1-3.45.33,1,1,0,0,0-.15,1.24l.47.14c.85.25,1.06.43,1.06,2.32v6c0,3,1.22,4.56,4.17,4.56a8.07,8.07,0,0,0,4.84-1.71.37.37,0,0,1,.4.36,9.6,9.6,0,0,1-.11,1.28.5.5,0,0,0,.43.43,25.62,25.62,0,0,1,6.58-1.29c.47-.17.43-1.46.11-1.53a4.61,4.61,0,0,1-1.42.29c-.86,0-1-.93-1-3Zm-26.24,6c0,3.32-.21,3.64-1.82,3.81l-1.6.18a1,1,0,0,0,0,1.25c2.49-.07,4.35-.11,6.06-.11s3.38,0,5.69.11a1.14,1.14,0,0,0,0-1.25l-1.42-.18c-1.6-.21-1.82-.49-1.82-3.81v-15.7c0-.93.11-1,1-1h2.14c2.67,0,3.17,1.67,3.78,3.95.17.29,1.13.21,1.31-.11a25,25,0,0,1,.54-6.12.75.75,0,0,0-.54-.25.81.81,0,0,0-.46.11c-.32.74-.85.78-3.21.78H206.89c-2.71,0-2.81-.14-3-.75a.81.81,0,0,0-.5-.14.83.83,0,0,0-.5.18,43.49,43.49,0,0,1-1.18,6.05,1,1,0,0,0,1.32.32c1.07-2.6,1.82-4,4.42-4h2.21c.85,0,.85.17.85,1Zm-21,5.63a2.78,2.78,0,0,0,2.88-2.88,2.89,2.89,0,1,0-2.88,2.88M176,328.08a15.57,15.57,0,0,0-9.86,3.17,11.74,11.74,0,0,0-4.31,9.43,11.2,11.2,0,0,0,4.52,9.34,16.33,16.33,0,0,0,9.58,2.7,26.31,26.31,0,0,0,7.23-1.32,15.77,15.77,0,0,0,1.35-5.59,1,1,0,0,0-1.35-.25c-1,2.43-3,5.52-7.27,5.52s-8.37-3.81-8.37-10.89,4.24-10.47,8.19-10.47a6.47,6.47,0,0,1,6.7,5.09,1,1,0,0,0,1.35-.25,47.07,47.07,0,0,1-.42-5.55,42.58,42.58,0,0,0-7.34-.93m-20.23,24.57a2.79,2.79,0,0,0,2.89-2.88,2.89,2.89,0,1,0-2.89,2.88M145,331.75c0-1.39,0-1.46,1.17-1.46H149c1.81,0,2.88.42,3.49,1.17a9.08,9.08,0,0,1,1,2.78c.43.29,1.21.25,1.35-.14-.07-2.39-.07-5-.07-5.56-.5.07-2.53.11-4.8.11h-7.48c-1.71,0-3.49,0-5-.11-.4.14-.4,1-.07,1.25l.71.11c1.6.25,1.81.56,1.81,3.88V347c0,3.32-.21,3.56-1.81,3.81L137,351a1,1,0,0,0,0,1.25c2.14-.07,3.92-.11,5.56-.11s3.45,0,5.66.11a1.14,1.14,0,0,0,0-1.25l-1.32-.18c-1.6-.21-1.81-.49-1.81-3.81v-4.8c0-1,0-1.07,1-1.07h2.74c1.89,0,2.28.28,2.64,2l.18.86a1.07,1.07,0,0,0,1.35,0c-.07-1.07-.11-2.38-.11-3.7s0-2.67.11-3.81a1.07,1.07,0,0,0-1.35,0l-.18.86c-.36,1.74-.75,2-2.64,2H146c-1,0-1-.11-1-1.07Z" transform="translate(-30.96 -305.49)"/><path class="cls-2" d="M31.87,307.31V345H56.09q0,24.06,0,48.12V394H94.58V345h24.9V306.4H31.87Z" transform="translate(-30.96 -305.49)"/><g class="cls-3"><path class="cls-4" d="M105.33,361.72l17.78.29c.27.24.53.49.79.75Z" transform="translate(-30.96 -305.49)"/><path class="cls-4" d="M121.49,360.59c-.32-.27-.66-.52-1-.77l-19.11-.19Z" transform="translate(-30.96 -305.49)"/><path class="cls-4" d="M118.9,358.7v-.09c-.35-.25-.72-.46-1.08-.69l-20.49-.16Z" transform="translate(-30.96 -305.49)"/><path class="cls-4" d="M116.85,366.52c-.46.82.73,1.49,1.35,1.75.18-.36-.77-1.62-1.27-1.74l10.89.61c-.2-.26-.38-.52-.58-.77l-16.49-.19Z" transform="translate(-30.96 -305.49)"/><path class="cls-4" d="M126.1,365.07c-.22-.25-.44-.52-.67-.77l-18.5-.3Z" transform="translate(-30.96 -305.49)"/><path class="cls-4" d="M79.56,364l1.06,0c0-.06,0-.12,0-.17h-1l-.09.21" transform="translate(-30.96 -305.49)"/><path class="cls-4" d="M82.12,363.92l.07-.11h-.71l-.06.14Z" transform="translate(-30.96 -305.49)"/><path class="cls-4" d="M125.43,372.83c.2.11.37,0,.5-.28h-.64a.59.59,0,0,0,.14.29" transform="translate(-30.96 -305.49)"/><path class="cls-4" d="M121.6,370.64l5.06.38c.2-.14.39-.07.63,0l.92.07c.06-.06.13-.12.19-.11s.15.08.21.14l1.07.08a3.15,3.15,0,0,1,.26-.26l.37-.12a3.37,3.37,0,0,0-.19-.32l-8.58-.18.06.28" transform="translate(-30.96 -305.49)"/><path class="cls-4" d="M130,381.39s0,0,0,.07l4.68.41c-.06-.25-.12-.51-.19-.76l-4.6-.12a2.92,2.92,0,0,1,.1.4" transform="translate(-30.96 -305.49)"/><path class="cls-4" d="M130.82,387.68l1,.08a6.87,6.87,0,0,1-.36,1.47,1.25,1.25,0,0,1-.08.12l-1.09,0c0,.13.08.27.13.4l.67.06a2.77,2.77,0,0,0-.49.79c.5.18.78-.32,1-.74l4,.34c0-.25,0-.49,0-.75l-3.39-.06a2.26,2.26,0,0,0-.13-1.59l3.48.3c0-.25,0-.5,0-.76l-4.67-.1a1.77,1.77,0,0,1,0,.46" transform="translate(-30.96 -305.49)"/><path class="cls-4" d="M131.25,383.57l3.84.33c0-.25-.05-.51-.1-.76l-3.75-.09c0,.22,0,.41,0,.52" transform="translate(-30.96 -305.49)"/><path class="cls-4" d="M57.33,392.52c0,.24.07.47.1.71l11.19-.6Z" transform="translate(-30.96 -305.49)"/><path class="cls-4" d="M128.8,391.65l6.66.55.06-.73-6.82-.11c0,.09.07.19.1.29" transform="translate(-30.96 -305.49)"/><path class="cls-4" d="M57.12,390.53c0,.24,0,.49.05.73l11.14-.71Z" transform="translate(-30.96 -305.49)"/><path class="cls-4" d="M57.06,388.42c0,.24,0,.48,0,.72l11-.66Z" transform="translate(-30.96 -305.49)"/><path class="cls-4" d="M126.08,399.88l3,.24a2,2,0,0,0-.3.56.68.68,0,0,0,.71-.53l4.38.36.21-.74-8-.14a1,1,0,0,1,0,.25" transform="translate(-30.96 -305.49)"/><path class="cls-4" d="M58.88,399.44l2-.1a8.11,8.11,0,0,1,.94-.57l-3.17,0c.07.25.17.48.25.72" transform="translate(-30.96 -305.49)"/><path class="cls-4" d="M123.44,412c.17-.39.37-.78.54-1.17a4.23,4.23,0,0,1,.22-.42L114,409.75l10.52.17c.08-.09.14-.18.22-.26.48-.43,1-.81,1.52-1.23l-9.84-.72,10.42.19a7.23,7.23,0,0,0,.89-1c.06-.09.1-.19.22-.22s.41,0,.53-.29h0l-3.17-.21a.83.83,0,0,1-.3.14,1.32,1.32,0,0,1-.82-.22l-6-.41,5.63.06a1.91,1.91,0,0,1-.15-.32c-.13-.4-.24-.81-.39-1.21a2.17,2.17,0,0,0-.15-.35l-3.42-.25,3.24.05a.33.33,0,0,1-.1-.18c0-.11.12-.18.15-.28h0c0,.15.14.3.35.45h.94c-.12-.61-.35-1.19-.47-1.79a.19.19,0,0,0,0-.08l-3.21-.25,3.17.08a.24.24,0,0,1,0-.08,6.24,6.24,0,0,0,0-1.77l0-.08-1.45-.12,1.38,0a.5.5,0,0,0-.5-.16,1.55,1.55,0,0,0-.37-1.6c-.54-.43-.76.23-1.44.11-.32.81-1,1.26-1.48,2a8.62,8.62,0,0,0-1,2c-.15.41-.43,1.1-.83.57-.13-.16.05-1,0-1.23a12.46,12.46,0,0,0-.59-1.15c-.17-.45-.06-1.34-.34-1.63-.15.34-.24.34-.55.25.12-.07.22-.28.4-.35-.08-.34-.67-.77-.93-.93-.54-.34-.51-.2-1.13-.18a5.18,5.18,0,0,1-1.34-.24,10.75,10.75,0,0,1-1.18-.2c-.53-.21-1-1.88-1.66-1.5s.53,2,.6,2.47c.82.34.85-.88,1.45-.72.12.57.54.67.73,1.11s0,.61-.4,1a8.46,8.46,0,0,1-4.11,2.07c-1.13.26-.6-.54-.87-1.41a5.17,5.17,0,0,0-.35-.83c-.13-.22-.38-.25-.47-.59,0-.16.13-.35.11-.52-.15-1-1-1.77-1-2.8,0-.7.9-1.75.57-2.4-.14-.28-1-.35-1.27-.44s-1,0-1.24-.55.13-1.13.66-.92l.06-.27c-.65-.22-1.17.15-1.89-.06-.16.39,0,.74-.06,1.12-.66,0-.8-.25-.9-.92a2.35,2.35,0,0,0-.52-1.49c-.34-.48-.78-1.56-1.59-1.37-.28,1,.84,2,1.45,2.59-.13,0-.26.1-.46,0,.18.32.24,1-.38.73,0-.24.08-.52.14-.78-.48-.15-1-1-1.19-1.46-.33-.74-.25-.95-1.27-.78a5.88,5.88,0,0,0-1,.1c-.32.1-.37.22-.67.45-.69.53-.93.59-1.18,1.47-.47,0-.84.1-1.31.12s-.27.24-.72-.21a2.09,2.09,0,0,1-.24-2.35c.59-1,1.44.44,2.3.09s.31-2-.32-2.22c.59-.2,1.17-.11,1.79-.36.42-.17,1.41-1,1.81-.9,0-.61.61-.37,1-.45.12-.4,0-1.44.16-1.67s.43-.23.56.06-.27.41-.33.63c-.51,1.84,2,.57,2.44,1.19.73,0,.91-.86,1.24-1.3.87.63.44-.75.54-1,.34.11,1.71.3,1.74-.22s-1.36-.17-1.7-.32c-1.63-.72.82-2.26.67-3.22-.79-.44-.87.29-1.15.74s-1.27.76-1.23,1.53.47.68,0,1.38c-.26.44-.65.72-.77,1.3-.39-.05-.49.27-.86.17a3,3,0,0,0-.2-1.88,1.27,1.27,0,0,0-.61.1c-.18.51-1,.23-1.11-.2a4.1,4.1,0,0,1,.35-1.54c.28-.66.59-.57,1.13-.91a6.48,6.48,0,0,0,1.12-1.1c.63-.66,1.27-1.84,2-2.3.53-.32,2.12-.8,2.68-.27-.1.14-.09.32-.17.47.76.24.89.1,1.54.63a7.49,7.49,0,0,1,1.31,1c.32.48.24,1.22-.44,1.12-.47-.08-1.07-.53-1.62-.66.21.29.42,1.84,1,1.85-.16-.62.36-.59.79-.43a1.49,1.49,0,0,1,.26-.68c.14-.13.53-.12.57-.19.3-.44-.1-.76.17-1.32.68,0,.2.92.62,1.19.09-.54.92-1.33,1.49-1.09a1.65,1.65,0,0,1,0,.21c.5,0,2.19-.42,1.33-1.15.7-.39,1.54,1,2.12,1.12.36-.77-.33-1-.52-1.73a1.78,1.78,0,0,1,.17-1.58c.67.11.61,1.59.78,2.13a3.13,3.13,0,0,1,.24,2,.73.73,0,0,0,.44,0,3.29,3.29,0,0,0,0-1.84c-.12-.52-.68-1.07-.45-1.64.23.19.44.47.79.48,0-.09,0-.18.07-.27-.34-.12-.38-.37-.2-.67.48.05.49.57,1.06.54a.82.82,0,0,0,.12-.41c-.48-.11-.67-.56-.92-.93.3-.2.66-.23,1-.46a1,1,0,0,1-.11-.3v0s0,0,0-.05l-.34,0h.34c-.16-.65.43-1.14,1-1.67.1-.1.29-.11.43-.2s.08,0,.1-.06,0,0,0-.06l-.09.05-3.31-.25,3.4.07c0-.16-.07-.33,0-.4.24-.33.75-.4.75.16a.94.94,0,0,0,.34.08c0-.14.21-.26.25-.38a.82.82,0,0,1,.63.66,1.36,1.36,0,0,1,.06.29c.13.87-.11,2,.42,1.84,0-.47,1.43-1.06,1.34-.38.51.19.81-.13.85-.62a2.48,2.48,0,0,1,.83.41,2.67,2.67,0,0,1,.25.65c0,.14.09.26.14.28.2.12.37,0,.5-.27a12.2,12.2,0,0,0,.44-1.17,1.1,1.1,0,0,1,.3-.37c.19-.14.38-.06.62.05a1.9,1.9,0,0,0,.66.2.38.38,0,0,0,.26-.13c.07-.06.13-.12.19-.12a.32.32,0,0,1,.21.15s.07.08.09.08a6.41,6.41,0,0,1,.91.11c0-.05,0-.07.07-.11a2.08,2.08,0,0,1,.26-.26l.37-.12a37.14,37.14,0,0,1,2.73,5.51h-.24l-.82-.68a.51.51,0,0,1-.22-.15l-.07-.09-.44,0s0,.06-.06.08a1.07,1.07,0,0,0-.35.84,2.31,2.31,0,0,0,.07.5.93.93,0,0,1,0,.44h0a1,1,0,0,0,0-.51l2.31,0c.1.25.18.51.27.77l-2.62-.22,0,.08a4.33,4.33,0,0,1-.46.73,4.42,4.42,0,0,0-.32.61l3.89.08c.08.26.17.52.24.78l-4.32-.35a.19.19,0,0,0,0,.07,2.41,2.41,0,0,0-.07,1.1,3.14,3.14,0,0,0,.12.51,3.34,3.34,0,0,1,.1.4s0,.05,0,.07c0,.33-.06.56.34.72.08-.49.47-.54.73-.19a2.67,2.67,0,0,1,.15,1.07c0,.21,0,.41,0,.51h0a4.59,4.59,0,0,1-.13,1.48l4.17.1c0,.25.08.5.1.75l-3-.27c0,.33-.14.58-.49.57a2.07,2.07,0,0,0-.07-.62l-.8-.07a.64.64,0,0,1,0,.07c-.05.16-.1.31-.15.49a2.58,2.58,0,0,0,0,1.14,2.34,2.34,0,0,1,0,.46.34.34,0,0,1,0,.1c-.1.43-.54.62-.63,1a1.32,1.32,0,0,0,.06.54c0,.13.08.26.13.4a1.59,1.59,0,0,1,.12.95c-.31,0-.43-.53-.56-1l0-.08-1.44-.12a.19.19,0,0,0,0,.07,3.46,3.46,0,0,0,.26,1.79c0,.1.07.2.1.29a3.72,3.72,0,0,1,.25,1,4.85,4.85,0,0,1-.05.87l0,.11a1.05,1.05,0,0,0,.05-.19l6.35.15c0,.25,0,.5-.08.74l-6.34-.58a.19.19,0,0,0,0,.07,5.44,5.44,0,0,1-.7,1.59l6.84.13c0,.24-.08.48-.13.73L128,395.8l-.07.07c-.61.64-1.6,1-2,1.67l2.95.06c0-.09.05-.17.07-.24a2.25,2.25,0,0,1,.08.24l5.68.11c0,.1,0,.2-.06.3s-.09.28-.13.43l-5.4-.44a.9.9,0,0,1-.1.6c-.3-.1-.3-.35-.24-.63l-2.94-.24,0,.07a1.44,1.44,0,0,0,0,.94,4.34,4.34,0,0,1,.28,1,1.93,1.93,0,0,1,0,.24,1.73,1.73,0,0,1-.09.4c-.14.41-.11.69-.63.71s-.47-.53-1-.62a4.25,4.25,0,0,0-.22,1.25v.19a2.08,2.08,0,0,0,.1.66c.18.41.58.66.42,1.12h1.09a8.23,8.23,0,0,1,1.34-1.65l-2.93-.22v-.18l3.2.07a2.14,2.14,0,0,0,.16-.28l0,.16s0,.08,0,.12l6,.14c-.08.23-.18.44-.27.66l-1.7-.13.09.28c.07.21.17.3-.06.51s-.67.34-.5,0c-.5.14-1.57-.32-1.17-.93l-2.36-.18a5.44,5.44,0,0,1-.35,1.62l5.51.07v.06c-.1.23-.19.47-.29.7l-5.44-.39c-.24.39-.54.62-.92.44a.55.55,0,0,1-.36-.54l-1.15-.08h0l-.79-.06c.28.2.55.38.52.56-.13.84,0,1.17.25,1.29l4.46,0s0,0,.07,0a.45.45,0,0,1,.16,0l2.6,0c-.13.25-.28.49-.41.74l-1.36-.1s0,0,0,0c-.08.22.06.37.09.58s-.13.39-.24.58l-.18.3.9,0V408l-.4.68-.93-.07-.15.24c-.24.37-.49.73-.74,1.09l.94,0c-.17.24-.33.5-.51.74l-.9-.06a1.93,1.93,0,0,1-.79.81" transform="translate(-30.96 -305.49)"/><path class="cls-4" d="M127.07,411.49c-.37.13-.22-.21-.22-.41-.33.29-.66,0-1,.14a2.3,2.3,0,0,0-.81.71" transform="translate(-30.96 -305.49)"/><path class="cls-4" d="M128.56,389.3l1.19,0c-.12-.27-.28-.41-.58-.17,0-.17-.16-.22-.21-.34a1.4,1.4,0,0,0-.4.49" transform="translate(-30.96 -305.49)"/><path class="cls-4" d="M129.31,406.42a.16.16,0,0,0,.19,0l0,0Z" transform="translate(-30.96 -305.49)"/><path class="cls-4" d="M130.24,402.26c0,.08,0,.17,0,.23.23.07.22,0,.26-.2Z" transform="translate(-30.96 -305.49)"/><path class="cls-4" d="M82.29,411.47l-8.18-.08.48.34" transform="translate(-30.96 -305.49)"/><path class="cls-4" d="M71.28,409.67l.06,0-.12,0-.1-.07-.24-.16a4.1,4.1,0,0,0-1.56-.85,2.28,2.28,0,0,0,.23-1.06l-1.76.07.14-.17c.06-.1.15-.19.21-.28h1.13a3.88,3.88,0,0,1,.1-1.39c.06-.13.09-.28.14-.42l-1.12.05a3.4,3.4,0,0,0-.07-.34l1.27,0a3.3,3.3,0,0,0,.21-.65c.08-.41.15-.82.22-1.23l-2.73.14L67,403l3.06,0a10.72,10.72,0,0,0,.11-1.4,2.94,2.94,0,0,1,.12-.59l-4.84.24c-.09-.13-.2-.25-.28-.37l5.12,0a.87.87,0,0,0,0-.53c-.06-.14-.24-.2-.32-.31-.25-.3-.28-.74-.53-1.06l-.13-.15-4.71.24a1.29,1.29,0,0,0,0,.34,5.74,5.74,0,0,0-.5-.36l-.11.05-1.32.07a1.56,1.56,0,0,1,0-.48l6.64.09a1.1,1.1,0,0,1-.42-.84,5.28,5.28,0,0,0,0-1.2l-10.51.6c-.07-.23-.12-.47-.18-.71l10.69.07c0-.09,0-.17,0-.27-.1-.44-.28-.79-.35-1.23,0-.17-.15-.36-.07-.54h0l-10.59.48-.15-.71,10.76.2c0-.06.09-.07.14-.15s.23,0,.23-.27c0,0-.14-.06-.2-.06,0-.24.32-.77.56-.71,0-.29.35-.34.5-.49a2.61,2.61,0,0,0,.41-1.13.34.34,0,0,0,.19-.11c-.16-.06-.15-.27-.21-.44s-.11-.31-.41-.38-.18.09-.37-.06a2,2,0,0,1-.26-.46,3.24,3.24,0,0,1-.51-1.52,1.1,1.1,0,0,0-.33-.95,4.94,4.94,0,0,1-.58-.9c-.11-.22-.17-.43-.25-.62L57.06,387c0-.24,0-.48,0-.72l10.12.1a.86.86,0,0,0-.23-.34c-.23-.18-.49-.22-.63-.48a10,10,0,0,1-.32-1.1l-8.85.61c0-.24,0-.48,0-.72l8.76,0h0a1.06,1.06,0,0,1-.28-.87h-.11a3.53,3.53,0,0,0,.38-.75s0-.1,0-.15l-8.57.42c0-.24.09-.48.13-.72l8.44.14c0-.36-.09-.76-.12-1.1s0-.61,0-.92l-.44,0a.34.34,0,0,1,0,.14.8.8,0,0,1-.13-.13l-7.48.38c.05-.24.07-.48.13-.73l7.23.1c0-.34,0-.69.07-1s.12-.48.17-.72l-7.13.41c.06-.24.14-.49.21-.73l7,0a4.7,4.7,0,0,0,.21-.9c0-.32,0-.57,0-.87l-6.76.33.24-.75,6.57.08a15.21,15.21,0,0,1,.46-1.67l-6.51.34c.1-.25.2-.5.31-.74l6.34,0c.1-.23.24-.42.34-.65.22-.46.44-.54.78-.95,0,0,0-.07.05-.1l-7,.37c.13-.27.29-.52.42-.79l6.74.05a.79.79,0,0,1,.28-.38c.15-.09.34,0,.46-.07s.23-.44.25-.61-.06-.28,0-.42a.66.66,0,0,1,.08-.21l-7,.3c.14-.24.26-.5.4-.74l6.6.06c.09-.43.4-.75.49-1.19a3.41,3.41,0,0,1,.18-.48l-6.38.24c.16-.25.33-.49.49-.73l6,.07a16.07,16.07,0,0,0,.56-1.51l-5.76.23c.21-.29.44-.54.66-.82l5.42.06a.67.67,0,0,0,.09-.19,1.43,1.43,0,0,0,.15-1c0-.09-.07-.16-.1-.23l-4.55.14c.21-.24.4-.5.62-.74l3.79,0a9.56,9.56,0,0,1,.24-1.06c-.48-.22-.87,1-1.6.9.26-.11,1-.44,1-.77-.3-.07-.5-.19-.54-.44l-1.61,0c.25-.25.5-.5.77-.74h1.06c0-.07.08-.15.11-.19.36-.49,1-1.12,1.68-.88l.14-.25-1.56,0c.3-.25.61-.49.93-.74h.89c.08-.23.27-.46.53-.34,0,0,0,.06,0,.1.55.25,1-.72,1.25-1.13l-.88,0c.37-.26.76-.5,1.14-.74l19.68.13-18.1.53c-.08.2-.22.45-.45.46a4.29,4.29,0,0,0,.26,1l5.61.05c.14.05.31,0,.47,0s.44.22.67,0c0,0,0,0,0,0h.82a.23.23,0,0,1,.23,0l0,0a.15.15,0,0,1,.11.06h1.52a.87.87,0,0,1-.08.14l-.12.12-8.9.22c0,.22-.41.39-.5.55a1,1,0,0,0-.07.57c.21-.15,1,.08,1.22.34l1.45,0c.07-.26.1-.38.29-.51s.4-.19.57-.29.3-.14.46-.22,0-.12.25-.14a1.82,1.82,0,0,1,.58.14,1.63,1.63,0,0,1-.22.63c-.15.2-.21.17-.49.19a.38.38,0,0,0-.16,0h0c.2,0,.24.06.28.16v0l3.3,0a.42.42,0,0,1,0,.17l-3.17.1a.21.21,0,0,0-.16-.14s0,.07,0,.16a.75.75,0,0,0,.35.13,1,1,0,0,1,0,.24c.23.07.78-.27.91-.15.32.28-.38.48-.49.54a1.58,1.58,0,0,0-.66.67l-.09.21a1.82,1.82,0,0,0-.13.28c0,.14-.07.45-.12.56s-.05,0-.17.13-.36.28-.54.09,0-.24-.08-.34a1.16,1.16,0,0,0-.53-.24,1.6,1.6,0,0,1-.49-.22l-.06,0s0,.05.07.08l-.67,0c-.14.08-.26.14-.13.44s.18.18.34.3.19.32.22.34c.34.24.31-.21.57-.26s.41.37.41.58a2,2,0,0,0,0,.26h1.1c.08-.18.17-.34.42-.12,0,.05,0,.08-.06.13h.57c0-.3-.13-.44.19-.69s.66-.44.92-.3c-.22.09-.21.35-.26.56a.75.75,0,0,1-.24.44h.35l-.37,0-.11.1c-.17.16-.19.12-.26.38a1.4,1.4,0,0,0-.08.49c.1,0,.21.08.3.08-.06.35-.38.51-.46.91.31,0,.5.09.74-.16s.32-.7.64-.72.21.12.27.25l.06.38c-.08.33-.22.17-.45.34s-.2.39-.26.62c-.28-.05-1.09.6-.82-.26-.5-.09-.48.27-.74.53s-.92.24-1.37.36c-.26.08-.42.23-.71.32a4.17,4.17,0,0,0-1.63.73,1.56,1.56,0,0,0-.25.75c0,.07.19.07.18.16s-.14.28-.21.43c-.2.47.19.59.34,1a4.77,4.77,0,0,0,.28,1c.17.3.49.32.38.69s-.37.49-.45.83,0,.88.21,1c.54.19.88-1,1.24-1.2l-.1,0c.13-.09.33-.05.45-.11a1.21,1.21,0,0,0,.49-.61,3.49,3.49,0,0,0,.27-.7c0-.13,0-.39,0-.48s.47-.18.66-.39.16-.28.24-.41a4.39,4.39,0,0,0,.33-.73c.31.24.62.41.65.73s-.11.54.39.57c0,0-.09.11-.12.14s0,.16.17.21c0,.42-.76.94-.32,1.41s.71-.56,1.13-.37a3.31,3.31,0,0,0,0,.83,1.87,1.87,0,0,1-.28.9c-.21.42-.22.51.06.89.14.19.7.74.16.81,0,.3.33.39.36.62s-.33.53-.49.55-.31-.14-.45-.09-.1.15-.17.19-.09.14-.29.16a1.66,1.66,0,0,1-.41-.14c-.22-.11-.38-.28-.6-.4a1.35,1.35,0,0,0-.81-.14c-.5,0-1.61.05-1.67.75.37.15.58-.05.91-.19a1.13,1.13,0,0,1,1,.11.47.47,0,0,1,0,.17,1.48,1.48,0,0,0-.75,0c0,.23.14.4.18.62a2.56,2.56,0,0,0,.13.53c.1.22.47.75.71.29a.41.41,0,0,1,.19.05c0,.42-.49.29-.79.28a2.92,2.92,0,0,0-.5-.09c-.15,0-.19.15-.35.14a.43.43,0,0,1,.51-.32c.14-.7-1-.28-1.29-.27s-1,.16-.92.65a2.29,2.29,0,0,0-.79-.2c-.4.06-.24.72-.69.53,0,0,0,0,.07.06s-.06,0-.1,0c0,.19,0,.6-.32.43,0-.19.08-.37.11-.56h-.13a11.47,11.47,0,0,1-.46,1.28c-.3.53-1,.38-1.5.54-.69.24-.76,1.7-1,2.35-.48,0-.18-.86-.15-1.13a1.18,1.18,0,0,0,0-.62c-.09-.21-.44-.36-.39-.53a3.15,3.15,0,0,1-.76-.57c-.08-.06-.18-.32-.29-.09s.07.25.15.3c-.13.31-.52-.15-.62-.34s-.5-.91-.55-.28c-.58-.1-.77-.12-1,.4h.61l-.63,0s0,0,0,0c-.16.39-.48.67-.52,1.09,0,.24-.08.5-.11.76h1.12l-1.12.07a1.71,1.71,0,0,0,0,.64c.13.42.27,1,.84,1.05.09-.3.67-.77,1-.53a4.62,4.62,0,0,1-.42,1.18c-.09.17-.25.18-.25.44.36.2,1,.52,1,.91.12.73-.63,1.21-.38,1.95a1.45,1.45,0,0,0,.43.63c.16.1.4,0,.55.16s.37.79.24,1c.19-.17.36-.49.56-.62s.71,0,1.08-.11l0,0c0,.28-.36.42-.36.75,0,.13,0,.33.17.34s.18-.34.26-.45,0-.25.28-.1.15.22.23.29.72.39.83.67c.29.1.53,0,.75.3a4.31,4.31,0,0,1,.32.8c.07.16.15.18.24.33s0,.32.11.44a3.58,3.58,0,0,0,.54.76c.31.26.78.38,1.09.68a1.39,1.39,0,0,1,.46,1.49c-.09.2-.72.51-.39.73.16.12.78-.25.64.28.36.18,1.27.24,1.4.66,0,.1-.12.26-.08.38s.26.19.3.37l0-.14c.17.11.4.08.58.17a2.85,2.85,0,0,1,.58.52c.32.3.43.8.87.89,0,.27.16.73,0,1s-.57.45-.8.58a2.05,2.05,0,0,0-1.25,1.4c0,.21,0,.44-.08.64s-.26.19-.42.32c-.31.26-.29.34-.69.32a6.19,6.19,0,0,0-1.29,0c-.58.11-.42.39-.63.83s-.71.62-1,.9l-.06,0,2.22,0-2.52.1a.5.5,0,0,1-.17,0l-1.06,0s0,.06,0,.09c.06.2.26.27.1.5-.27.39-.9-.11-1.22-.14-.09.3,0,.51-.28.4s-.32-.47-.48-.11c-.09.2.15.43.14.62,0,.36-.28.27-.38.5v0l8.38.06Z" transform="translate(-30.96 -305.49)"/><path class="cls-4" d="M72.87,406.91a.86.86,0,0,1,.09.3h.66c-.2-.12-.49-.49-.75-.31" transform="translate(-30.96 -305.49)"/><path class="cls-4" d="M78.76,366.75a1.64,1.64,0,0,0,.78-.26,1.42,1.42,0,0,0,.56-.63v0l-.6,0c-.2.34-.7.42-.74.91" transform="translate(-30.96 -305.49)"/><path class="cls-4" d="M78.08,365.9a.59.59,0,0,0,.25.34.55.55,0,0,0,.72-.2.6.6,0,0,0,.09-.18Z" transform="translate(-30.96 -305.49)"/><path class="cls-4" d="M78.05,362.84c0-.23,0-.14-.09-.34a.61.61,0,0,1,0-.42h-.06l0,.08a.3.3,0,0,0,0-.08l-1.68.06a.28.28,0,0,0,.08.41c.16.13.34-.07.44.17s-.12.45-.07.62.17.27.16.43h.26s0,0-.07-.08a.17.17,0,0,0,.1-.22c0-.14-.16-.29,0-.43s.49.33.72.26.14-.36.14-.45" transform="translate(-30.96 -305.49)"/><path class="cls-4" d="M77.74,361.73h0a.93.93,0,0,0,0-.14Z" transform="translate(-30.96 -305.49)"/><path class="cls-4" d="M74.09,358.28a.45.45,0,0,0,.11,0s0,0,.08,0Z" transform="translate(-30.96 -305.49)"/><path class="cls-4" d="M65.89,380.14c0-.51.1-1,.16-1.57,0-.06,0-.14,0-.21l-.34,0a3.63,3.63,0,0,0-.18.76,3.16,3.16,0,0,0-.15.78,1.19,1.19,0,0,0,0,.22Z" transform="translate(-30.96 -305.49)"/><path class="cls-4" d="M64.31,399l-.24.12.24-.12" transform="translate(-30.96 -305.49)"/><path class="cls-4" d="M77.4,355.59c-.46.23-.92.46-1.36.71l18.65-.46Z" transform="translate(-30.96 -305.49)"/><path class="cls-4" d="M116.06,356.83v0c-.47-.27-1-.5-1.46-.76l-18.85-.21Z" transform="translate(-30.96 -305.49)"/><path class="cls-4" d="M111.45,354.54c-.62-.26-1.25-.51-1.89-.74l-13.19-.15-14-.2c-.61.21-1.21.46-1.81.7l15.69-.39Z" transform="translate(-30.96 -305.49)"/><path class="cls-4" d="M103.93,352.2a41.48,41.48,0,0,0-6-.82l-4.44-.05a40.87,40.87,0,0,0-5.43.66l7.93-.2Z" transform="translate(-30.96 -305.49)"/><path class="cls-4" d="M84.16,371.17c.15-.06.28,0,.4-.17s0-.57-.07-.83,0-.24-.1-.35-.19-.13-.27-.29,0-.38.23-.59a1.48,1.48,0,0,0,.34-1.63c0-.15-.22-.33-.23-.48s.15-.33-.11-.48c.14-.36-.73-.42-.95-.48,0-.32.5-.52.51-.89-.33-.09-.57-.17-.81.09s-.29.62-.41.65c-.39.12,0-1.1.49-1.14h-.05l.13,0c-.05,0-.09,0-.14,0a.42.42,0,0,0-.32.09,2.47,2.47,0,0,0-1,1.57c-.06.38.12.29.32.55a2.66,2.66,0,0,0,.42.52c.05,0,.16.14.22.14s.12-.07.16-.08.07-.15.2-.05,0,.45,0,.57a7.91,7.91,0,0,1-.14.94c-.06.32,0,.59-.37.76s-.54.22-.67.66a3.86,3.86,0,0,1-.5,0c-.14-.05-.1-.19-.19-.22s-.18,0-.27.08,0,.33.17.44.23,0,.33.2,0,.64.09.87a2.4,2.4,0,0,0,.12.38,2.59,2.59,0,0,0,.17.38c0,.06.12.05.16.12s0,.24.1.33c.25-.16.1-.46.08-.69a2,2,0,0,1,.08-.57,1,1,0,0,1,.51.85c.53.16.31-1.46.33-1.72,0-.44.43-.27.52.11.05.21-.16.63.2.62.12,0,.27-.2.39-.24" transform="translate(-30.96 -305.49)"/><path class="cls-4" d="M84.58,365.93c.12,0,.18-.35.14-.45s-.3-.19-.45-.22l.13-.11c-.51,0-.21.92.18.78" transform="translate(-30.96 -305.49)"/><path class="cls-4" d="M81.64,360.22H81.5s0,0,0,0l.09,0" transform="translate(-30.96 -305.49)"/><path class="cls-4" d="M84.86,359.55l0,0,0,0Z" transform="translate(-30.96 -305.49)"/><path class="cls-4" d="M84.74,361.74a.19.19,0,0,0,.29-.18L85,361.4c-.23-.1-.48.19-.22.34" transform="translate(-30.96 -305.49)"/><path class="cls-4" d="M84.83,361c.22.12.68-.22.41-.32h.06c-.18-.16-.47.13-.47.33" transform="translate(-30.96 -305.49)"/><path class="cls-4" d="M87.69,359.42s0,.06,0,.09l.05,0Z" transform="translate(-30.96 -305.49)"/><path class="cls-4" d="M86.9,363c.18-.15.08-.23.34-.23s.3.08.46,0,.16-.16.23-.21a4.08,4.08,0,0,1,.68-.43,2.37,2.37,0,0,1,.66-.17c.19,0,.38,0,.57-.07a5.83,5.83,0,0,0,1-.44,11.5,11.5,0,0,0,2-.58c-.33-.22-.16-.7-.36-1,0,0-.08-.05-.11-.07h0a2.42,2.42,0,0,0-.46-.18c-.43-.13-.91-.59-1.4-.37-.09,0-.14.14-.24.17a.94.94,0,0,1-.29,0,.83.83,0,0,0-.54,0c-.11.05-.1.1-.22.08s-.17-.11-.26-.14a.69.69,0,0,0-.53.13,1,1,0,0,0-.14.24h-.51a.29.29,0,0,0,.07-.12.43.43,0,0,0-.05-.16c-.14.08-.28.21-.42.28l-2.22,0a.71.71,0,0,1,.06.25l1.8,0s-.09,0-.13.13a2.53,2.53,0,0,1-.5.54c-.14.15-.55.44-.53.68s.58.05.77,0,.67-.05.73-.21-.08-.17,0-.3.25-.17.29-.27-.09-.32.06-.56l.55,0s0,0,0,.05c0,.27.61.35.82.43s.59.38.16.44a3.31,3.31,0,0,1-1.13-.14c-.08,0-.13-.08-.23-.05s-.23.22-.29.32a1.18,1.18,0,0,1-.57.63c-.17.08-.38.09-.55.17l-2.79,0a.17.17,0,0,1,0,.13h.61a.84.84,0,0,0-.11.3c.34.14-.09.55-.21.69s-.47.37-.34.7a.84.84,0,0,0,.16.24h-.85s0,.06,0,.09l.89,0a2.68,2.68,0,0,0,1,.45.49.49,0,0,0,.72-.32c.06-.35-.22-.47-.53-.55s-.49-.12-.47-.49c0-.11.08-.22.08-.33s-.12-.21-.17-.38.06-.26,0-.37l2.1-.06c-.11.07-.08.21-.16.27s-.2,0-.3,0-.25.19-.37.27-.15.07-.33.05-.49,0-.51.23.65.45.86.55a1.59,1.59,0,0,0,.59.26c.09,0,.34,0,.41-.06s0-.2.12-.27.21,0,.3-.09" transform="translate(-30.96 -305.49)"/><path class="cls-4" d="M88.26,359.6a.2.2,0,0,1,.08,0l.06-.09Z" transform="translate(-30.96 -305.49)"/><path class="cls-4" d="M89.32,363l.17.08h0a.54.54,0,0,0-.19-.08" transform="translate(-30.96 -305.49)"/><path class="cls-4" d="M97.54,366.42a3.52,3.52,0,0,1,.31-.35,6.22,6.22,0,0,1,.7-.75c.25-.21.76-.3.92-.62s0-.28-.14-.38-.41-.22-.6,0c-.23-.29-1,.53-1.35.24.09-.15.12-.4.24-.51s.44,0,.45-.31c-.16,0-.35.17-.5.11,0-.35-.32-.49-.63-.57,0-.41,1.56-.08,1.69,0h0c-.12-.25-.44-.42-.56-.66s0-.11,0-.23-.16-.3-.38-.39-.42-.25-.66-.34a2.65,2.65,0,0,0-1-.19,3.38,3.38,0,0,0-.78,0,2.18,2.18,0,0,0-.58.35c-.29.17-.26-.14-.51-.12s-.23.27-.44.19c0,0-.11-.13-.15-.16a1.59,1.59,0,0,0-.2-.07,3.21,3.21,0,0,0-.76-.24c-.43-.07-.62.52-1,.49-.08,0-.15-.07-.23-.07s-.3.1-.44.14-.64,0-.61.27c0,.08.11.15.11.23s-.21.36-.34.46a1.51,1.51,0,0,1-.39.25.34.34,0,0,1-.24-.05,1.17,1.17,0,0,1-.73-.08c-.13,0-.35-.19-.48-.09s.06.48.08.64-.16.21-.2.42c-.15,0-.46-.21-.53-.06s.08.35.07.48c0,.34-.08.29.32.44a1.7,1.7,0,0,1,.61.32c.13.15.15.4.25.57s.2.24.18.37-.16.27-.19.4-.09.48-.15.72l.13,0c-.17,0-.16.19-.21.31a.77.77,0,0,1-.3.36c-.18.14-.22.36-.35.54s-.22.15-.2.3.27.06.43.11a1.21,1.21,0,0,0-.08.25c0,.15.16.23.17.36s-.16.43-.33.31,0-.27-.18-.34-.19,0-.28.08-.37.39-.29.57.33.14.5.1.23.18.13.38-.27.46-.38.5-.27-.06-.42-.05-.15,0-.24.18a1.69,1.69,0,0,1-.17.3l-.14-.3a.31.31,0,0,0,.11.3c-.14.61-.35,1.23-.5,1.85s-.46,1.44,0,2a2.69,2.69,0,0,1,.43.71c.06.18,0,.26.19.2s.18-.15.25-.21a1.52,1.52,0,0,0,.64-.78c.07-.31.16-.33.46-.49a.7.7,0,0,0,.35-.35c.07-.21,0-.4.14-.58s.32-.2.6-.24a2.52,2.52,0,0,1,.77.11c.38.06.63-.19,1-.37.48-.26.66-.53,1.23-.48.39,0,.75-.07,1.15-.08a1.14,1.14,0,0,0,.68-.18c.19-.17.09-.18,0-.29s-.09-.1-.24-.14a2.4,2.4,0,0,1-.24,0c0-.28.15-.24.34-.39s.25-.31.43-.18,0,.31,0,.43a.4.4,0,0,0,.28.07c.08,0,.11-.35.12-.44a2.2,2.2,0,0,0-.16-.61c0-.07-.07-.15,0-.23.18-.26.36.23.46.22s0-.39,0-.48a.42.42,0,0,1,.13-.21s0,0,.08,0c.19,0,.39,0,.6,0,0-.06,0-.12-.09-.17s-.14-.07-.19-.16c.23-.08.59,0,.74-.22-.29-.13-.11-.33,0-.51s.29-.75,0-.94c.1-.24.12-.44.41-.43a.87.87,0,0,1,.47.15c0-.07-.09-.11-.1-.17s0-.16,0-.23c0-.34,0-.4.17-.66s.19-.4.32-.57" transform="translate(-30.96 -305.49)"/><path class="cls-4" d="M81.69,378.88c-.31.18-.36.39-.59.61s-.65.31-.84.62l0,.06c.08.38.41.32.66.48s.32.48.59.57a.29.29,0,0,0-.22-.38c.06-.12.34-.27.37-.39.1-.39-.16-.21-.27-.49-.19-.44.33-.59.26-1.08" transform="translate(-30.96 -305.49)"/><path class="cls-4" d="M70.51,386a.7.7,0,0,1,.17.06v0Z" transform="translate(-30.96 -305.49)"/><path class="cls-4" d="M72,387.63c.08-.2-.13-.45-.23-.61a2.77,2.77,0,0,0-1.11-.93c.07.59,1.15,1,1,1.44h-.08a.23.23,0,0,0,.45.11" transform="translate(-30.96 -305.49)"/><path class="cls-4" d="M73.29,389.26c-.08-.11-.05-.14-.25-.22,0-.27-.24-.37-.5-.38-.31.34.44.55.75.6" transform="translate(-30.96 -305.49)"/><path class="cls-4" d="M72.56,388.62l0-.05,0,.05" transform="translate(-30.96 -305.49)"/><path class="cls-4" d="M72.53,388.66h0l0,0Z" transform="translate(-30.96 -305.49)"/><path class="cls-4" d="M95.18,376c.2-1-1.26-.39-1.75-.58l0-.11c0-.15-.08-.3-.11-.46-.25-.13-.43,0-.43.26.67,0,0,.67.14.95-.11.07-.06.08-.13.19.76.19,2.07,1,2.31-.25" transform="translate(-30.96 -305.49)"/><path class="cls-4" d="M97.48,384.1a.36.36,0,0,0,.18-.14.18.18,0,0,0-.18-.27s-.06,0-.13,0a.16.16,0,0,1-.16-.15c0-.11.09-.24.1-.37a.5.5,0,0,0,0-.27,2.06,2.06,0,0,0-.12-.26.64.64,0,0,1-.12-.34c0-.08,0-.18,0-.24a1.06,1.06,0,0,0-.15-.15c-.11-.08-.21-.15-.1-.25a3.45,3.45,0,0,0,.28-.26,1.17,1.17,0,0,1,.15-.16s.11-.06.1-.12-.17-.09-.23-.1-.32,0-.32-.15.16-.27.23-.33a1,1,0,0,0-.7.23.72.72,0,0,0-.14.41.44.44,0,0,0,0,.2s.05,0,.05.08-.05.08-.07.13.19.12.24.27-.24.28-.15.41.19.07.26.1a.34.34,0,0,1,.17.32.63.63,0,0,1-.06.41.27.27,0,0,1-.22.09s-.14,0-.19,0,0,.07,0,.11.05.17,0,.25-.06,0-.11.06c-.2.15.2.16.16.3a.73.73,0,0,0,.25,0c0,.12,0,.14-.1.17a1.36,1.36,0,0,0-.2,0,1.75,1.75,0,0,0-.24.11c-.06,0-.18.06-.21.13a.35.35,0,0,0,.3,0,.38.38,0,0,1,.44,0c.09.07,0,.06.15.06a1.32,1.32,0,0,1,.39.06c.08,0,.31.12.39,0s0-.1,0-.13,0,0,0,0,0-.05,0-.07a.21.21,0,0,1,.14-.22" transform="translate(-30.96 -305.49)"/><path class="cls-4" d="M95.8,382.37c0-.06,0-.06-.06-.11s0-.06,0-.12-.17,0-.19-.13-.31,0-.34.09,0,.14,0,.2-.11,0-.17,0l-.1,0a.42.42,0,0,0-.19,0c-.07,0,0,.16-.06.24s0,.13.11.15,0,.16,0,.21-.16.08-.22.16-.11.17-.06.22.11,0,.15,0a1.19,1.19,0,0,0,.2.08c.12,0,.16-.11.29-.1s.18.06.25,0,.16-.31.19-.41,0-.26.08-.36.2-.11.19-.25" transform="translate(-30.96 -305.49)"/><path class="cls-4" d="M95.52,382h0" transform="translate(-30.96 -305.49)"/><path class="cls-4" d="M102.74,411.66c.09-.23-.15-.5,0-.8s.74-.48,1-.66c.73-.46,1.15.11,1.38-.84.1-.42,0-1.49.08-1.91a2.12,2.12,0,0,1,1.07-1.72c.62-.52,1.31-.94,1.95-1.42a5.91,5.91,0,0,0,1.22-1.11A3.93,3.93,0,0,0,110,402c-.77-.32-1.44.35-2.15,0a4.41,4.41,0,0,1,.08-.73c-.37,0-.68-1-.89-1.29-.35-.5-.88-1-.87-1.57,0-1.12-1.05-2.52-.9-3.71a1,1,0,0,1,.34.08,1.14,1.14,0,0,0,.21.81h.07c1-1.06-1-1-1.52-1s-2.16-1.27-2.63-1,.06.86-.56.81c-.16,0-.78-.66-.91-.75-.83-.58-1.83-.66-1.46-2-.84-.71-2.58-.67-3.61-.6-.59,0-1.56-.45-2-.26s-.74.94-1.07,1.28c-.56.57-1.42.93-2,1.45s-.69,1-1.07,1.82a3.75,3.75,0,0,0-.69,2,6.38,6.38,0,0,0,1,2.08c.22.39.42,1.19.75,1.46a3.94,3.94,0,0,0,1.89.35,7.62,7.62,0,0,1,1.56-.09,10.87,10.87,0,0,1,1.52.37c-.3.73.48.49.81.81s.15.7.12,1.17a11.37,11.37,0,0,0,.63,2.54,4,4,0,0,1,0,1.3c-.09.58-.35.64-.59,1.11a2.08,2.08,0,0,0-.21,1.31,5.68,5.68,0,0,1,.17,1.59c-.06.61-.17.71.36,1.2" transform="translate(-30.96 -305.49)"/><path class="cls-4" d="M106.75,411.62a5.23,5.23,0,0,0,1.11-2.07l-.18-.2c-.22.69-1.28.59-1.65,1.07-.19.25-.15.8-.31,1.09" transform="translate(-30.96 -305.49)"/><path class="cls-4" d="M105.86,368l0-.08a.73.73,0,0,0,.35-.45c-.48-.73-1.48-.27-2-.11s-.86-.25-.93.47a.82.82,0,0,0,.71.81c-.1.28-.6,1.26,0,1.31.45,0,.56-1.11.66-1.45.6.18.07,1,.78,1.16.28-.5,0-.74-.28-1.12a2,2,0,0,1-.43-1.2c.43.23.57.63,1.12.66" transform="translate(-30.96 -305.49)"/><path class="cls-4" d="M114.33,370.61a1.82,1.82,0,0,0-.25-.07l-.17,0c-1.11,1.11-3.38,3.07-1.55,4.51.37-.72-.08-1.66.32-2.48s1.33-1.08,1.65-1.92" transform="translate(-30.96 -305.49)"/><path class="cls-4" d="M119.33,368.2c-.15,0-.27-.16-.31-.18l-.07-.11a1,1,0,0,0-.17.48l-4.78-.08,4.85.32a1.27,1.27,0,0,0,.36.07.06.06,0,0,1,0,0l5.31.34a1.29,1.29,0,0,0,0,.21,2.3,2.3,0,0,0,.64.25,1.13,1.13,0,0,0,0-.41l4.21.27c-.17-.26-.37-.52-.56-.78l-9.54-.14a1.94,1.94,0,0,0,0-.2" transform="translate(-30.96 -305.49)"/><path class="cls-4" d="M110,367.08l-.24-.15a1.21,1.21,0,0,0,.45.75.75.75,0,0,0,.21-.48,1.45,1.45,0,0,0-.42-.12" transform="translate(-30.96 -305.49)"/><path class="cls-4" d="M111.65,366.65a.44.44,0,0,0-.23-.06l0-.09c-.43.39,0,.81.21.15" transform="translate(-30.96 -305.49)"/><path class="cls-4" d="M127.53,401.31l0,.1a.44.44,0,0,0,0-.1" transform="translate(-30.96 -305.49)"/><path class="cls-4" d="M128.87,397.2a1,1,0,0,1,0,.16s0,0,0-.05Z" transform="translate(-30.96 -305.49)"/><path class="cls-4" d="M100.46,390.92a2,2,0,0,1-.87-.12l.11.3c.23.35.78.46.76-.18" transform="translate(-30.96 -305.49)"/><path class="cls-4" d="M98.68,389.57a2.81,2.81,0,0,0-.14.7c.19-.13.22-.32.29-.57Z" transform="translate(-30.96 -305.49)"/><path class="cls-4" d="M76.37,380.91h0l-.16-.05h0c.05,0,.11,0,.16,0" transform="translate(-30.96 -305.49)"/><path class="cls-4" d="M76.41,380.92a.79.79,0,0,0,0-.13l-.07.12h0" transform="translate(-30.96 -305.49)"/><path class="cls-4" d="M68.55,408.46l.37,0a2.6,2.6,0,0,1,.4.1l-.68-.37-.09.23" transform="translate(-30.96 -305.49)"/><path class="cls-4" d="M66,406.92l-.16.2a1.4,1.4,0,0,0,.16-.2" transform="translate(-30.96 -305.49)"/><path class="cls-4" d="M65.48,407.53l-.08.09.08-.09" transform="translate(-30.96 -305.49)"/></g><path class="cls-5" d="M31.87,307.31V345H56.09q0,24.06,0,48.12V394H94.58V345h24.9V306.4H31.87Z" transform="translate(-30.96 -305.49)"/><path class="cls-6" d="M73.8,313.53c0-.26.09-.5.4-.5s.41.24.41.5v3.67c0,.26-.1.49-.41.49s-.4-.23-.4-.49Zm2.76.21c0-1.27-.84-2-2.36-2s-2.35.72-2.35,2v3.36c0,1.31,1.11,1.87,2.35,1.87s2.36-.56,2.36-1.87Zm-8-.62v4.3c0,.93.23,1.47,1.21,1.47h1.59v-1.28H71c-.45,0-.47-.23-.47-.65v-3.84h.86v-1.28h-.86v-1.27H68.58v1.27h-.66v1.28Zm-4.91,5.77V315.2h0l1,3.69h2L65.46,315l1.12-3.15H64.7l-1,3.21h0v-4.94H61.73v8.78Zm-4.94,0h2v-8.78h-2Zm-3.42-2.58c0-.55.43-.71.82-1v1.22c0,.62-.05.9-.46.9a.35.35,0,0,1-.36-.37Zm.82,2.58h1.94v-5.22c0-1.41-1.18-1.92-2.35-1.92s-2.36.51-2.36,1.92v.66h2v-.78c0-.28.09-.52.41-.52s.41.24.41.52c0,1.31-2.77,1.09-2.77,2.93v1A1.28,1.28,0,0,0,54.73,319a1.37,1.37,0,0,0,1.37-.91h0Zm-6.06-7.45v7.45h2v-7.45h1.43v-1.33H48.64v1.33Zm58.14,28.18V327.33c0-1.12.52-1.76,1.43-1.76s1.44.64,1.44,1.76v4.06H116V325.3c0-1.47-.59-3.22-3.42-3.22a3.79,3.79,0,0,0-3.7,2.4l-.08.17h-.58V322.3h-4.92v17.32ZM95.54,324.76A1.27,1.27,0,0,1,97,326.11v2.73H94.1v-2.73a1.27,1.27,0,0,1,1.44-1.35m0,15.08c4.21,0,6.35-1.47,6.35-4.37v-2.34H97v2c0,.49,0,2-1.44,2-.89,0-1.44-.77-1.44-2v-3.92h7.79v-4.41c0-3.92-3.45-4.75-6.35-4.75-4.1,0-6.35,1.69-6.35,4.75v8.55c0,3.29,3.28,4.46,6.35,4.46M77,339.62h4.91v-21.7H77Zm12.44,0L86.06,330l3-7.72H84.42l-2.77,8.06,2.78,9.26Zm-20,.22c4.23,0,6.38-1.47,6.38-4.37v-2.34H70.86v2.49a1.44,1.44,0,1,1-2.88,0V326.3a1.44,1.44,0,1,1,2.88,0V328h4.91v-1.21c0-3.92-3.47-4.75-6.38-4.75-3.84,0-6.32,1.85-6.32,4.72v8.36c0,3.1,2.13,4.68,6.32,4.68m-17.27,0c2,0,3.22-.75,3.72-2.24l.07-.2h.57v2.22h4.91V322.3H56.48v12.14c0,.47,0,1.91-1.48,1.91s-1.4-1.29-1.4-1.91V322.3H48.69V336c0,1.74.59,3.81,3.43,3.81m-12.23-.22v-18.9h-4v-2.8H49.11v2.8h-4v18.9Z" transform="translate(-30.96 -305.49)"/><path class="cls-7" d="M61.45,346.67h.79c.33,0,.59-.24.59-.78s-.25-.7-.63-.71h-.75Zm0,.79v2.31h-1v-5.38h1.9c.87,0,1.53.31,1.53,1.3,0,.58-.15,1.2-.83,1.29v0a.84.84,0,0,1,.78,1c0,.22,0,1.54.21,1.7v.1h-1.1a5.6,5.6,0,0,1-.11-1.36c0-.33,0-.78-.34-.88a3.1,3.1,0,0,0-.86-.07Z" transform="translate(-30.96 -305.49)"/><polygon class="cls-7" points="33.85 44.28 33.85 38.91 36.68 38.91 36.68 39.7 34.86 39.7 34.86 41.05 36.54 41.05 36.54 41.84 34.86 41.84 34.86 43.49 36.68 43.49 36.68 44.28 33.85 44.28"/><path class="cls-7" d="M69.5,347.62h.86l-.27-1.53c0-.25-.07-.49-.1-.74s0-.25,0-.36h0c0,.11,0,.24,0,.36s-.05.49-.1.74ZM68,349.77l1.29-5.38h1.35l1.22,5.38H70.78l-.26-1.36H69.34l-.26,1.36Z" transform="translate(-30.96 -305.49)"/><polygon class="cls-7" points="41.45 44.28 41.45 38.91 42.45 38.91 42.45 43.49 44.32 43.49 44.32 44.28 41.45 44.28"/><polygon class="cls-7" points="44.14 38.91 47.48 38.91 47.48 39.7 46.32 39.7 46.32 44.28 45.31 44.28 45.31 39.7 44.14 39.7 44.14 38.91"/><path class="cls-7" d="M80,347.92c0,.45,0,1.17.72,1.17s.72-.74.72-1.25v-1.38c0-.43,0-1.38-.72-1.38S80,346,80,346.43Zm-1-1.27c.05-1.37.16-2.38,1.76-2.38s1.71,1,1.76,2.38v.77c0,1.43-.11,2.48-1.76,2.48s-1.76-1-1.76-2.48Z" transform="translate(-30.96 -305.49)"/><path class="cls-7" d="M84.41,346.67h.79c.33,0,.59-.24.59-.78s-.25-.7-.63-.71h-.75Zm0,.79v2.31h-1v-5.38h1.9c.86,0,1.52.31,1.52,1.3,0,.58-.15,1.2-.82,1.29v0c.6.08.77.46.77,1,0,.22,0,1.54.22,1.7v.1H85.9a4.75,4.75,0,0,1-.11-1.36c0-.33,0-.78-.35-.88a3,3,0,0,0-.85-.07Z" transform="translate(-30.96 -305.49)"/><path class="cls-7" d="M89.85,346c0-.48,0-.95-.59-.95-.33,0-.55.13-.55.5s.26.56.57.76a8.85,8.85,0,0,1,1.22.89,1.37,1.37,0,0,1,.45,1.12,1.47,1.47,0,0,1-1.65,1.55,1.45,1.45,0,0,1-1.64-1.63v-.4h1v.32c0,.52.13.9.63.9a.55.55,0,0,0,.62-.63.81.81,0,0,0-.4-.71,7.66,7.66,0,0,1-1.58-1.24,1.45,1.45,0,0,1-.26-.82c0-.92.51-1.42,1.58-1.42,1.59,0,1.55,1.23,1.56,1.76Z" transform="translate(-30.96 -305.49)"/><path class="cls-6" d="M113.8,336.71a1.57,1.57,0,0,0-.68.15,1.52,1.52,0,0,0-.54.44,1.48,1.48,0,0,0-.25.46,1.5,1.5,0,0,0,0,1.1,1.43,1.43,0,0,0,.34.5,1.6,1.6,0,0,0,.51.35,1.51,1.51,0,0,0,1.18,0,1.73,1.73,0,0,0,.52-.34,1.7,1.7,0,0,0,.34-.5,1.73,1.73,0,0,0,.11-.6,1.59,1.59,0,0,0-.6-1.24,2,2,0,0,0-.45-.24,1.7,1.7,0,0,0-.51-.08m1.35,1.57a1.25,1.25,0,0,1-.1.51,1.17,1.17,0,0,1-.29.43,1.43,1.43,0,0,1-.44.3,1.39,1.39,0,0,1-.53.1,1.32,1.32,0,0,1-.51-.1,1.43,1.43,0,0,1-.44-.3,1.46,1.46,0,0,1-.29-.44,1.25,1.25,0,0,1-.1-.51,1.16,1.16,0,0,1,.11-.52,1.37,1.37,0,0,1,.3-.45,1.22,1.22,0,0,1,.42-.29,1.3,1.3,0,0,1,.52-.1,1.61,1.61,0,0,1,.53.1,1.42,1.42,0,0,1,.43.29,1.2,1.2,0,0,1,.29.45,1.32,1.32,0,0,1,.1.53m-1,0a.49.49,0,0,0,.31-.16.46.46,0,0,0,.1-.31.4.4,0,0,0-.18-.36,1,1,0,0,0-.56-.13h-.67v1.77h.34v-.75h.33l.35.75h.38Zm-.66-.15v-.59h.27a.63.63,0,0,1,.35.07.27.27,0,0,1,.11.23.26.26,0,0,1-.1.22.74.74,0,0,1-.35.07Z" transform="translate(-30.96 -305.49)"/></svg>