<?xml version="1.0" encoding="utf-8"?>
<!-- Generator: Adobe Illustrator 26.0.3, SVG Export Plug-In . SVG Version: 6.00 Build 0)  -->
<svg version="1.1" id="Layer_1_xA0_Image_00000119836837881548228610000006395972817119780770_"
	 xmlns="http://www.w3.org/2000/svg" xmlns:xlink="http://www.w3.org/1999/xlink" x="0px" y="0px" viewBox="0 0 356.96 218.16"
	 style="enable-background:new 0 0 356.96 218.16;" xml:space="preserve">
<style type="text/css">
	.st0{fill:url(#SVGID_1_);}
	.st1{fill:url(#SVGID_00000072243930123296166380000007640662799880784544_);}
	.st2{fill:url(#SVGID_00000016796990762562332160000009652625275767100594_);}
	.st3{fill:url(#SVGID_00000096760696304403337020000000126080617993396138_);}
	.st4{fill:url(#SVGID_00000068636285801337108350000002732727809345520533_);}
	.st5{fill:url(#SVGID_00000016768947340700839580000002831897937757146262_);}
	.st6{fill:url(#SVGID_00000105414728948283752640000012203868526757895836_);}
	.st7{fill:url(#SVGID_00000056393331835049401550000006556435599154186424_);}
	.st8{fill:url(#SVGID_00000146497545535469428980000016949403645922765194_);}
	.st9{fill:url(#SVGID_00000131369355700946080380000007421728057484523958_);}
	.st10{fill:url(#SVGID_00000092448460556322727160000017712132886652252070_);}
	.st11{fill:url(#SVGID_00000085225306648441245300000008404657161856753553_);}
	.st12{fill:url(#SVGID_00000101088107068960299640000000250738707341960095_);}
	.st13{fill:#58595B;}
	.st14{fill:none;stroke:#231F20;stroke-width:0.1917;stroke-miterlimit:2.6131;}
	.st15{fill:#231F20;}
	.st16{fill-rule:evenodd;clip-rule:evenodd;fill:#231F20;}
	.st17{fill:none;stroke:#231F20;stroke-width:0.0479;stroke-miterlimit:2.6131;}
	.st18{fill:none;stroke:#FFFFFF;stroke-width:0.2931;stroke-miterlimit:2;}
	.st19{fill:#FFD040;}
	.st20{clip-path:url(#SVGID_00000128447519862651653180000015630592043123571893_);fill:#A6A8AB;}
	.st21{fill:#FFFFFF;}
</style>
<g>
	<g>
		
			<linearGradient id="SVGID_1_" gradientUnits="userSpaceOnUse" x1="69.7583" y1="102.7719" x2="278.1831" y2="102.7719" gradientTransform="matrix(1 0 0 1 4 0)">
			<stop  offset="0" style="stop-color:#FFFFFF"/>
			<stop  offset="1" style="stop-color:#000000"/>
		</linearGradient>
		<path class="st0" d="M85.32,104.95h-7.71l-1.42,3.93h-2.43l6.39-17.57h2.66l6.37,17.57h-2.43L85.32,104.95z M81.47,94.15
			l-3.2,8.93h6.39L81.47,94.15z"/>
		
			<linearGradient id="SVGID_00000108304134853163942930000001034387329252189097_" gradientUnits="userSpaceOnUse" x1="69.7583" y1="102.7719" x2="278.1831" y2="102.7719" gradientTransform="matrix(1 0 0 1 4 0)">
			<stop  offset="0" style="stop-color:#FFFFFF"/>
			<stop  offset="1" style="stop-color:#000000"/>
		</linearGradient>
		<path style="fill:url(#SVGID_00000108304134853163942930000001034387329252189097_);" d="M99.93,90.98c3.83,0,6.87,1.93,8.19,5.35
			h-2.76c-0.96-2.13-2.84-3.32-5.43-3.32c-3.7,0-6.47,2.69-6.47,7.02c0,4.31,2.76,7,6.47,7c2.59,0,4.46-1.19,5.43-3.3h2.76
			c-1.32,3.4-4.36,5.3-8.19,5.3c-4.95,0-8.83-3.7-8.83-9S94.98,90.98,99.93,90.98z"/>
		
			<linearGradient id="SVGID_00000034807219619381644540000001871044405387192752_" gradientUnits="userSpaceOnUse" x1="69.7583" y1="102.7719" x2="278.1831" y2="102.7719" gradientTransform="matrix(1 0 0 1 4 0)">
			<stop  offset="0" style="stop-color:#FFFFFF"/>
			<stop  offset="1" style="stop-color:#000000"/>
		</linearGradient>
		<path style="fill:url(#SVGID_00000034807219619381644540000001871044405387192752_);" d="M111.54,91.33h2.49l6.49,14.51
			l6.49-14.51h2.46v17.55h-2.31V95.8l-5.83,13.09h-1.62l-5.86-13.11v13.11h-2.31V91.33z"/>
		
			<linearGradient id="SVGID_00000016791232344331437250000016789267807378653327_" gradientUnits="userSpaceOnUse" x1="69.7583" y1="102.7719" x2="278.1831" y2="102.7719" gradientTransform="matrix(1 0 0 1 4 0)">
			<stop  offset="0" style="stop-color:#FFFFFF"/>
			<stop  offset="1" style="stop-color:#000000"/>
		</linearGradient>
		<path style="fill:url(#SVGID_00000016791232344331437250000016789267807378653327_);" d="M138.24,91.21c4.16,0,6.14,2.31,6.14,5.2
			c0,2.26-1.24,4.41-4.21,5.07l4.44,7.41h-2.76l-4.21-7.23h-2.79v7.23h-2.31V91.21H138.24z M138.24,93.11h-3.4v6.69h3.4
			c2.61,0,3.75-1.42,3.75-3.4C141.99,94.4,140.88,93.11,138.24,93.11z"/>
		
			<linearGradient id="SVGID_00000047056752270541241850000007737035104082202559_" gradientUnits="userSpaceOnUse" x1="69.7583" y1="102.7719" x2="278.1831" y2="102.7719" gradientTransform="matrix(1 0 0 1 4 0)">
			<stop  offset="0" style="stop-color:#FFFFFF"/>
			<stop  offset="1" style="stop-color:#000000"/>
		</linearGradient>
		<path style="fill:url(#SVGID_00000047056752270541241850000007737035104082202559_);" d="M153.96,109.11
			c-3.96,0-6.87-2.79-6.87-7.2c0-4.39,2.81-7.15,6.87-7.15c4.03,0,6.67,2.84,6.67,6.64c0,0.51-0.03,0.91-0.08,1.4h-11.11
			c0.18,2.81,2.16,4.36,4.51,4.36c2.08,0,3.4-1.06,3.91-2.56h2.49C159.64,107.13,157.41,109.11,153.96,109.11z M149.47,100.92h8.77
			c0.03-2.71-2-4.21-4.39-4.21C151.6,96.71,149.72,98.21,149.47,100.92z"/>
		
			<linearGradient id="SVGID_00000055673444595432291690000006062634380262146749_" gradientUnits="userSpaceOnUse" x1="69.7583" y1="102.7719" x2="278.1831" y2="102.7719" gradientTransform="matrix(1 0 0 1 4 0)">
			<stop  offset="0" style="stop-color:#FFFFFF"/>
			<stop  offset="1" style="stop-color:#000000"/>
		</linearGradient>
		<path style="fill:url(#SVGID_00000055673444595432291690000006062634380262146749_);" d="M169.4,94.76c2.59,0,4.36,1.32,5.17,2.76
			v-2.54h2.33v13.9h-2.33v-2.59c-0.84,1.5-2.64,2.82-5.2,2.82c-3.7,0-6.57-2.92-6.57-7.23C162.81,97.55,165.67,94.76,169.4,94.76z
			 M169.86,96.76c-2.54,0-4.69,1.85-4.69,5.12s2.16,5.2,4.69,5.2s4.72-1.9,4.72-5.17C174.57,98.69,172.39,96.76,169.86,96.76z"/>
		
			<linearGradient id="SVGID_00000121279399357351926700000006271534858804686477_" gradientUnits="userSpaceOnUse" x1="69.7583" y1="102.7719" x2="278.1831" y2="102.7719" gradientTransform="matrix(1 0 0 1 4 0)">
			<stop  offset="0" style="stop-color:#FFFFFF"/>
			<stop  offset="1" style="stop-color:#000000"/>
		</linearGradient>
		<path style="fill:url(#SVGID_00000121279399357351926700000006271534858804686477_);" d="M180.81,90.12h2.31v18.77h-2.31V90.12z"
			/>
		
			<linearGradient id="SVGID_00000075152688893859472050000008974340679962141579_" gradientUnits="userSpaceOnUse" x1="69.7583" y1="102.7719" x2="278.1831" y2="102.7719" gradientTransform="matrix(1 0 0 1 4 0)">
			<stop  offset="0" style="stop-color:#FFFFFF"/>
			<stop  offset="1" style="stop-color:#000000"/>
		</linearGradient>
		<path style="fill:url(#SVGID_00000075152688893859472050000008974340679962141579_);" d="M187.55,96.89h-1.8v-1.9h1.8v-3.5h2.31
			v3.5h3.63v1.9h-3.63v8.19c0,1.37,0.51,1.85,1.93,1.85h1.7v1.95h-2.08c-2.46,0-3.85-1.01-3.85-3.8V96.89z"/>
		
			<linearGradient id="SVGID_00000039821290686349278930000007611701398066712766_" gradientUnits="userSpaceOnUse" x1="69.7583" y1="102.7719" x2="278.1831" y2="102.7719" gradientTransform="matrix(1 0 0 1 4 0)">
			<stop  offset="0" style="stop-color:#FFFFFF"/>
			<stop  offset="1" style="stop-color:#000000"/>
		</linearGradient>
		<path style="fill:url(#SVGID_00000039821290686349278930000007611701398066712766_);" d="M205.86,94.99h2.38l-8.37,20.44h-2.38
			l2.74-6.7l-5.6-13.75h2.56l4.36,11.26L205.86,94.99z"/>
		
			<linearGradient id="SVGID_00000178892298916921921400000014087208018901692320_" gradientUnits="userSpaceOnUse" x1="69.7583" y1="102.7719" x2="278.1831" y2="102.7719" gradientTransform="matrix(1 0 0 1 4 0)">
			<stop  offset="0" style="stop-color:#FFFFFF"/>
			<stop  offset="1" style="stop-color:#000000"/>
		</linearGradient>
		<path style="fill:url(#SVGID_00000178892298916921921400000014087208018901692320_);" d="M212.17,91.21h11.97v1.88h-4.82v15.8
			h-2.31v-15.8h-4.84V91.21z"/>
		
			<linearGradient id="SVGID_00000062891506808108637160000016950237334652765345_" gradientUnits="userSpaceOnUse" x1="69.7583" y1="102.7719" x2="278.1831" y2="102.7719" gradientTransform="matrix(1 0 0 1 4 0)">
			<stop  offset="0" style="stop-color:#FFFFFF"/>
			<stop  offset="1" style="stop-color:#000000"/>
		</linearGradient>
		<path style="fill:url(#SVGID_00000062891506808108637160000016950237334652765345_);" d="M232.99,109.11
			c-3.96,0-6.87-2.79-6.87-7.2c0-4.39,2.81-7.15,6.87-7.15c4.03,0,6.67,2.84,6.67,6.64c0,0.51-0.03,0.91-0.08,1.4h-11.11
			c0.18,2.81,2.16,4.36,4.51,4.36c2.08,0,3.4-1.06,3.91-2.56h2.49C238.67,107.13,236.44,109.11,232.99,109.11z M228.5,100.92h8.77
			c0.03-2.71-2-4.21-4.39-4.21C230.63,96.71,228.76,98.21,228.5,100.92z"/>
		
			<linearGradient id="SVGID_00000084507613860776607170000003430705050469163152_" gradientUnits="userSpaceOnUse" x1="69.7583" y1="102.7719" x2="278.1831" y2="102.7719" gradientTransform="matrix(1 0 0 1 4 0)">
			<stop  offset="0" style="stop-color:#FFFFFF"/>
			<stop  offset="1" style="stop-color:#000000"/>
		</linearGradient>
		<path style="fill:url(#SVGID_00000084507613860776607170000003430705050469163152_);" d="M248.43,94.76
			c2.59,0,4.36,1.32,5.17,2.76v-2.54h2.33v13.9h-2.33v-2.59c-0.84,1.5-2.64,2.82-5.2,2.82c-3.7,0-6.57-2.92-6.57-7.23
			C241.84,97.55,244.7,94.76,248.43,94.76z M248.89,96.76c-2.54,0-4.69,1.85-4.69,5.12s2.16,5.2,4.69,5.2s4.72-1.9,4.72-5.17
			C253.6,98.69,251.42,96.76,248.89,96.76z"/>
		
			<linearGradient id="SVGID_00000026849314192520781950000006127901316670295425_" gradientUnits="userSpaceOnUse" x1="69.7583" y1="102.7719" x2="278.1831" y2="102.7719" gradientTransform="matrix(1 0 0 1 4 0)">
			<stop  offset="0" style="stop-color:#FFFFFF"/>
			<stop  offset="1" style="stop-color:#000000"/>
		</linearGradient>
		<path style="fill:url(#SVGID_00000026849314192520781950000006127901316670295425_);" d="M279.9,101.02c0-2.84-1.52-4.29-3.8-4.29
			c-2.33,0-3.93,1.5-3.93,4.49v7.66h-2.28v-7.86c0-2.84-1.52-4.29-3.8-4.29c-2.33,0-3.93,1.5-3.93,4.49v7.66h-2.31v-13.9h2.31v2
			c0.91-1.47,2.56-2.26,4.39-2.26c2.28,0,4.18,1.01,5.1,3.09c0.81-2,2.79-3.09,4.92-3.09c3.17,0,5.63,1.98,5.63,5.96v8.19h-2.28
			V101.02z"/>
	</g>
	<g>
		<path class="st13" d="M85.32,104.95h-7.71l-1.42,3.93h-2.43l6.39-17.57h2.66l6.37,17.57h-2.43L85.32,104.95z M81.47,94.15
			l-3.2,8.93h6.39L81.47,94.15z"/>
		<path class="st13" d="M99.93,90.98c3.83,0,6.87,1.93,8.19,5.35h-2.76c-0.96-2.13-2.84-3.32-5.43-3.32c-3.7,0-6.47,2.69-6.47,7.02
			c0,4.31,2.76,7,6.47,7c2.59,0,4.46-1.19,5.43-3.3h2.76c-1.32,3.4-4.36,5.3-8.19,5.3c-4.95,0-8.83-3.7-8.83-9
			S94.98,90.98,99.93,90.98z"/>
		<path class="st13" d="M111.54,91.33h2.49l6.49,14.51l6.49-14.51h2.46v17.55h-2.31V95.8l-5.83,13.09h-1.62l-5.86-13.11v13.11h-2.31
			V91.33z"/>
		<path d="M138.24,91.21c4.16,0,6.14,2.31,6.14,5.2c0,2.26-1.24,4.41-4.21,5.07l4.44,7.41h-2.76l-4.21-7.23h-2.79v7.23h-2.31V91.21
			H138.24z M138.24,93.11h-3.4v6.69h3.4c2.61,0,3.75-1.42,3.75-3.4C141.99,94.4,140.88,93.11,138.24,93.11z"/>
		<path d="M153.96,109.11c-3.96,0-6.87-2.79-6.87-7.2c0-4.39,2.81-7.15,6.87-7.15c4.03,0,6.67,2.84,6.67,6.64
			c0,0.51-0.03,0.91-0.08,1.4h-11.11c0.18,2.81,2.16,4.36,4.51,4.36c2.08,0,3.4-1.06,3.91-2.56h2.49
			C159.64,107.13,157.41,109.11,153.96,109.11z M149.47,100.92h8.77c0.03-2.71-2-4.21-4.39-4.21
			C151.6,96.71,149.72,98.21,149.47,100.92z"/>
		<path d="M169.4,94.76c2.59,0,4.36,1.32,5.17,2.76v-2.54h2.33v13.9h-2.33v-2.59c-0.84,1.5-2.64,2.82-5.2,2.82
			c-3.7,0-6.57-2.92-6.57-7.23C162.81,97.55,165.67,94.76,169.4,94.76z M169.86,96.76c-2.54,0-4.69,1.85-4.69,5.12
			s2.16,5.2,4.69,5.2s4.72-1.9,4.72-5.17C174.57,98.69,172.39,96.76,169.86,96.76z"/>
		<path d="M180.81,90.12h2.31v18.77h-2.31V90.12z"/>
		<path d="M187.55,96.89h-1.8v-1.9h1.8v-3.5h2.31v3.5h3.63v1.9h-3.63v8.19c0,1.37,0.51,1.85,1.93,1.85h1.7v1.95h-2.08
			c-2.46,0-3.85-1.01-3.85-3.8V96.89z"/>
		<path d="M205.86,94.99h2.38l-8.37,20.44h-2.38l2.74-6.7l-5.6-13.75h2.56l4.36,11.26L205.86,94.99z"/>
		<path d="M212.17,91.21h11.97v1.88h-4.82v15.8h-2.31v-15.8h-4.84V91.21z"/>
		<path d="M232.99,109.11c-3.96,0-6.87-2.79-6.87-7.2c0-4.39,2.81-7.15,6.87-7.15c4.03,0,6.67,2.84,6.67,6.64
			c0,0.51-0.03,0.91-0.08,1.4h-11.11c0.18,2.81,2.16,4.36,4.51,4.36c2.08,0,3.4-1.06,3.91-2.56h2.49
			C238.67,107.13,236.44,109.11,232.99,109.11z M228.5,100.92h8.77c0.03-2.71-2-4.21-4.39-4.21
			C230.63,96.71,228.76,98.21,228.5,100.92z"/>
		<path d="M248.43,94.76c2.59,0,4.36,1.32,5.17,2.76v-2.54h2.33v13.9h-2.33v-2.59c-0.84,1.5-2.64,2.82-5.2,2.82
			c-3.7,0-6.57-2.92-6.57-7.23C241.84,97.55,244.7,94.76,248.43,94.76z M248.89,96.76c-2.54,0-4.69,1.85-4.69,5.12
			s2.16,5.2,4.69,5.2s4.72-1.9,4.72-5.17C253.6,98.69,251.42,96.76,248.89,96.76z"/>
		<path d="M279.9,101.02c0-2.84-1.52-4.29-3.8-4.29c-2.33,0-3.93,1.5-3.93,4.49v7.66h-2.28v-7.86c0-2.84-1.52-4.29-3.8-4.29
			c-2.33,0-3.93,1.5-3.93,4.49v7.66h-2.31v-13.9h2.31v2c0.91-1.47,2.56-2.26,4.39-2.26c2.28,0,4.18,1.01,5.1,3.09
			c0.81-2,2.79-3.09,4.92-3.09c3.17,0,5.63,1.98,5.63,5.96v8.19h-2.28V101.02z"/>
	</g>
</g>
<g>
	<path class="st14" d="M305.09,104.53h0.57v3.54h5.18v-3.54h8.65v4.35h-14.4V104.53L305.09,104.53z M305.65,101.87h5.18v6.19h-5.18
		V101.87L305.65,101.87z"/>
	<path class="st15" d="M306.57,107.07h0.05c0.07,0,0.12-0.01,0.15-0.03c0.03-0.02,0.05-0.05,0.05-0.09c0-0.04-0.01-0.06-0.04-0.08
		c-0.03-0.02-0.07-0.03-0.13-0.03h-0.07V107.07L306.57,107.07z M306.57,107.35h-0.1v-0.58h0.19c0.08,0,0.14,0.02,0.18,0.05
		c0.04,0.03,0.06,0.08,0.06,0.14c0,0.05-0.02,0.09-0.05,0.12c-0.04,0.03-0.08,0.05-0.14,0.05l0.19,0.22h-0.12l-0.22-0.27V107.35
		L306.57,107.35z M307.35,107.35H307v-0.58h0.35v0.08h-0.25v0.17h0.25v0.08h-0.25v0.17h0.25V107.35L307.35,107.35z M307.78,107.1
		l-0.09-0.22l-0.1,0.22H307.78L307.78,107.1z M307.56,107.18l-0.08,0.17h-0.1l0.26-0.58h0.09l0.26,0.58h-0.11l-0.07-0.17H307.56
		L307.56,107.18z M308.35,107.35h-0.32v-0.58h0.1v0.5h0.22V107.35L308.35,107.35z M308.55,107.35h-0.1v-0.5h-0.13v-0.08h0.35v0.08
		h-0.13V107.35L308.55,107.35z M308.81,107.06c0,0.03,0.01,0.06,0.02,0.09c0.01,0.03,0.03,0.05,0.05,0.07
		c0.02,0.02,0.05,0.04,0.08,0.05c0.03,0.01,0.06,0.02,0.09,0.02c0.07,0,0.13-0.02,0.17-0.06c0.05-0.04,0.07-0.09,0.07-0.16
		c0-0.03-0.01-0.05-0.02-0.08c-0.01-0.02-0.03-0.05-0.05-0.07c-0.03-0.02-0.05-0.04-0.08-0.05c-0.03-0.01-0.06-0.02-0.1-0.02
		c-0.03,0-0.06,0.01-0.09,0.02s-0.05,0.03-0.08,0.04c-0.02,0.02-0.04,0.04-0.05,0.07C308.81,107,308.81,107.03,308.81,107.06
		L308.81,107.06z M308.71,107.06c0-0.04,0.01-0.08,0.03-0.11c0.02-0.04,0.04-0.07,0.08-0.1c0.03-0.03,0.07-0.05,0.11-0.06
		c0.04-0.01,0.08-0.02,0.13-0.02c0.05,0,0.09,0.01,0.13,0.02c0.04,0.01,0.08,0.04,0.11,0.06c0.03,0.03,0.06,0.06,0.08,0.1
		c0.02,0.04,0.03,0.07,0.03,0.11c0,0.04-0.01,0.08-0.02,0.11c-0.01,0.03-0.04,0.07-0.07,0.09c-0.03,0.03-0.07,0.06-0.12,0.07
		c-0.04,0.02-0.09,0.02-0.14,0.02c-0.05,0-0.1-0.01-0.14-0.02c-0.04-0.02-0.08-0.04-0.11-0.07c-0.03-0.03-0.05-0.06-0.06-0.09
		C308.72,107.13,308.71,107.1,308.71,107.06L308.71,107.06z M309.58,107.07h0.05c0.07,0,0.12-0.01,0.15-0.03
		c0.03-0.02,0.05-0.05,0.05-0.09c0-0.04-0.01-0.06-0.04-0.08c-0.03-0.02-0.07-0.03-0.13-0.03h-0.07V107.07L309.58,107.07z
		 M309.58,107.35h-0.1v-0.58h0.19c0.08,0,0.14,0.02,0.18,0.05c0.04,0.03,0.06,0.08,0.06,0.14c0,0.05-0.02,0.09-0.05,0.12
		c-0.04,0.03-0.08,0.05-0.14,0.05l0.19,0.22h-0.12l-0.22-0.27V107.35L309.58,107.35z"/>
	<path class="st16" d="M310.24,106.87c0.11,0,0.2-0.09,0.2-0.2s-0.09-0.2-0.2-0.2c-0.11,0-0.2,0.09-0.2,0.2
		S310.13,106.87,310.24,106.87L310.24,106.87z M310.24,106.82c-0.09,0-0.15-0.06-0.15-0.15s0.06-0.15,0.15-0.15
		c0.08,0,0.15,0.06,0.15,0.15S310.33,106.82,310.24,106.82L310.24,106.82z M310.29,106.69c0.04,0,0.06-0.02,0.06-0.06
		c0-0.05-0.03-0.07-0.08-0.07h-0.1v0.21h0.04v-0.09h0.04l0.05,0.09h0.05L310.29,106.69L310.29,106.69z M310.21,106.66v-0.06h0.05
		c0.02,0,0.05,0,0.05,0.03c0,0.03-0.02,0.03-0.04,0.03H310.21L310.21,106.66z"/>
	<path class="st15" d="M311.82,105.22h0.11l0.01,0.3h0l0.12-0.3h0.11l-0.07,0.39h-0.07l0.06-0.32h0l-0.13,0.32h-0.07l0-0.32l0,0
		l-0.06,0.32h-0.07L311.82,105.22L311.82,105.22z M312.23,105.22h0.07l-0.05,0.25c-0.01,0.05,0.01,0.08,0.05,0.08
		c0.05,0,0.07-0.02,0.08-0.07l0.05-0.26h0.07l-0.05,0.25c-0.02,0.1-0.08,0.15-0.17,0.15c-0.04,0-0.07-0.01-0.1-0.04
		c-0.02-0.02-0.03-0.06-0.02-0.11L312.23,105.22L312.23,105.22z M312.38,105.18L312.38,105.18L312.38,105.18L312.38,105.18z
		 M312.31,105.6L312.31,105.6L312.31,105.6L312.31,105.6z M312.2,105.21L312.2,105.21L312.2,105.21L312.2,105.21z M312.58,105.22
		h0.07l-0.06,0.32h0.17l-0.01,0.07h-0.25L312.58,105.22L312.58,105.22z M312.64,105.18L312.64,105.18L312.64,105.18L312.64,105.18z
		 M312.64,105.6L312.64,105.6L312.64,105.6L312.64,105.6z M312.55,105.21L312.55,105.21L312.55,105.21L312.55,105.21z
		 M312.85,105.22h0.29l-0.01,0.07h-0.11l-0.06,0.32h-0.07l0.06-0.32h-0.11L312.85,105.22L312.85,105.22z M313,105.18L313,105.18
		L313,105.18L313,105.18z M312.91,105.6L312.91,105.6L312.91,105.6L312.91,105.6z M312.85,105.21L312.85,105.21L312.85,105.21
		L312.85,105.21z M313.17,105.22h0.07l-0.07,0.39h-0.07L313.17,105.22L313.17,105.22z M313.22,105.18L313.22,105.18L313.22,105.18
		L313.22,105.18z M313.12,105.6L313.12,105.6L313.12,105.6L313.12,105.6z M313.14,105.21L313.14,105.21L313.14,105.21L313.14,105.21
		z M313.31,105.22h0.16c0.03,0,0.06,0.01,0.07,0.03c0.01,0.02,0.02,0.05,0.01,0.09c-0.01,0.04-0.02,0.07-0.05,0.09
		c-0.02,0.02-0.05,0.03-0.09,0.03h-0.08l-0.03,0.14h-0.07L313.31,105.22L313.31,105.22z M313.37,105.28l-0.02,0.11h0.07
		c0.04,0,0.06-0.02,0.06-0.06c0-0.02,0-0.04-0.01-0.04c-0.01-0.01-0.02-0.01-0.05-0.01H313.37L313.37,105.28z M313.64,105.22h0.07
		l-0.06,0.32h0.17l-0.01,0.07h-0.25L313.64,105.22L313.64,105.22z M313.69,105.18L313.69,105.18L313.69,105.18L313.69,105.18z
		 M313.69,105.6L313.69,105.6L313.69,105.6L313.69,105.6z M313.6,105.21L313.6,105.21L313.6,105.21L313.6,105.21z M313.86,105.6
		l0.07-0.39h0.26l-0.01,0.07H314l-0.02,0.08h0.17l-0.01,0.07h-0.17l-0.02,0.1h0.19l-0.01,0.07H313.86L313.86,105.6z M314.08,105.18
		L314.08,105.18L314.08,105.18L314.08,105.18z M314.07,105.6L314.07,105.6L314.07,105.6L314.07,105.6z M313.9,105.21L313.9,105.21
		L313.9,105.21L313.9,105.21z M314.4,105.22h0.07l-0.06,0.32h0.17l-0.01,0.07h-0.25L314.4,105.22L314.4,105.22z M314.45,105.18
		L314.45,105.18L314.45,105.18L314.45,105.18z M314.45,105.6L314.45,105.6L314.45,105.6L314.45,105.6z M314.36,105.21L314.36,105.21
		L314.36,105.21L314.36,105.21z M314.69,105.22h0.07l-0.07,0.39h-0.07L314.69,105.22L314.69,105.22z M314.73,105.18L314.73,105.18
		L314.73,105.18L314.73,105.18z M314.63,105.6L314.63,105.6L314.63,105.6L314.63,105.6z M314.66,105.21L314.66,105.21L314.66,105.21
		L314.66,105.21z M314.76,105.48h0.07l0,0c-0.01,0.04,0.02,0.06,0.06,0.06c0.05,0,0.07-0.02,0.08-0.05c0-0.02-0.01-0.04-0.04-0.04
		l-0.08-0.02c-0.02-0.01-0.04-0.02-0.05-0.04c-0.01-0.02-0.01-0.04-0.01-0.07c0.01-0.04,0.02-0.06,0.05-0.09
		c0.03-0.02,0.06-0.03,0.11-0.03c0.04,0,0.07,0.01,0.09,0.03s0.03,0.05,0.02,0.09l0,0h-0.07l0,0c0-0.04-0.02-0.06-0.06-0.06
		c-0.02,0-0.03,0-0.05,0.01c-0.01,0.01-0.02,0.02-0.02,0.03c0,0.01,0,0.02,0,0.03c0,0.01,0.01,0.01,0.02,0.02l0.08,0.02
		c0.03,0.01,0.05,0.02,0.06,0.04c0.01,0.02,0.01,0.04,0.01,0.07c-0.01,0.04-0.03,0.07-0.05,0.09c-0.03,0.02-0.07,0.03-0.11,0.03
		c-0.04,0-0.08-0.01-0.1-0.03C314.76,105.56,314.75,105.53,314.76,105.48L314.76,105.48z M314.96,105.18L314.96,105.18
		L314.96,105.18L314.96,105.18z M314.88,105.6L314.88,105.6L314.88,105.6L314.88,105.6z M315.12,105.22h0.29l-0.01,0.07h-0.11
		l-0.06,0.32h-0.07l0.06-0.32h-0.11L315.12,105.22L315.12,105.22z M315.27,105.18L315.27,105.18L315.27,105.18L315.27,105.18z
		 M315.19,105.6L315.19,105.6L315.19,105.6L315.19,105.6z M315.12,105.21L315.12,105.21L315.12,105.21L315.12,105.21z
		 M315.44,105.22h0.07l-0.07,0.39h-0.07L315.44,105.22L315.44,105.22z M315.49,105.18L315.49,105.18L315.49,105.18L315.49,105.18z
		 M315.39,105.6L315.39,105.6L315.39,105.6L315.39,105.6z M315.42,105.21L315.42,105.21L315.42,105.21L315.42,105.21z
		 M315.58,105.22h0.08l0.09,0.27h0l0.05-0.27h0.07l-0.07,0.39h-0.07l-0.09-0.28h0l-0.05,0.28h-0.07L315.58,105.22L315.58,105.22z
		 M315.73,105.18L315.73,105.18L315.73,105.18L315.73,105.18z M315.65,105.6L315.65,105.6L315.65,105.6L315.65,105.6z
		 M315.55,105.21L315.55,105.21L315.55,105.21L315.55,105.21z M316.06,105.46l0.01-0.07h0.14l-0.04,0.21h-0.05l0-0.05
		c-0.03,0.04-0.07,0.06-0.12,0.06c-0.05,0-0.08-0.02-0.1-0.05c-0.02-0.04-0.03-0.09-0.02-0.15c0.01-0.06,0.04-0.11,0.07-0.15
		c0.04-0.04,0.08-0.06,0.14-0.06c0.04,0,0.07,0.01,0.1,0.03c0.02,0.02,0.03,0.05,0.03,0.1l0,0h-0.07l0,0c0-0.02-0.01-0.03-0.02-0.04
		c-0.01-0.01-0.03-0.02-0.05-0.02c-0.03,0-0.06,0.01-0.08,0.04c-0.02,0.02-0.04,0.06-0.05,0.11c-0.01,0.04-0.01,0.07,0.01,0.09
		c0.01,0.02,0.03,0.04,0.07,0.04c0.02,0,0.04-0.01,0.06-0.02c0.02-0.01,0.03-0.04,0.04-0.06H316.06L316.06,105.46z M316.1,105.18
		L316.1,105.18L316.1,105.18L316.1,105.18z M316.01,105.6L316.01,105.6L316.01,105.6L316.01,105.6z M316.38,105.48h0.07l0,0
		c-0.01,0.04,0.02,0.06,0.06,0.06c0.05,0,0.07-0.02,0.08-0.05c0-0.02-0.01-0.04-0.04-0.04l-0.08-0.02
		c-0.02-0.01-0.04-0.02-0.05-0.04c-0.01-0.02-0.01-0.04-0.01-0.07c0.01-0.04,0.02-0.06,0.05-0.09c0.03-0.02,0.06-0.03,0.11-0.03
		c0.04,0,0.07,0.01,0.09,0.03c0.02,0.02,0.03,0.05,0.02,0.09l0,0h-0.07l0,0c0-0.04-0.02-0.06-0.06-0.06c-0.02,0-0.03,0-0.05,0.01
		c-0.01,0.01-0.02,0.02-0.02,0.03c0,0.01,0,0.02,0,0.03c0,0.01,0.01,0.01,0.02,0.02l0.08,0.02c0.03,0.01,0.05,0.02,0.06,0.04
		c0.01,0.02,0.01,0.04,0.01,0.07c-0.01,0.04-0.03,0.07-0.05,0.09c-0.03,0.02-0.07,0.03-0.11,0.03c-0.04,0-0.08-0.01-0.1-0.03
		C316.38,105.56,316.37,105.53,316.38,105.48L316.38,105.48z M316.58,105.18L316.58,105.18L316.58,105.18L316.58,105.18z
		 M316.5,105.6L316.5,105.6L316.5,105.6L316.5,105.6z M316.7,105.6l0.07-0.39h0.26l-0.01,0.07h-0.19l-0.02,0.08h0.17l-0.01,0.07
		h-0.17l-0.02,0.1h0.19l-0.01,0.07H316.7L316.7,105.6z M316.92,105.18L316.92,105.18L316.92,105.18L316.92,105.18z M316.91,105.6
		L316.91,105.6L316.91,105.6L316.91,105.6z M316.74,105.21L316.74,105.21L316.74,105.21L316.74,105.21z M317.32,105.6h-0.08
		c0-0.02,0-0.04,0.01-0.07l0.01-0.03c0-0.02,0-0.03,0-0.04c-0.01-0.01-0.02-0.01-0.04-0.01h-0.08l-0.03,0.15h-0.07l0.07-0.39h0.18
		c0.03,0,0.06,0.01,0.07,0.03c0.02,0.02,0.02,0.05,0.01,0.08c-0.01,0.04-0.03,0.07-0.07,0.09c0.02,0.01,0.03,0.02,0.03,0.04
		c0,0.02,0,0.04-0.01,0.07l0,0.02c0,0.01,0,0.03,0,0.04c0,0.01,0,0.01,0.01,0.02L317.32,105.6L317.32,105.6z M317.29,105.34
		c0.01-0.03-0.01-0.05-0.04-0.05h-0.09l-0.02,0.1h0.09C317.27,105.39,317.29,105.37,317.29,105.34L317.29,105.34z M317.24,105.18
		L317.24,105.18L317.24,105.18L317.24,105.18z M317.17,105.6L317.17,105.6L317.17,105.6L317.17,105.6z M317.07,105.21L317.07,105.21
		L317.07,105.21L317.07,105.21z M317.52,105.51L317.52,105.51l0.13-0.29h0.08l-0.19,0.39h-0.07l-0.04-0.39h0.08L317.52,105.51
		L317.52,105.51z M317.77,105.22h0.07l-0.07,0.39h-0.07L317.77,105.22L317.77,105.22z M317.81,105.18L317.81,105.18L317.81,105.18
		L317.81,105.18z M317.72,105.6L317.72,105.6L317.72,105.6L317.72,105.6z M317.74,105.21L317.74,105.21L317.74,105.21L317.74,105.21
		z M318.09,105.47h0.07c-0.01,0.04-0.04,0.08-0.07,0.1c-0.03,0.03-0.07,0.04-0.11,0.04c-0.05,0-0.08-0.02-0.11-0.05
		c-0.02-0.04-0.03-0.09-0.01-0.15c0.01-0.06,0.04-0.11,0.07-0.15c0.04-0.04,0.08-0.05,0.13-0.05c0.04,0,0.07,0.01,0.09,0.04
		c0.02,0.02,0.03,0.06,0.03,0.1l0,0h-0.07l0,0c0-0.02-0.01-0.04-0.02-0.05c-0.01-0.01-0.02-0.02-0.04-0.02
		c-0.03,0-0.05,0.01-0.07,0.04c-0.02,0.02-0.03,0.06-0.04,0.1c-0.01,0.04-0.01,0.07,0,0.1c0.01,0.02,0.03,0.04,0.06,0.04
		c0.02,0,0.03,0,0.05-0.01C318.06,105.52,318.07,105.5,318.09,105.47L318.09,105.47z M318.07,105.18L318.07,105.18L318.07,105.18
		L318.07,105.18z M317.98,105.6L317.98,105.6L317.98,105.6L317.98,105.6z M318.19,105.6l0.07-0.39h0.26l-0.01,0.07h-0.19l-0.02,0.08
		h0.17l-0.01,0.07h-0.17l-0.02,0.1h0.19l-0.01,0.07H318.19L318.19,105.6z M318.41,105.18L318.41,105.18L318.41,105.18L318.41,105.18
		z M318.4,105.6L318.4,105.6L318.4,105.6L318.4,105.6z M318.23,105.21L318.23,105.21L318.23,105.21L318.23,105.21z"/>
	<path class="st15" d="M312.29,108.06l0.23-0.69l0.09-0.32l0.07-0.3h0.01l-0.07,1.32h0.46l0.81-1.32h0.01l-0.16,0.37l-0.12,0.32
		l-0.21,0.63h0.6l0.69-2.05h-0.8l-0.79,1.28l0.07-1.28h-0.8l-0.69,2.05H312.29L312.29,108.06z M315.98,108.06l0.16-0.48h-0.91
		l0.53-1.57h-0.67l-0.69,2.05H315.98L315.98,108.06z M318.45,106.6c0.07-0.36-0.09-0.65-0.65-0.65c-0.51,0-0.95,0.22-1.1,0.65
		c-0.26,0.78,0.97,0.57,0.87,0.88c-0.03,0.1-0.16,0.15-0.33,0.15c-0.06,0-0.13-0.02-0.17-0.05c-0.05-0.03-0.06-0.09-0.06-0.16h-0.64
		c-0.11,0.37,0.14,0.69,0.67,0.69c0.56,0,1.03-0.23,1.19-0.71c0.25-0.75-0.98-0.56-0.88-0.86c0.02-0.07,0.1-0.12,0.25-0.12
		c0.06,0,0.12,0.01,0.16,0.04c0.04,0.03,0.06,0.07,0.05,0.14H318.45L318.45,106.6z"/>
	<path class="st15" d="M318.65,108.25v-0.2h-0.07v-0.04h0.19v0.04h-0.07v0.2H318.65L318.65,108.25z M318.79,108.25v-0.24h0.07
		l0.04,0.16l0.04-0.16h0.07v0.24h-0.04l0-0.19l-0.05,0.19h-0.05l-0.05-0.19l0,0.19H318.79L318.79,108.25z"/>
	<path class="st17" d="M318.8,107.8c0.17,0,0.31,0.14,0.31,0.31s-0.14,0.31-0.31,0.31c-0.17,0-0.31-0.14-0.31-0.31
		S318.63,107.8,318.8,107.8L318.8,107.8z"/>
	<path class="st16" d="M306.34,102.81h3.67v3.68h-3.67V102.81L306.34,102.81z M306.86,103.25h1.03V106h-1.03V103.25L306.86,103.25z
		 M308.67,104.63c0.38,0,0.68-0.31,0.68-0.69c0-0.38-0.31-0.69-0.68-0.69h-0.37v1.37H308.67L308.67,104.63z M308.29,104.69
		l1.37,1.33h-1.37V104.69L308.29,104.69z"/>
</g>
<g>
	<path class="st15" d="M310.52,95.47l2.3-1.35l2.25,1.35v2.54h-4.55V95.47z M312.82,93.36l-3.57,2.03v0.73h0.55v2.53h5.96v-2.53
		h0.56v-0.71L312.82,93.36z"/>
	<rect x="311.59" y="95.82" class="st15" width="2.38" height="0.62"/>
	<rect x="311.59" y="96.75" class="st15" width="2.38" height="0.62"/>
	<g>
		<path class="st15" d="M313.29,100.42h-0.18v-0.45h0.2c0.14,0,0.27,0.08,0.27,0.24C313.58,100.39,313.46,100.42,313.29,100.42
			 M313.31,99.8h-0.42v0.8h0.41c0.33,0,0.52-0.07,0.52-0.38C313.82,99.89,313.61,99.8,313.31,99.8"/>
		<path class="st15" d="M315.61,100.09h-0.32v-0.12h0.33c0.09,0,0.13,0.01,0.13,0.06C315.75,100.09,315.72,100.09,315.61,100.09
			 M315.96,100.05c0-0.18-0.09-0.25-0.31-0.25h-0.58v0.8h0.22v-0.33h0.21l0.23,0.33h0.24l-0.23-0.33
			C315.89,100.24,315.96,100.18,315.96,100.05"/>
	</g>
	<polygon class="st15" points="312.36,99.8 312.36,100.29 311.94,99.8 311.69,99.8 311.69,100.59 311.9,100.59 311.9,100.11 
		312.32,100.59 312.57,100.59 312.57,99.8 	"/>
	<polygon class="st15" points="309.64,99.8 309.64,100.59 310.42,100.59 310.42,100.42 309.86,100.41 309.86,99.8 	"/>
	<polygon class="st15" points="310.65,99.8 310.65,100.59 311.42,100.59 311.42,100.42 310.88,100.42 310.88,100.25 311.33,100.25 
		311.33,100.09 310.88,100.09 310.88,99.97 311.42,99.97 311.42,99.8 	"/>
	<polygon class="st15" points="314.06,99.8 314.06,100.59 314.82,100.58 314.82,100.42 314.28,100.42 314.28,100.25 314.74,100.25 
		314.74,100.09 314.28,100.09 314.28,99.97 314.82,99.97 314.82,99.8 	"/>
	<path class="st15" d="M311.42,99.32l0.06-0.28l0.07,0.28H311.42z M311.57,98.89h-0.17l-0.2,0.71h0.15l0.04-0.16h0.18l0.04,0.16
		h0.15L311.57,98.89z"/>
	<g>
		<path class="st15" d="M310.42,99.34c0,0.13-0.01,0.16-0.09,0.16c-0.07,0-0.09-0.04-0.09-0.17v-0.17c0-0.13,0.01-0.17,0.1-0.17
			c0.07,0,0.08,0.02,0.08,0.16V99.34z M310.57,99.31v-0.15c0-0.17-0.04-0.29-0.24-0.29c-0.18,0-0.24,0.1-0.24,0.28v0.19
			c0,0.24,0.14,0.25,0.55,0.25l0.01-0.05l-0.12-0.04C310.56,99.44,310.57,99.4,310.57,99.31"/>
		<path class="st15" d="M314.39,99.5c-0.06,0-0.1-0.04-0.12-0.11l-0.12,0.02c0,0.11,0.07,0.2,0.23,0.2c0.13,0,0.25-0.09,0.25-0.2
			c0-0.17-0.32-0.25-0.32-0.36c0-0.04,0.04-0.06,0.08-0.06c0.06,0,0.09,0.04,0.12,0.1l0.1-0.04c-0.01-0.1-0.08-0.18-0.23-0.18
			c-0.12,0-0.22,0.06-0.22,0.18c0,0.2,0.32,0.25,0.32,0.38C314.48,99.48,314.45,99.5,314.39,99.5"/>
		<path class="st15" d="M313.22,99.35v-0.22c0-0.09,0.01-0.15,0.09-0.15s0.09,0.07,0.09,0.15v0.21c0,0.12-0.03,0.16-0.09,0.16
			C313.23,99.5,313.22,99.45,313.22,99.35 M313.55,99.34v-0.22c0-0.18-0.05-0.25-0.24-0.25c-0.15,0-0.24,0.08-0.24,0.27v0.23
			c0,0.17,0.05,0.24,0.24,0.24C313.5,99.61,313.55,99.53,313.55,99.34"/>
		<path class="st15" d="M315.73,98.98c0.07,0,0.11,0.05,0.12,0.12l0.1-0.04c-0.01-0.12-0.09-0.19-0.23-0.19
			c-0.2,0-0.24,0.11-0.24,0.26v0.21c0,0.21,0.06,0.27,0.26,0.27c0.15,0,0.2-0.07,0.2-0.15v-0.23h-0.21v0.11h0.07v0.08
			c0,0.06-0.02,0.09-0.07,0.09c-0.1,0-0.11-0.07-0.11-0.17v-0.16C315.62,99.06,315.63,98.98,315.73,98.98"/>
		<path class="st15" d="M314.08,98.89h-0.14v0.41c0,0.16-0.01,0.2-0.09,0.2c-0.08,0-0.09-0.06-0.09-0.21v-0.4h-0.15v0.41
			c0,0.24,0.04,0.32,0.25,0.32c0.16,0,0.22-0.09,0.22-0.3V98.89z"/>
	</g>
	<polygon class="st15" points="315.29,98.89 315.29,99.33 315.13,98.89 314.94,98.89 314.94,99.6 315.06,99.6 315.06,99.12 
		315.23,99.6 315.41,99.6 315.41,98.89 	"/>
	<g>
		<path class="st15" d="M310.71,98.89v0.43c0,0.2,0.02,0.29,0.22,0.29c0.23,0,0.24-0.11,0.24-0.31v-0.41h-0.14v0.42
			c0,0.14-0.02,0.18-0.09,0.18c-0.08,0-0.09-0.04-0.09-0.2v-0.4H310.71z"/>
	</g>
	<polygon class="st15" points="312.83,98.89 312.83,99.16 312.66,99.16 312.66,98.89 312.52,98.89 312.52,99.6 312.66,99.6 
		312.66,99.28 312.83,99.28 312.83,99.6 312.97,99.6 312.97,98.89 	"/>
	<polygon class="st15" points="309.63,98.89 309.63,99.6 309.99,99.6 309.99,99.49 309.77,99.49 309.77,99.29 309.97,99.29 
		309.97,99.19 309.77,99.19 309.77,99 309.99,99 309.99,98.89 	"/>
	<polygon class="st15" points="311.83,98.89 311.83,99.6 312.16,99.6 312.16,99.49 311.95,99.49 311.95,98.89 	"/>
	<rect x="314.7" y="98.89" class="st15" width="0.13" height="0.71"/>
</g>
<g>
	<polygon class="st15" points="286.72,93.36 286.72,100.01 291.09,100.01 291.1,108.86 297.72,108.86 297.72,100.01 302.22,100.01 
		302.22,93.36 	"/>
	<g>
		<polygon class="st18" points="302.22,93.36 302.22,100.01 297.72,100.01 297.72,108.86 291.1,108.86 291.09,100.01 286.72,100.01 
			286.72,93.36 		"/>
	</g>
	<polygon class="st15" points="286.72,93.36 286.72,100.01 291.09,100.01 291.1,108.86 297.72,108.86 297.72,100.01 302.22,100.01 
		302.22,93.36 	"/>
	<g>
		<path class="st19" d="M294.13,94.48c0-0.05,0.02-0.09,0.07-0.09c0.06,0,0.07,0.04,0.07,0.09v0.66c0,0.05-0.02,0.09-0.07,0.09
			c-0.06,0-0.07-0.04-0.07-0.09V94.48z M294.63,94.52c0-0.23-0.15-0.36-0.42-0.36c-0.27,0-0.43,0.13-0.43,0.36v0.61
			c0,0.24,0.2,0.34,0.43,0.34c0.22,0,0.42-0.1,0.42-0.34V94.52z M293.19,94.41v0.78c0,0.17,0.04,0.26,0.22,0.26h0.29v-0.23h-0.07
			c-0.08,0-0.08-0.04-0.08-0.12v-0.69h0.15v-0.23h-0.15v-0.23h-0.35v0.23h-0.12v0.23H293.19z M292.3,95.45v-0.67h0l0.18,0.67h0.36
			l-0.22-0.7l0.2-0.57h-0.34l-0.18,0.58h0v-0.89h-0.35v1.59H292.3z M291.41,95.45h0.35v-1.59h-0.35V95.45z M290.79,94.99
			c0-0.1,0.08-0.13,0.15-0.18v0.22c0,0.11-0.01,0.16-0.08,0.16c-0.03,0-0.06-0.02-0.06-0.07V94.99z M290.94,95.45h0.35v-0.94
			c0-0.26-0.21-0.35-0.43-0.35c-0.21,0-0.43,0.09-0.43,0.35v0.12h0.35v-0.14c0-0.05,0.02-0.09,0.07-0.09s0.07,0.04,0.07,0.09
			c0,0.24-0.5,0.2-0.5,0.53v0.19c0,0.17,0.09,0.26,0.25,0.26c0.14,0,0.2-0.07,0.25-0.16h0V95.45z M289.84,94.11v1.34h0.37v-1.34
			h0.26v-0.24h-0.89v0.24H289.84z M300.34,99.2v-2.22c0-0.2,0.09-0.32,0.26-0.32c0.16,0,0.26,0.12,0.26,0.32v0.73h0.89v-1.1
			c0-0.26-0.11-0.58-0.62-0.58c-0.31,0-0.53,0.14-0.67,0.43l-0.01,0.03h-0.1v-0.42h-0.89v3.13H300.34z M298.06,96.51
			c0.17,0,0.26,0.09,0.26,0.24v0.49h-0.52v-0.49C297.8,96.6,297.89,96.51,298.06,96.51 M298.06,99.24c0.76,0,1.15-0.27,1.15-0.79
			v-0.42h-0.89v0.37c0,0.09,0,0.36-0.26,0.36c-0.16,0-0.26-0.14-0.26-0.36v-0.71h1.41v-0.8c0-0.71-0.62-0.86-1.15-0.86
			c-0.74,0-1.15,0.3-1.15,0.86v1.54C296.91,99.03,297.5,99.24,298.06,99.24 M294.7,99.2h0.89v-3.92h-0.89V99.2z M296.95,99.2
			l-0.6-1.74l0.55-1.39h-0.85l-0.5,1.46l0.5,1.67H296.95z M293.33,99.24c0.77,0,1.15-0.27,1.15-0.79v-0.42h-0.89v0.45
			c0,0.17-0.1,0.28-0.26,0.28s-0.26-0.1-0.26-0.28v-1.68c0-0.17,0.1-0.28,0.26-0.28s0.26,0.1,0.26,0.28v0.31h0.89v-0.22
			c0-0.71-0.63-0.86-1.15-0.86c-0.69,0-1.14,0.33-1.14,0.85v1.51C292.19,98.95,292.57,99.24,293.33,99.24 M290.21,99.24
			c0.36,0,0.58-0.14,0.67-0.4l0.01-0.04h0.1v0.4h0.89v-3.13H291v2.19c0,0.09,0,0.35-0.27,0.35c-0.25,0-0.25-0.23-0.25-0.35v-2.19
			h-0.89v2.48C289.59,98.86,289.7,99.24,290.21,99.24 M288,99.2v-3.41h-0.73v-0.51h2.39v0.51h-0.73v3.41H288z"/>
	</g>
	<g>
		<defs>
			<rect id="SVGID_00000124131364812898050540000005270279662113551803_" x="291.1" y="101.11" width="6.62" height="7.75"/>
		</defs>
		<clipPath id="SVGID_00000181086116218480777890000003389630941581942426_">
			<use xlink:href="#SVGID_00000124131364812898050540000005270279662113551803_"  style="overflow:visible;"/>
		</clipPath>
		<path style="clip-path:url(#SVGID_00000181086116218480777890000003389630941581942426_);fill:#A6A8AB;" d="M302.46,112.46
			c0,0,0.01-0.01,0.01-0.01c0,0,0,0,0,0C302.47,112.45,302.46,112.46,302.46,112.46 M292.57,111.45c-0.01,0.01-0.01,0.01-0.01,0.02
			C292.56,111.46,292.57,111.46,292.57,111.45 M292.66,111.34c-0.01,0.01-0.02,0.02-0.03,0.04
			C292.64,111.36,292.65,111.35,292.66,111.34 M293.13,111.62l0.07,0.01c0.02,0,0.05,0.01,0.07,0.02c-0.04-0.02-0.08-0.04-0.12-0.07
			C293.14,111.59,293.13,111.6,293.13,111.62 M298.02,116.55c0.01,0,0.02-0.01,0.03-0.01l-0.13,0L298.02,116.55z M294.55,106.64
			c0-0.01,0-0.02,0.01-0.02C294.55,106.62,294.54,106.64,294.55,106.64C294.54,106.64,294.54,106.64,294.55,106.64 M294.54,106.64
			L294.54,106.64c-0.01,0-0.02-0.01-0.03-0.01c0,0,0,0,0,0C294.52,106.63,294.53,106.64,294.54,106.64 M298.57,108.21
			c-0.01,0.04-0.02,0.09-0.03,0.13c0.04-0.02,0.04-0.06,0.05-0.1L298.57,108.21z M298.89,108.45c-0.05,0-0.11,0-0.16-0.02l0.02,0.05
			C298.79,108.55,298.89,108.56,298.89,108.45 M304.02,109.58c0,0.01,0.01,0.02,0.01,0.03c0,0,0-0.01,0-0.01L304.02,109.58z
			 M303.78,110.33l0,0.02C303.78,110.34,303.78,110.33,303.78,110.33 M300.91,104.07c-0.01-0.01-0.03-0.01-0.04-0.01l0-0.02
			C300.8,104.11,300.88,104.18,300.91,104.07 M300.62,104.14l-0.04-0.03c0.01,0.05,0.04,0.1,0.08,0.13
			c0.03-0.03,0.03-0.05,0.04-0.09C300.67,104.16,300.64,104.15,300.62,104.14 M302.3,104.35c-0.03,0-0.05-0.03-0.06-0.03l-0.01-0.02
			c-0.02,0.02-0.02,0.05-0.03,0.09l-0.86-0.01l0.88,0.06c0.02,0.01,0.05,0.01,0.06,0.01c0,0,0-0.01,0-0.01l0.96,0.06
			c0,0.01-0.01,0.02-0.01,0.04c0.02,0.02,0.09,0.04,0.11,0.04c0.01-0.02,0.01-0.05,0.01-0.07l0.76,0.05
			c-0.03-0.05-0.07-0.09-0.1-0.14l-1.72-0.03C302.29,104.37,302.3,104.36,302.3,104.35 M301.4,104.78
			c-0.01-0.01-0.03-0.01-0.05-0.01l-0.03-0.01c-0.2,0.2-0.61,0.55-0.28,0.82c0.07-0.13-0.01-0.3,0.06-0.45
			C301.17,104.99,301.34,104.93,301.4,104.78 M299.87,104.31l0-0.01c0.03-0.01,0.05-0.04,0.06-0.08c-0.09-0.13-0.27-0.05-0.36-0.02
			c-0.07,0.02-0.16-0.05-0.17,0.09c-0.01,0.08,0.06,0.13,0.13,0.15c-0.02,0.05-0.11,0.23,0,0.24c0.08,0.01,0.1-0.2,0.12-0.26
			c0.11,0.03,0.01,0.18,0.14,0.21c0.05-0.09,0-0.13-0.05-0.2c-0.07-0.1-0.06-0.11-0.08-0.22
			C299.74,104.23,299.77,104.3,299.87,104.31 M299.74,112.34c0.15,0.09,0.21-0.04,0.28-0.15c0.07-0.1,0.2-0.25,0.2-0.37l-0.03-0.04
			c-0.04,0.12-0.23,0.11-0.3,0.19c-0.03,0.04-0.03,0.14-0.06,0.2C299.81,112.23,299.75,112.25,299.74,112.34 M299.13,112.33
			c0.08-0.05,0.14-0.05,0.17-0.13c0.02-0.04-0.03-0.09,0-0.14c0.03-0.06,0.13-0.09,0.19-0.12c0.13-0.08,0.21,0.02,0.25-0.15
			c0.02-0.08,0-0.27,0.01-0.35c0.03-0.18,0.07-0.2,0.19-0.31c0.11-0.09,0.24-0.17,0.35-0.26c0.08-0.06,0.17-0.12,0.22-0.2
			c0.04-0.06,0.07-0.14,0.09-0.21c-0.14-0.06-0.26,0.06-0.39,0c0.01-0.04,0-0.09,0.01-0.13c-0.07,0-0.12-0.18-0.16-0.23
			c-0.06-0.09-0.16-0.18-0.16-0.28c0-0.2-0.19-0.46-0.16-0.67c0.02,0,0.04,0.01,0.06,0.01c0,0.06,0,0.11,0.04,0.15l0.01,0
			c0.18-0.19-0.19-0.17-0.27-0.19c-0.1-0.02-0.39-0.23-0.47-0.19c-0.08,0.04,0.01,0.16-0.1,0.15c-0.03,0-0.14-0.12-0.16-0.14
			c-0.15-0.1-0.33-0.12-0.26-0.35c-0.15-0.13-0.47-0.12-0.65-0.11c-0.11,0.01-0.28-0.08-0.36-0.05c-0.09,0.04-0.13,0.17-0.19,0.23
			c-0.1,0.1-0.26,0.17-0.37,0.26c-0.12,0.1-0.13,0.18-0.19,0.33c-0.05,0.12-0.14,0.22-0.12,0.37c0.01,0.13,0.11,0.27,0.17,0.38
			c0.04,0.07,0.08,0.21,0.14,0.26c0.07,0.05,0.26,0.07,0.34,0.06c0.09,0,0.17-0.03,0.28-0.02c0.09,0.01,0.19,0.04,0.27,0.07
			c-0.05,0.13,0.09,0.09,0.15,0.15c0.07,0.07,0.03,0.13,0.02,0.21c-0.01,0.16,0.08,0.3,0.11,0.46c0.01,0.07,0.01,0.16,0,0.23
			c-0.02,0.11-0.06,0.12-0.11,0.2c-0.04,0.08-0.05,0.16-0.04,0.24c0.02,0.11,0.04,0.19,0.03,0.29c-0.01,0.11-0.03,0.13,0.07,0.22
			c0,0.12-0.05,0.26,0.06,0.33c0.09,0.05,0.32,0.06,0.42,0.04C298.87,112.7,298.97,112.44,299.13,112.33 M298,106.84L298,106.84
			C298,106.84,298,106.84,298,106.84 M298.05,106.91c0-0.01-0.01-0.01-0.01-0.02c0-0.01,0.01-0.01-0.01-0.02
			c-0.01-0.01-0.03-0.01-0.04-0.02c-0.02-0.01-0.06-0.01-0.06,0.01c0.01,0.01,0,0.03,0,0.04c-0.01,0-0.02,0.01-0.03,0.01
			c-0.01,0-0.01,0-0.02,0c-0.01,0-0.03,0-0.03,0c-0.01,0.01-0.01,0.03-0.01,0.04c0,0.02,0,0.02,0.02,0.03c0,0.01,0,0.03,0,0.04
			c-0.01,0.01-0.03,0.01-0.04,0.03c-0.01,0.01-0.02,0.03-0.01,0.04c0,0.01,0.02,0.01,0.03,0.01c0.01,0,0.02,0.01,0.04,0.01
			c0.02,0,0.03-0.02,0.05-0.02c0.01,0,0.03,0.01,0.05,0.01c0.02-0.01,0.03-0.06,0.04-0.07c0.01-0.03-0.01-0.05,0.01-0.07
			C298.03,106.94,298.05,106.93,298.05,106.91 M298.35,107.22c0.01-0.01,0.03-0.01,0.03-0.03c0.01-0.03,0-0.05-0.03-0.05
			c-0.01,0-0.01,0.01-0.02,0c-0.02,0-0.03-0.01-0.03-0.03c0-0.02,0.02-0.04,0.02-0.07c0-0.02,0-0.03-0.01-0.05
			c-0.01-0.02-0.01-0.03-0.02-0.05c-0.01-0.02-0.02-0.04-0.02-0.06c0-0.01,0.01-0.03,0-0.04c-0.01-0.01-0.02-0.02-0.03-0.03
			c-0.02-0.01-0.04-0.03-0.02-0.05c0.02-0.02,0.04-0.03,0.05-0.05c0.01-0.01,0.02-0.02,0.03-0.03c0.01-0.01,0.02-0.01,0.02-0.02
			c0-0.01-0.03-0.02-0.04-0.02c-0.02,0-0.06,0-0.06-0.03c0-0.02,0.03-0.05,0.04-0.06c-0.05,0-0.09,0.01-0.13,0.04
			c-0.02,0.02-0.02,0.05-0.02,0.07c0,0.01,0,0.03,0,0.04c0,0.01,0.01,0.01,0.01,0.01c0,0.01-0.01,0.02-0.01,0.02
			c-0.02,0.03,0.03,0.02,0.04,0.05c0.01,0.03-0.04,0.05-0.03,0.07c0.01,0.01,0.03,0.01,0.05,0.02c0.02,0.01,0.03,0.03,0.03,0.06
			c0,0.02,0,0.06-0.01,0.07c-0.01,0.01-0.03,0.01-0.04,0.02c-0.01,0-0.02,0.01-0.03,0c-0.01,0.01-0.01,0.01,0,0.02
			c0,0.01,0.01,0.03,0,0.04c-0.01,0.02-0.01,0-0.02,0.01c-0.04,0.03,0.04,0.03,0.03,0.06c0.02,0,0.03,0.01,0.05,0.01
			c0,0.02,0,0.03-0.02,0.03c-0.01,0-0.02,0-0.04,0c-0.01,0-0.03,0.01-0.04,0.02c-0.01,0.01-0.03,0.01-0.04,0.02
			c0.02,0.01,0.04,0.01,0.05,0c0.02-0.01,0.06-0.02,0.08,0c0.01,0.01,0.01,0.01,0.03,0.01c0.02,0,0.05,0.01,0.07,0.01
			c0.02,0,0.06,0.02,0.07,0.01c0.01-0.01,0-0.02,0-0.02c0,0,0,0-0.01-0.01c0,0,0-0.01,0-0.01
			C298.33,107.23,298.33,107.23,298.35,107.22 M297.94,105.76c0.04-0.19-0.23-0.07-0.32-0.1l0-0.02c-0.01-0.03-0.02-0.05-0.02-0.08
			c-0.04-0.02-0.08,0-0.08,0.05c0.12,0,0,0.12,0.03,0.17c-0.02,0.01-0.01,0.02-0.02,0.03C297.66,105.84,297.89,105.98,297.94,105.76
			 M293.84,108.04C293.85,108.04,293.85,108.04,293.84,108.04C293.85,108.04,293.85,108.04,293.84,108.04L293.84,108.04z
			 M293.85,108.03L293.85,108.03C293.85,108.03,293.85,108.03,293.85,108.03 M293.98,108.15c-0.01-0.02-0.01-0.03-0.05-0.04
			c0-0.05-0.04-0.07-0.09-0.07C293.79,108.1,293.93,108.14,293.98,108.15 M293.75,107.85c0.01-0.04-0.02-0.08-0.04-0.11
			c-0.04-0.05-0.12-0.14-0.2-0.17c0.01,0.11,0.21,0.18,0.18,0.26c-0.01,0-0.01,0-0.02,0C293.66,107.89,293.73,107.9,293.75,107.85
			 M293.48,107.57c0.01,0,0.02,0.01,0.03,0.01c0,0,0,0,0,0L293.48,107.57z M295.5,106.27c-0.06,0.03-0.06,0.07-0.11,0.11
			c-0.05,0.04-0.12,0.06-0.15,0.11l0.01,0.01c0.01,0.07,0.07,0.06,0.12,0.09c0.05,0.03,0.06,0.09,0.11,0.1
			c0.01-0.03-0.01-0.06-0.04-0.07c0.01-0.02,0.06-0.05,0.07-0.07c0.02-0.07-0.03-0.04-0.05-0.09
			C295.42,106.39,295.51,106.36,295.5,106.27 M298.36,104.02c0.02-0.02,0.04-0.04,0.06-0.06c0.04-0.04,0.08-0.1,0.13-0.14
			c0.05-0.04,0.14-0.05,0.17-0.11c0.01-0.03,0-0.05-0.03-0.07c-0.04-0.03-0.07-0.04-0.11,0c-0.04-0.05-0.17,0.1-0.25,0.04
			c0.02-0.03,0.02-0.07,0.04-0.09c0.03-0.03,0.08,0,0.08-0.06c-0.03,0-0.06,0.03-0.09,0.02c-0.01-0.06-0.06-0.09-0.11-0.1
			c-0.01-0.07,0.28-0.01,0.3-0.01l0,0c-0.02-0.05-0.08-0.08-0.1-0.12c-0.01-0.02,0-0.02,0-0.04c0-0.05-0.03-0.05-0.07-0.07
			c-0.04-0.02-0.08-0.05-0.12-0.06c-0.05-0.02-0.11-0.03-0.17-0.03c-0.05,0-0.1,0-0.14,0.01c-0.05,0.01-0.07,0.04-0.11,0.06
			c-0.05,0.03-0.05-0.03-0.09-0.02c-0.03,0-0.04,0.05-0.08,0.04c-0.01,0-0.02-0.02-0.03-0.03c-0.01-0.01-0.03-0.01-0.03-0.01
			c-0.04-0.02-0.09-0.04-0.14-0.04c-0.08-0.01-0.11,0.09-0.19,0.09c-0.02,0-0.03-0.01-0.04-0.01c-0.03,0-0.05,0.02-0.08,0.03
			c-0.04,0.01-0.12,0.01-0.11,0.05c0,0.01,0.02,0.03,0.02,0.04c0,0.03-0.04,0.06-0.06,0.08c-0.02,0.01-0.05,0.04-0.07,0.04
			c-0.02,0-0.03,0-0.04-0.01c-0.04,0.01-0.09,0-0.13-0.01c-0.02-0.01-0.06-0.04-0.09-0.02c-0.03,0.03,0.01,0.09,0.01,0.12
			c0,0.04-0.03,0.04-0.04,0.08c-0.03,0-0.08-0.04-0.1-0.01c-0.01,0.02,0.01,0.06,0.01,0.09c0,0.06-0.01,0.05,0.06,0.08
			c0.03,0.01,0.09,0.03,0.11,0.06c0.02,0.03,0.03,0.07,0.04,0.1c0.01,0.02,0.04,0.04,0.03,0.07c0,0.02-0.03,0.05-0.04,0.07
			c-0.01,0.04-0.02,0.09-0.03,0.13c0.01,0,0.02,0.01,0.02,0.01c-0.03,0-0.03,0.03-0.04,0.05c-0.02,0.04-0.03,0.04-0.05,0.07
			c-0.03,0.03-0.04,0.06-0.06,0.1c-0.01,0.02-0.04,0.03-0.04,0.06c0.02,0.02,0.05,0.01,0.08,0.02c0,0.01-0.01,0.03-0.01,0.05
			c0,0.03,0.03,0.04,0.03,0.07c0,0.03-0.03,0.08-0.06,0.06c-0.02-0.01-0.01-0.05-0.03-0.06c-0.02-0.01-0.03,0-0.05,0.01
			c-0.02,0.02-0.07,0.07-0.05,0.1c0.02,0.05,0.06,0.03,0.09,0.02c0.05-0.01,0.04,0.03,0.02,0.07c-0.01,0.02-0.05,0.08-0.07,0.09
			c-0.02,0.01-0.05-0.01-0.08-0.01c-0.03,0-0.03,0.01-0.04,0.03c0,0.01-0.03,0.05-0.03,0.05c-0.01-0.02-0.02-0.04-0.02-0.05
			c0,0.02,0,0.04,0.02,0.05c-0.03,0.11-0.06,0.22-0.09,0.33c-0.03,0.11-0.08,0.26,0,0.36c0.03,0.04,0.06,0.08,0.08,0.13
			c0.01,0.03,0,0.05,0.03,0.04c0.02,0,0.03-0.03,0.05-0.04c0.05-0.04,0.1-0.08,0.11-0.14c0.01-0.06,0.03-0.06,0.08-0.09
			c0.03-0.02,0.05-0.03,0.06-0.06c0.01-0.04,0-0.07,0.03-0.1c0.03-0.04,0.06-0.04,0.11-0.04c0.05-0.01,0.09,0.01,0.14,0.02
			c0.07,0.01,0.11-0.03,0.17-0.07c0.09-0.05,0.12-0.1,0.22-0.09c0.07,0,0.14-0.01,0.21-0.01c0.04,0,0.09-0.01,0.12-0.03
			c0.04-0.03,0.02-0.03-0.01-0.05c-0.02-0.02-0.02-0.02-0.04-0.03c-0.01,0-0.03,0-0.04-0.01c0.01-0.05,0.03-0.04,0.06-0.07
			c0.02-0.01,0.05-0.06,0.08-0.03c0.02,0.02-0.01,0.06,0.01,0.08c0.01,0.01,0.04,0.02,0.05,0.01c0.01-0.01,0.02-0.06,0.02-0.08
			c0-0.04-0.02-0.07-0.03-0.11c0-0.01-0.01-0.03,0-0.04c0.03-0.05,0.06,0.04,0.08,0.04c0.02,0,0.01-0.07,0.01-0.09
			c0-0.01,0.01-0.03,0.02-0.04c0.01,0,0.01,0,0.02,0c0.03-0.01,0.07,0,0.11-0.01c-0.01-0.01-0.01-0.02-0.02-0.03
			c-0.01-0.01-0.03-0.01-0.04-0.03c0.04-0.01,0.11-0.01,0.13-0.04c-0.05-0.02-0.02-0.06-0.01-0.09c0.02-0.05,0.05-0.14,0-0.17
			c0.02-0.04,0.02-0.08,0.08-0.08c0.03,0,0.06,0.01,0.08,0.03c0-0.01-0.02-0.02-0.02-0.03c0-0.01,0.01-0.03,0.01-0.04
			c0-0.06-0.01-0.07,0.03-0.12C298.33,104.1,298.34,104.06,298.36,104.02 M296.88,103.41c0.01,0,0.02,0.01,0.03,0.01c0,0,0,0,0,0
			C296.9,103.42,296.89,103.42,296.88,103.41 M296.69,102.79c0,0,0.01,0,0.01-0.01c0,0,0.01-0.01,0.01-0.01L296.69,102.79z
			 M296.44,103.41c0.03-0.03,0.02-0.04,0.06-0.04c0.03,0,0.05,0.01,0.08,0c0.01-0.01,0.03-0.03,0.04-0.04
			c0.04-0.03,0.08-0.05,0.12-0.08c0.04-0.02,0.07-0.02,0.12-0.03c0.03-0.01,0.07,0,0.1-0.01c0.06-0.01,0.11-0.06,0.17-0.08
			c0.11-0.04,0.25-0.04,0.36-0.1c-0.06-0.04-0.03-0.13-0.07-0.18c0-0.01-0.01-0.01-0.02-0.01l0.04,0h-0.04
			c-0.02-0.01-0.06-0.03-0.08-0.03c-0.08-0.02-0.16-0.11-0.25-0.07c-0.02,0.01-0.02,0.03-0.04,0.03c-0.01,0-0.04,0-0.05,0
			c-0.04,0-0.06-0.01-0.1,0.01c-0.02,0.01-0.02,0.02-0.04,0.01c-0.01,0-0.03-0.02-0.05-0.02c-0.03-0.01-0.07,0-0.1,0.02
			c-0.01,0.01-0.02,0.03-0.02,0.04l-0.09,0c0-0.01,0.01-0.01,0.01-0.02c0-0.01,0-0.02-0.01-0.03c-0.03,0.02-0.05,0.04-0.08,0.05
			l-0.4,0c0.01,0.01,0.01,0.03,0.01,0.04l0.33-0.01c-0.01,0.01-0.02,0.01-0.02,0.02c-0.02,0.04-0.06,0.06-0.09,0.1
			c-0.03,0.03-0.1,0.08-0.1,0.12c0.01,0.06,0.1,0.01,0.14-0.01c0.03-0.01,0.12-0.01,0.13-0.04c0.01-0.02-0.01-0.03,0-0.05
			c0.01-0.02,0.05-0.03,0.05-0.05c0.02-0.04-0.02-0.06,0.01-0.1l0.1,0c0,0,0,0,0,0.01c0.01,0.05,0.11,0.06,0.15,0.08
			c0.04,0.02,0.11,0.07,0.03,0.08c-0.06,0.01-0.14-0.01-0.2-0.03c-0.02,0-0.02-0.01-0.04-0.01c-0.02,0.01-0.04,0.04-0.05,0.06
			c-0.03,0.05-0.05,0.09-0.1,0.11c-0.03,0.01-0.07,0.02-0.1,0.03l-0.5,0c0,0.01,0,0.02-0.01,0.02l0.11,0
			c-0.01,0.02-0.02,0.04-0.02,0.05c0.06,0.03-0.02,0.1-0.04,0.12c-0.04,0.04-0.09,0.07-0.06,0.13c0.01,0.02,0.02,0.03,0.03,0.04
			l-0.15,0c0,0.01,0,0.01,0,0.01l0.16-0.01c0.05,0.04,0.11,0.06,0.17,0.08c0.05,0.02,0.12,0.01,0.13-0.06
			c0.01-0.06-0.04-0.08-0.09-0.1c-0.06-0.02-0.09-0.02-0.09-0.09c0-0.02,0.01-0.04,0.01-0.06c0-0.04-0.02-0.04-0.03-0.07
			c-0.01-0.03,0.01-0.05-0.01-0.07l0.38-0.01c-0.02,0.01-0.01,0.04-0.03,0.05c-0.02,0.01-0.04-0.01-0.05-0.01
			c-0.04,0-0.04,0.03-0.07,0.05c-0.02,0.02-0.03,0.01-0.06,0.01c-0.03,0-0.09-0.01-0.09,0.04c0,0.06,0.12,0.08,0.15,0.1
			c0.04,0.02,0.06,0.04,0.11,0.05c0.02,0,0.06,0,0.07-0.01c0.01-0.01,0-0.04,0.02-0.05C296.4,103.41,296.42,103.42,296.44,103.41
			 M296.58,102.76c0,0.01,0,0.01,0,0.02c0,0,0.01,0,0.01-0.01L296.58,102.76z M296.07,103.05c0.04,0.02,0.12-0.04,0.07-0.06l0.01,0
			C296.12,102.96,296.07,103.01,296.07,103.05 M296.05,103.18c0.03,0.02,0.06-0.01,0.05-0.03l-0.01-0.03
			C296.05,103.1,296,103.15,296.05,103.18 M296.07,102.78C296.08,102.78,296.08,102.79,296.07,102.78c0.01,0,0.01,0,0.01,0
			L296.07,102.78z M295.49,102.9l-0.03,0c0.01,0,0,0.01,0.01,0.01C295.48,102.91,295.49,102.91,295.49,102.9 M296.02,103.94
			c0.02-0.01,0.03-0.06,0.03-0.08c-0.01-0.03-0.05-0.03-0.08-0.04l0.03-0.02C295.9,103.8,295.95,103.96,296.02,103.94
			 M295.95,104.88c0.03-0.01,0.05-0.01,0.07-0.03c0.04-0.05,0.01-0.1-0.01-0.15c-0.01-0.02,0-0.04-0.02-0.06
			c-0.02-0.02-0.03-0.02-0.05-0.05c-0.03-0.06,0-0.07,0.04-0.11c0.09-0.09,0.09-0.18,0.06-0.29c-0.01-0.03-0.04-0.06-0.04-0.09
			c0-0.04,0.03-0.06-0.02-0.09c0.02-0.06-0.13-0.07-0.17-0.09c0-0.06,0.09-0.09,0.09-0.16c-0.06-0.02-0.1-0.03-0.15,0.02
			c-0.02,0.02-0.05,0.11-0.07,0.12c-0.07,0.02,0.01-0.2,0.09-0.21c0,0-0.01,0-0.01,0l0.02-0.01c-0.01,0-0.02,0.01-0.02,0.01
			c-0.02,0-0.04,0-0.06,0.02c-0.1,0.05-0.17,0.2-0.19,0.28c-0.01,0.07,0.02,0.05,0.06,0.1c0.03,0.03,0.04,0.07,0.07,0.09
			c0.01,0.01,0.03,0.03,0.04,0.03c0.01,0,0.02-0.01,0.03-0.01c0.01,0,0.01-0.03,0.04-0.01c0.01,0.01,0,0.08,0,0.1
			c0,0.06-0.01,0.11-0.02,0.17c-0.01,0.06-0.01,0.11-0.07,0.14c-0.06,0.03-0.1,0.04-0.12,0.12c-0.02,0-0.08,0-0.09,0
			c-0.02-0.01-0.02-0.03-0.03-0.04c-0.03-0.01-0.03-0.01-0.05,0.01c-0.03,0.04-0.01,0.06,0.03,0.08c0.03,0.01,0.04,0.01,0.06,0.04
			c0.02,0.03,0,0.11,0.02,0.16c0.01,0.02,0.01,0.05,0.02,0.07c0.01,0.02,0.02,0.05,0.03,0.07c0.01,0.01,0.02,0.01,0.03,0.02
			c0.01,0.02,0.01,0.04,0.02,0.06c0.04-0.03,0.02-0.08,0.01-0.12c0-0.03,0.01-0.07,0.01-0.1c0.05,0.02,0.1,0.1,0.09,0.15
			c0.1,0.03,0.06-0.26,0.06-0.31c0.01-0.08,0.08-0.05,0.09,0.02c0.01,0.04-0.03,0.11,0.04,0.11
			C295.9,104.92,295.92,104.89,295.95,104.88 M297.42,114.15l0.27,0c0.01,0,0.01-0.01,0.02-0.01l-0.3-0.01
			C297.42,114.13,297.42,114.14,297.42,114.15 M295.83,113.79l0.27,0c0.02-0.02,0.03-0.04,0.05-0.06l-0.36-0.02
			C295.81,113.74,295.82,113.76,295.83,113.79 M297.28,113.78c0,0.01,0.01,0.01,0.01,0.02l0.5,0L297.28,113.78z M295.71,113.43
			l0.75,0.01c0.01-0.01,0.02-0.02,0.03-0.03l-0.78-0.04C295.71,113.4,295.71,113.41,295.71,113.43 M295.55,113.43l0.02,0
			c0.02-0.02,0.05-0.04,0.07-0.06l-0.12-0.01C295.53,113.39,295.54,113.41,295.55,113.43 M297.01,113.45l0.16,0L297.01,113.45
			C297.01,113.44,297.01,113.44,297.01,113.45 M295.46,113.02c0,0.01-0.01,0.03-0.01,0.04l1.01,0.01L295.46,113.02z M295.03,113.05
			l0.32,0c0.02-0.01,0.03-0.03,0.05-0.04l-0.41-0.02C295.01,113.01,295.02,113.03,295.03,113.05 M298.35,114.16
			C298.36,114.15,298.36,114.15,298.35,114.16L298.35,114.16C298.35,114.15,298.35,114.15,298.35,114.16 M298.98,113.82
			c0.01-0.01,0.02-0.01,0.04-0.02l-0.55,0.02L298.98,113.82z M298.66,113.43l2.53,0.02c0-0.03-0.01-0.06-0.01-0.08L298.66,113.43z
			 M301.35,113.05c0.02-0.02,0.04-0.05,0.07-0.07l-1.74,0.01L301.35,113.05z M303.08,113.07c0.04-0.03,0.07-0.07,0.11-0.1l-0.14,0
			C303.05,113.01,303.05,113.01,303.08,113.07 M299.52,101.46c-0.36-0.08-0.72-0.13-1.08-0.15l-0.8-0.01
			c-0.33,0.02-0.66,0.06-0.98,0.12l1.43-0.04L299.52,101.46z M300.88,101.88c-0.11-0.05-0.23-0.09-0.34-0.14l-2.38-0.03l-2.52-0.04
			c-0.11,0.04-0.22,0.08-0.33,0.13l2.83-0.07L300.88,101.88z M301.71,102.29L301.71,102.29c-0.09-0.06-0.18-0.1-0.26-0.14l-3.4-0.04
			L301.71,102.29z M294.72,102.07c-0.08,0.04-0.16,0.08-0.25,0.13l3.37-0.08L294.72,102.07z M294.61,112.53
			c0.02,0.02,0.05,0.04,0.07,0.07l1.71-0.05L294.61,112.53z M301.9,112.71c0,0,0.01,0,0.01-0.01c0.04-0.02,0.11-0.04,0.19-0.07
			l-2.17-0.02L301.9,112.71z M302.76,112.64c0.02,0.04,0.03,0.08,0.04,0.11l0.08,0l0.09-0.08c0.01,0.03,0.01,0.06,0.02,0.08
			l0.38,0.02c0.04-0.04,0.08-0.08,0.12-0.12l0-0.01L302.76,112.64z M292.36,109.91c-0.01,0.01-0.03,0.01-0.04,0.02
			C292.33,109.93,292.35,109.92,292.36,109.91 M292.65,106.5c0.01-0.09,0.02-0.19,0.03-0.28c0-0.01,0-0.03,0-0.04l-0.06,0
			c-0.02,0.04-0.02,0.1-0.03,0.14c-0.01,0.04-0.03,0.1-0.03,0.14c0,0.02,0.01,0.03,0.01,0.04L292.65,106.5z M294.13,102.55
			c0.01,0,0.01,0,0.02,0c0.01,0,0.01,0,0.01-0.01L294.13,102.55z M294.79,103.18L294.79,103.18c0.01-0.01,0.01-0.02,0.01-0.03
			L294.79,103.18z M294.84,103.38c0-0.04-0.01-0.03-0.02-0.06c-0.01-0.03,0-0.05,0.01-0.08l-0.01,0l-0.01,0.01c0,0,0-0.01,0.01-0.01
			l-0.3,0.01c-0.01,0.02-0.02,0.05,0.01,0.08c0.03,0.02,0.06-0.01,0.08,0.03c0.01,0.03-0.02,0.08-0.01,0.11
			c0.01,0.03,0.03,0.05,0.03,0.08l0.05,0c0,0,0,0,0,0c0-0.01-0.01-0.01-0.01-0.01c0.02-0.01,0.02-0.03,0.02-0.04
			c-0.01-0.03-0.03-0.05,0.01-0.08c0.06-0.04,0.09,0.06,0.13,0.05C294.83,103.45,294.84,103.39,294.84,103.38 M294.85,103.93
			c0.01,0.02,0.02,0.04,0.04,0.06c0.04,0.03,0.1,0,0.13-0.04c0.01-0.01,0.01-0.02,0.02-0.03L294.85,103.93z M294.97,104.08
			c0.03,0.01,0.11-0.03,0.14-0.05c0.04-0.02,0.09-0.07,0.1-0.11c0,0,0,0,0-0.01l-0.11,0C295.07,103.98,294.98,103.99,294.97,104.08
			 M293.91,111.34c0.01,0.02,0.01,0.04,0.02,0.05l0.12,0C294.01,111.37,293.95,111.31,293.91,111.34 M293.62,111.84
			c0,0,0.01,0,0.01,0.01C293.62,111.84,293.62,111.84,293.62,111.84c-0.02,0-0.02-0.01-0.03-0.01c-0.01-0.01-0.03-0.02-0.04-0.03
			c-0.08-0.07-0.18-0.12-0.28-0.15c0.03-0.06,0.04-0.13,0.04-0.19l-0.32,0.01c0.01-0.01,0.02-0.02,0.02-0.03
			c0.01-0.02,0.03-0.03,0.04-0.05l0.2,0c0.01-0.08-0.02-0.16,0.02-0.25c0.01-0.02,0.01-0.05,0.02-0.08l-0.2,0.01
			c0-0.02-0.01-0.04-0.01-0.06l0.23,0c0.01-0.04,0.03-0.07,0.04-0.12c0.01-0.07,0.03-0.15,0.04-0.22l-0.49,0.03
			c-0.02-0.02-0.03-0.04-0.05-0.06l0.55,0c0.01-0.08,0.02-0.17,0.02-0.25c0-0.03,0.01-0.07,0.02-0.11l-0.87,0.04
			c-0.02-0.02-0.04-0.04-0.05-0.07l0.93,0.01c0.01-0.03,0.01-0.07,0-0.1c-0.01-0.03-0.04-0.04-0.06-0.05
			c-0.04-0.06-0.05-0.13-0.1-0.19c-0.01-0.01-0.02-0.02-0.02-0.03l-0.85,0.04c0,0.02,0,0.04,0,0.06c-0.03-0.02-0.06-0.05-0.09-0.06
			c-0.01,0-0.01,0.01-0.02,0.01l-0.24,0.01c-0.01-0.03-0.01-0.06-0.01-0.09l1.2,0.02c-0.04-0.04-0.08-0.08-0.08-0.15
			c0-0.08,0-0.14-0.01-0.22l-1.9,0.11c-0.01-0.04-0.02-0.09-0.03-0.13l1.93,0.01c0-0.02,0-0.03-0.01-0.05
			c-0.02-0.08-0.05-0.14-0.06-0.22c0-0.03-0.03-0.07-0.01-0.1c0,0,0,0,0,0l-1.91,0.09c-0.01-0.04-0.02-0.09-0.03-0.13l1.94,0.04
			c0.01-0.01,0.02-0.01,0.03-0.03c0.02-0.02,0.04-0.01,0.04-0.05c-0.01,0-0.02-0.01-0.04-0.01c0-0.04,0.06-0.14,0.1-0.13
			c0.01-0.05,0.06-0.06,0.09-0.09c0.05-0.05,0.05-0.13,0.07-0.2c0.01,0,0.02-0.01,0.03-0.02c-0.03-0.01-0.03-0.05-0.04-0.08
			c-0.02-0.06-0.02-0.05-0.07-0.07c-0.03-0.01-0.03,0.02-0.07-0.01c-0.02-0.01-0.03-0.06-0.05-0.08c-0.05-0.08-0.09-0.18-0.09-0.27
			c0-0.09,0-0.11-0.06-0.17c-0.04-0.05-0.08-0.11-0.1-0.16c-0.02-0.04-0.03-0.08-0.05-0.11l-1.85,0.1c0-0.04,0.01-0.09,0.01-0.13
			l1.83,0.02c-0.01-0.02-0.02-0.04-0.04-0.06c-0.04-0.03-0.09-0.04-0.11-0.09c-0.04-0.06-0.03-0.13-0.06-0.2l-1.6,0.11
			c0-0.04,0-0.09,0.01-0.13l1.58-0.01c0,0,0,0,0,0c-0.03-0.04-0.07-0.09-0.05-0.16c-0.01,0-0.01,0-0.02,0
			c0.02-0.04,0.06-0.09,0.07-0.14c0-0.01,0-0.02,0-0.03l-1.55,0.08c0.01-0.04,0.02-0.09,0.02-0.13l1.52,0.03
			c0-0.07-0.02-0.14-0.02-0.2c0-0.06,0-0.11,0-0.17l-0.08,0c0,0.01,0,0.01,0,0.02c-0.01,0-0.02-0.01-0.02-0.02l-1.35,0.07
			c0.01-0.04,0.01-0.09,0.02-0.13l1.31,0.02c0.01-0.06,0-0.12,0.01-0.19c0.01-0.04,0.02-0.09,0.03-0.13l-1.29,0.07
			c0.01-0.04,0.03-0.09,0.04-0.13l1.26,0.01c0.01-0.05,0.03-0.11,0.04-0.16c0.01-0.06-0.01-0.1-0.01-0.16l-1.22,0.06
			c0.01-0.04,0.03-0.09,0.04-0.13l1.19,0.01c0.02-0.1,0.05-0.2,0.08-0.3l-1.18,0.06c0.02-0.05,0.04-0.09,0.06-0.13l1.14,0.01
			c0.02-0.04,0.04-0.08,0.06-0.12c0.04-0.08,0.08-0.1,0.14-0.17c0,0,0.01-0.01,0.01-0.02l-1.26,0.07c0.02-0.05,0.05-0.09,0.08-0.14
			l1.22,0.01c0.01-0.03,0.03-0.05,0.05-0.07c0.03-0.02,0.06,0,0.08-0.01c0.03-0.02,0.04-0.08,0.05-0.11c0-0.03-0.01-0.05-0.01-0.08
			c0-0.01,0.01-0.03,0.01-0.04l-1.27,0.05c0.03-0.04,0.05-0.09,0.07-0.13l1.19,0.01c0.02-0.08,0.07-0.13,0.09-0.21
			c0.01-0.03,0.02-0.06,0.03-0.09l-1.15,0.04c0.03-0.04,0.06-0.09,0.09-0.13l1.09,0.01c0.05-0.08,0.06-0.19,0.1-0.27l-1.04,0.04
			c0.04-0.05,0.08-0.1,0.12-0.15l0.98,0.01c0.01-0.01,0.01-0.02,0.02-0.03c0.02-0.06,0.05-0.11,0.03-0.18
			c0-0.02-0.01-0.03-0.02-0.04l-0.82,0.03c0.04-0.04,0.07-0.09,0.11-0.13l0.68,0.01c0-0.06,0.03-0.13,0.04-0.19
			c-0.09-0.04-0.16,0.19-0.29,0.16c0.05-0.02,0.19-0.08,0.18-0.14c-0.05-0.01-0.09-0.03-0.1-0.08l-0.29,0.01
			c0.05-0.05,0.09-0.09,0.14-0.13l0.19,0c0.01-0.01,0.01-0.03,0.02-0.03c0.06-0.09,0.18-0.2,0.3-0.16c0.01-0.02,0.02-0.03,0.03-0.04
			l-0.28,0.01c0.05-0.05,0.11-0.09,0.17-0.13l0.16,0c0.01-0.04,0.05-0.08,0.1-0.06c0,0.01,0,0.01,0,0.02
			c0.1,0.05,0.18-0.13,0.23-0.2l-0.16,0c0.07-0.05,0.14-0.09,0.21-0.13l3.56,0.02l-3.27,0.1c-0.01,0.04-0.04,0.08-0.08,0.08
			c0,0.04,0.03,0.13,0.05,0.18l1.01,0.01c0.03,0.01,0.06,0,0.09,0.01c0.04,0.01,0.08,0.04,0.12,0c0,0,0-0.01,0-0.01l0.15,0
			c0.01-0.01,0.03-0.01,0.04,0l-0.01-0.01c0.01,0,0.02,0.01,0.02,0.01l0.27,0c0,0.01-0.01,0.02-0.02,0.03
			c-0.01,0.01-0.01,0.02-0.02,0.02l-1.61,0.04c-0.01,0.04-0.07,0.07-0.09,0.1c-0.01,0.03-0.02,0.07-0.01,0.1
			c0.04-0.03,0.18,0.02,0.22,0.06l0.26,0c0.01-0.05,0.02-0.07,0.05-0.09c0.03-0.02,0.07-0.04,0.1-0.05
			c0.03-0.02,0.05-0.03,0.08-0.04c0.03-0.02,0.01-0.02,0.04-0.03c0.03,0,0.07,0.02,0.11,0.03c-0.01,0.04-0.02,0.08-0.04,0.11
			c-0.03,0.04-0.04,0.03-0.09,0.03c-0.01,0-0.02,0-0.03,0c0,0,0,0,0,0c0.04,0,0.04,0.01,0.05,0.03c0,0,0,0,0,0l0.6,0
			c0,0.01,0.01,0.02,0.01,0.03l-0.57,0.02c-0.01-0.01-0.01-0.02-0.03-0.03c0,0.01-0.01,0.01,0.01,0.03
			c0.01,0.01,0.05,0.02,0.06,0.02c0,0.01,0,0.03,0,0.04c0.04,0.01,0.14-0.05,0.16-0.03c0.06,0.05-0.07,0.09-0.09,0.1
			c-0.06,0.03-0.09,0.07-0.12,0.12c-0.01,0.01-0.01,0.03-0.02,0.04c-0.01,0.02-0.02,0.03-0.02,0.05c-0.01,0.02-0.01,0.08-0.02,0.1
			c-0.01,0.03-0.01,0.01-0.03,0.02c-0.02,0.02-0.06,0.05-0.1,0.02c-0.02-0.02,0-0.04-0.02-0.06c-0.02-0.02-0.07-0.03-0.1-0.04
			c-0.04-0.01-0.06-0.02-0.09-0.04c0,0-0.01,0.01-0.01,0.01c0,0.01,0.01,0.01,0.01,0.01l-0.12,0c-0.02,0.01-0.05,0.03-0.02,0.08
			c0.02,0.04,0.03,0.03,0.06,0.05c0.02,0.01,0.04,0.06,0.04,0.06c0.06,0.04,0.06-0.04,0.1-0.05c0.06-0.01,0.07,0.07,0.07,0.1
			c0,0.02,0,0.03,0,0.05l0.2,0c0.01-0.03,0.03-0.06,0.07-0.02c0,0.01-0.01,0.01-0.01,0.02l0.1,0c0.01-0.06-0.02-0.08,0.04-0.13
			c0.04-0.03,0.12-0.08,0.17-0.05c-0.04,0.02-0.04,0.06-0.05,0.1c-0.01,0.05-0.02,0.06-0.04,0.08l0.06,0l-0.07,0
			c-0.01,0.01-0.01,0.01-0.02,0.02c-0.03,0.03-0.03,0.02-0.05,0.07c-0.01,0.03-0.02,0.06-0.01,0.09c0.02,0,0.04,0.01,0.05,0.01
			c-0.01,0.06-0.07,0.09-0.08,0.16c0.06,0,0.09,0.02,0.13-0.03c0.03-0.03,0.06-0.13,0.12-0.13c0.05,0,0.04,0.02,0.05,0.05
			c0,0,0.01,0.07,0.01,0.07c-0.01,0.06-0.04,0.03-0.08,0.06c-0.04,0.03-0.03,0.07-0.05,0.11c-0.05-0.01-0.2,0.11-0.15-0.05
			c-0.09-0.02-0.09,0.05-0.13,0.09c-0.07,0.07-0.17,0.04-0.25,0.07c-0.05,0.01-0.08,0.04-0.13,0.06c-0.09,0.03-0.24,0.06-0.3,0.13
			c-0.02,0.02-0.05,0.1-0.04,0.14c0,0.01,0.03,0.01,0.03,0.03c0,0.04-0.02,0.05-0.04,0.08c-0.04,0.08,0.03,0.11,0.06,0.19
			c0.02,0.06,0.02,0.12,0.05,0.18c0.03,0.05,0.09,0.06,0.07,0.13c-0.02,0.06-0.07,0.09-0.08,0.15c-0.01,0.04-0.01,0.16,0.04,0.18
			c0.1,0.03,0.16-0.18,0.22-0.22c-0.01,0-0.01-0.01-0.02-0.01c0.02-0.02,0.06-0.01,0.08-0.02c0.05-0.03,0.07-0.07,0.09-0.11
			c0.02-0.04,0.04-0.09,0.05-0.13c0.01-0.02,0-0.07,0.01-0.09c0.02-0.04,0.08-0.03,0.12-0.07c0.02-0.02,0.03-0.05,0.04-0.07
			c0.03-0.04,0.04-0.08,0.06-0.13c0.06,0.04,0.11,0.08,0.12,0.13c0,0.05-0.02,0.1,0.07,0.1c-0.01,0.01-0.01,0.02-0.02,0.03
			c0.01,0.02,0.01,0.03,0.03,0.04c-0.01,0.08-0.14,0.17-0.06,0.26c0.09,0.09,0.13-0.1,0.2-0.07c-0.01,0.06,0,0.09,0,0.15
			c0,0.06-0.03,0.12-0.05,0.16c-0.04,0.08-0.04,0.09,0.01,0.16c0.03,0.03,0.13,0.13,0.03,0.15c0,0.05,0.06,0.07,0.07,0.11
			c0.01,0.04-0.06,0.1-0.09,0.1c-0.03,0-0.05-0.02-0.08-0.02c-0.02,0.01-0.02,0.03-0.03,0.04c-0.03,0.02-0.01,0.03-0.05,0.03
			c-0.02,0-0.06-0.02-0.07-0.03c-0.04-0.02-0.07-0.05-0.11-0.07c-0.06-0.03-0.09-0.02-0.15-0.03c-0.09-0.01-0.29,0.01-0.3,0.14
			c0.07,0.03,0.1-0.01,0.16-0.03c0.05-0.02,0.12-0.02,0.18,0.02c0,0.01,0,0.02-0.01,0.03c-0.05-0.01-0.09-0.02-0.14-0.01
			c0.01,0.04,0.03,0.07,0.03,0.11c0.01,0.03,0.01,0.06,0.02,0.1c0.02,0.04,0.08,0.14,0.13,0.05c0.01,0,0.03,0,0.04,0.01
			c0,0.08-0.09,0.05-0.14,0.05c-0.03,0-0.06-0.02-0.09-0.02c-0.03,0-0.03,0.03-0.06,0.02c0.01-0.03,0.05-0.07,0.09-0.06
			c0.03-0.13-0.18-0.05-0.23-0.05c-0.06,0-0.18,0.03-0.17,0.12c-0.05-0.01-0.11-0.04-0.14-0.04c-0.07,0.01-0.04,0.13-0.12,0.09
			c0,0,0.01,0.01,0.01,0.01c-0.01,0-0.01-0.01-0.02-0.01c0,0.04,0,0.11-0.06,0.08c0.01-0.03,0.02-0.07,0.02-0.1
			c-0.01,0-0.02,0-0.02,0c-0.03,0.07-0.04,0.17-0.08,0.23c-0.05,0.09-0.19,0.07-0.27,0.1c-0.13,0.04-0.14,0.31-0.17,0.43
			c-0.09,0-0.03-0.16-0.03-0.21c0.01-0.04,0.01-0.07,0-0.11c-0.02-0.04-0.08-0.06-0.07-0.1c-0.06-0.02-0.09-0.07-0.14-0.1
			c-0.01-0.01-0.03-0.06-0.05-0.02c-0.01,0.02,0.01,0.04,0.03,0.05c-0.02,0.06-0.09-0.03-0.11-0.06c-0.01-0.02-0.09-0.17-0.1-0.05
			c-0.1-0.02-0.14-0.02-0.18,0.07l0.11,0l-0.11,0.01c0,0,0,0,0,0c-0.03,0.07-0.09,0.12-0.09,0.2c0,0.04-0.01,0.09-0.02,0.14l0.2,0
			l-0.2,0.01c0,0.04-0.01,0.08,0,0.12c0.02,0.08,0.05,0.18,0.15,0.19c0.02-0.05,0.12-0.14,0.17-0.1c-0.01,0.06-0.05,0.16-0.08,0.21
			c-0.02,0.03-0.04,0.03-0.04,0.08c0.07,0.04,0.17,0.09,0.18,0.16c0.02,0.13-0.11,0.22-0.07,0.35c0.01,0.03,0.05,0.09,0.08,0.11
			c0.03,0.02,0.07,0.01,0.1,0.03c0.03,0.02,0.07,0.14,0.04,0.17c0.03-0.03,0.06-0.09,0.1-0.11c0.06-0.04,0.13,0,0.2-0.02l0.01,0
			c0,0.05-0.06,0.08-0.07,0.14c0,0.02,0,0.06,0.03,0.06c0.03,0,0.03-0.06,0.05-0.08c0.02-0.03,0.01-0.04,0.05-0.02
			c0.02,0.01,0.03,0.04,0.04,0.05c0.04,0.04,0.13,0.07,0.15,0.12c0.05,0.02,0.1,0,0.14,0.05c0.03,0.04,0.03,0.1,0.06,0.14
			c0.01,0.03,0.03,0.03,0.04,0.06c0.01,0.03,0.01,0.06,0.02,0.08c0.02,0.04,0.07,0.11,0.1,0.14c0.05,0.05,0.14,0.07,0.2,0.12
			c0.07,0.06,0.13,0.18,0.08,0.27c-0.02,0.04-0.13,0.09-0.07,0.13c0.03,0.02,0.14-0.05,0.12,0.05c0.06,0.03,0.23,0.04,0.25,0.12
			c0.01,0.02-0.02,0.05-0.01,0.07c0.01,0.03,0.05,0.04,0.05,0.07c0,0,0.01-0.03,0.01-0.03c0.03,0.02,0.07,0.01,0.1,0.03
			c0.04,0.02,0.08,0.06,0.11,0.09c0.06,0.06,0.08,0.14,0.16,0.16c0,0.05,0.03,0.13,0.01,0.18c-0.02,0.04-0.1,0.08-0.15,0.11
			c-0.11,0.06-0.19,0.11-0.23,0.25c-0.01,0.04,0,0.08-0.02,0.12c-0.02,0.04-0.05,0.03-0.08,0.06c-0.06,0.05-0.05,0.06-0.12,0.06
			c-0.07,0-0.16-0.01-0.23,0.01c-0.11,0.02-0.08,0.07-0.11,0.15c-0.03,0.07-0.13,0.11-0.19,0.16c0,0-0.01,0-0.01,0l0.4,0l-0.46,0.02
			c-0.01,0-0.02,0-0.03,0l-0.19,0.01c0,0.01,0,0.01,0,0.01c0.01,0.04,0.05,0.05,0.02,0.09c-0.05,0.07-0.16-0.02-0.22-0.03
			c-0.02,0.05-0.01,0.09-0.05,0.07c-0.03-0.01-0.06-0.09-0.09-0.02c-0.02,0.04,0.03,0.08,0.02,0.11c-0.01,0.06-0.05,0.05-0.07,0.09
			c0,0,0,0,0,0l1.51,0.01L293.62,111.84z M294.13,112.15c0.03,0.02,0.06,0.04,0.09,0.06l1.39-0.05L294.13,112.15z M304.27,110.5
			c0,0.01,0,0.03,0,0.04c0.04,0.01,0.04,0,0.05-0.04L304.27,110.5z M304.1,111.25c0.01,0.01,0.02,0.01,0.03,0.01c0,0,0,0,0,0
			L304.1,111.25z M303.97,108.16l0.22,0c-0.02-0.05-0.05-0.07-0.11-0.03c-0.01-0.03-0.03-0.04-0.04-0.06
			C304,108.1,303.98,108.13,303.97,108.16 M305.07,109.68c0,0.02-0.01,0.04-0.01,0.05c-0.01,0.03-0.02,0.05-0.02,0.08l-0.98-0.08
			c0,0.03,0,0.07-0.02,0.11c-0.05-0.02-0.05-0.06-0.04-0.11l-0.53-0.04c0,0,0,0.01,0,0.01c-0.02,0.05-0.02,0.1,0,0.17
			c0.02,0.07,0.04,0.12,0.05,0.17c0,0.01,0,0.03,0,0.04c0,0.02-0.01,0.04-0.02,0.07c-0.03,0.07-0.02,0.12-0.11,0.13
			c-0.11,0.01-0.09-0.1-0.18-0.11c-0.02,0.05-0.04,0.14-0.04,0.23c0,0.01,0,0.02,0,0.03c0,0.05,0,0.09,0.02,0.12
			c0.03,0.07,0.11,0.12,0.07,0.2l0.2,0c0.04-0.09,0.16-0.21,0.24-0.3l-0.53-0.04c0-0.01,0-0.02,0-0.03l0.58,0.01
			c0.01-0.02,0.02-0.04,0.03-0.05l-0.01,0.03c0,0,0,0.01,0,0.02l1.08,0.03c-0.01,0.04-0.03,0.08-0.05,0.12l-0.31-0.02
			c0.01,0.02,0.01,0.03,0.02,0.05c0.01,0.04,0.03,0.06-0.01,0.09c-0.02,0.02-0.12,0.06-0.09,0c-0.09,0.03-0.28-0.06-0.21-0.17
			l-0.43-0.03c0,0.08-0.02,0.2-0.06,0.29l1,0.01v0.01c-0.02,0.04-0.03,0.09-0.05,0.13l-0.98-0.07c-0.04,0.07-0.1,0.11-0.17,0.08
			c-0.05-0.02-0.06-0.06-0.06-0.1l-0.21-0.02c0,0,0,0,0,0c0,0,0,0,0,0l-0.14-0.01c0.05,0.04,0.1,0.07,0.1,0.1
			c-0.02,0.15,0,0.21,0.05,0.23l0.8,0.01c0,0,0.01,0,0.01,0c0.01,0,0.02,0,0.03,0l0.47,0.01c-0.02,0.05-0.05,0.09-0.07,0.13
			l-0.25-0.02c0,0,0,0,0,0c-0.01,0.04,0.01,0.07,0.02,0.11c0.01,0.04-0.02,0.07-0.04,0.11c-0.01,0.02-0.02,0.04-0.03,0.05l0.16,0
			l0,0.01c-0.02,0.04-0.05,0.08-0.07,0.12l-0.17-0.01c-0.01,0.01-0.02,0.03-0.03,0.04c-0.04,0.07-0.09,0.13-0.13,0.2l0.17,0
			c-0.03,0.04-0.06,0.09-0.09,0.13l-0.16-0.01c-0.04,0.06-0.08,0.13-0.14,0.15c-0.07,0.02-0.04-0.04-0.04-0.07
			c-0.06,0.05-0.12,0-0.18,0.03c-0.07,0.03-0.1,0.08-0.15,0.13c-0.01,0.01-0.01,0.01-0.02,0.02l0.5,0.01v0
			c-0.04,0.04-0.07,0.09-0.11,0.13l-0.5-0.03c-0.04,0.05-0.11,0.1-0.18,0.09c-0.04-0.01-0.04-0.03-0.03-0.07
			c0-0.01,0.01-0.02,0.01-0.04l-0.43-0.03c-0.01-0.02-0.03-0.04-0.04-0.06c0,0-0.03,0.02-0.06,0.05l-1.73-0.11l2.29,0.04
			c0.03-0.07,0.07-0.14,0.1-0.21c0.01-0.03,0.03-0.05,0.04-0.08l-1.84-0.12l1.9,0.03c0.01-0.02,0.02-0.03,0.04-0.05
			c0.09-0.08,0.18-0.15,0.28-0.22l-1.78-0.13l1.88,0.04c0.06-0.06,0.11-0.12,0.16-0.18c0.01-0.02,0.02-0.03,0.04-0.04
			c0.04-0.01,0.07,0,0.1-0.05c0,0,0,0,0,0l-0.57-0.04c-0.02,0.01-0.03,0.02-0.05,0.03c-0.06,0.01-0.1-0.02-0.15-0.04l-1.09-0.07
			l1.02,0.01c-0.01-0.02-0.02-0.04-0.03-0.06c-0.02-0.07-0.04-0.15-0.07-0.22c-0.01-0.02-0.02-0.04-0.03-0.06l-0.62-0.04l0.59,0.01
			c-0.01-0.01-0.02-0.02-0.02-0.03c0-0.02,0.02-0.03,0.03-0.05l0,0c0,0.03,0.03,0.05,0.06,0.08l0.17,0
			c-0.02-0.11-0.06-0.22-0.09-0.32c0,0,0-0.01,0-0.01l-0.58-0.04l0.57,0.01c0,0,0-0.01,0-0.01c-0.01-0.07,0.03-0.23-0.01-0.32
			c0-0.01,0-0.01-0.01-0.01l-0.26-0.02l0.25,0c-0.02-0.02-0.05-0.03-0.09-0.03c0.03-0.09,0.02-0.22-0.07-0.29
			c-0.1-0.08-0.14,0.04-0.26,0.02c-0.06,0.15-0.18,0.23-0.27,0.35c-0.08,0.12-0.13,0.2-0.18,0.36c-0.03,0.07-0.08,0.2-0.15,0.1
			c-0.02-0.03,0.01-0.18,0-0.22c-0.02-0.08-0.08-0.13-0.11-0.21c-0.03-0.08-0.01-0.24-0.06-0.29c-0.03,0.06-0.04,0.06-0.1,0.05
			c0.02-0.01,0.04-0.05,0.07-0.06c-0.01-0.06-0.12-0.14-0.17-0.17c-0.1-0.06-0.09-0.03-0.2-0.03c-0.08,0-0.16-0.02-0.24-0.04
			c-0.07-0.02-0.15-0.01-0.21-0.04c-0.1-0.04-0.18-0.34-0.3-0.27c-0.15,0.08,0.09,0.37,0.11,0.45c0.15,0.06,0.15-0.16,0.26-0.13
			c0.02,0.1,0.1,0.12,0.13,0.2c0.04,0.09,0,0.11-0.07,0.19c-0.17,0.19-0.49,0.31-0.74,0.37c-0.2,0.05-0.11-0.1-0.16-0.26
			c-0.01-0.05-0.04-0.11-0.06-0.15c-0.02-0.04-0.07-0.05-0.08-0.11c-0.01-0.03,0.02-0.06,0.02-0.09c-0.03-0.18-0.19-0.32-0.19-0.51
			c0-0.13,0.16-0.32,0.1-0.43c-0.03-0.05-0.17-0.06-0.23-0.08c-0.07-0.02-0.18-0.01-0.22-0.1c-0.04-0.08,0.02-0.2,0.12-0.17
			c0-0.02,0.01-0.03,0.01-0.05c-0.12-0.04-0.21,0.03-0.34-0.01c-0.03,0.07,0.01,0.13-0.01,0.2c-0.12,0.01-0.15-0.04-0.16-0.17
			c-0.02-0.13-0.01-0.16-0.09-0.27c-0.06-0.09-0.14-0.28-0.29-0.25c-0.05,0.17,0.15,0.36,0.26,0.47c-0.02,0-0.05,0.02-0.08,0.01
			c0.03,0.06,0.04,0.17-0.07,0.13c0.01-0.04,0.01-0.09,0.03-0.14c-0.09-0.03-0.18-0.19-0.21-0.26c-0.06-0.14-0.05-0.17-0.23-0.14
			c-0.05,0.01-0.12,0-0.17,0.02c-0.06,0.02-0.07,0.04-0.12,0.08c-0.12,0.1-0.17,0.11-0.21,0.26c-0.08,0.01-0.15,0.02-0.24,0.02
			c-0.1,0-0.05,0.04-0.13-0.04c-0.09-0.09-0.12-0.29-0.04-0.42c0.11-0.18,0.26,0.08,0.41,0.02c0.14-0.06,0.06-0.37-0.06-0.4
			c0.11-0.04,0.21-0.02,0.32-0.07c0.08-0.03,0.25-0.18,0.33-0.16c0.01-0.11,0.11-0.07,0.19-0.08c0.02-0.07-0.01-0.26,0.03-0.3
			c0.03-0.03,0.08-0.04,0.1,0.01c0.03,0.07-0.05,0.07-0.06,0.11c-0.09,0.33,0.37,0.1,0.44,0.22c0.13,0.01,0.16-0.16,0.22-0.24
			c0.16,0.11,0.08-0.13,0.1-0.19c0.06,0.02,0.31,0.05,0.31-0.04c0.01-0.12-0.25-0.03-0.31-0.06c-0.29-0.13,0.15-0.41,0.12-0.58
			c-0.14-0.08-0.16,0.05-0.21,0.13c-0.06,0.1-0.23,0.14-0.22,0.28c0.01,0.13,0.08,0.12,0.01,0.25c-0.05,0.08-0.12,0.13-0.14,0.23
			c-0.07-0.01-0.09,0.05-0.16,0.03c0.04-0.12,0-0.23-0.04-0.34c-0.03,0-0.08,0-0.11,0.02c-0.03,0.09-0.17,0.04-0.2-0.04
			c-0.02-0.05,0.04-0.23,0.06-0.28c0.05-0.12,0.11-0.1,0.2-0.16c0.08-0.05,0.14-0.13,0.2-0.2c0.11-0.12,0.23-0.33,0.36-0.42
			c0.09-0.06,0.38-0.15,0.48-0.05c-0.02,0.03-0.02,0.06-0.03,0.08c0.14,0.04,0.16,0.02,0.28,0.11c0.06,0.05,0.19,0.12,0.24,0.19
			c0.06,0.09,0.04,0.22-0.08,0.2c-0.08-0.01-0.19-0.1-0.29-0.12c0.04,0.05,0.08,0.33,0.19,0.33c-0.03-0.11,0.07-0.11,0.14-0.08
			c0.01-0.03,0.02-0.1,0.05-0.12c0.02-0.02,0.1-0.02,0.1-0.03c0.05-0.08-0.02-0.14,0.03-0.24c0.12,0.01,0.04,0.17,0.11,0.21
			c0.02-0.1,0.17-0.24,0.27-0.2c0,0.01,0,0.02,0,0.04c0.09,0,0.4-0.08,0.24-0.21c0.13-0.07,0.28,0.18,0.38,0.2
			c0.06-0.14-0.06-0.18-0.1-0.31c-0.03-0.09-0.03-0.2,0.03-0.29c0.12,0.02,0.11,0.29,0.14,0.38c0.05,0.16,0.08,0.21,0.04,0.37
			c0.02,0.01,0.05,0.01,0.08,0c0.03-0.12,0.03-0.22,0-0.33c-0.02-0.09-0.12-0.19-0.08-0.3c0.04,0.03,0.08,0.09,0.14,0.09
			c0-0.02,0.01-0.03,0.01-0.05c-0.06-0.02-0.07-0.07-0.04-0.12c0.09,0.01,0.09,0.1,0.19,0.1c0.01-0.02,0.02-0.05,0.02-0.07
			c-0.09-0.02-0.12-0.1-0.17-0.17c0.06-0.04,0.12-0.04,0.17-0.08c-0.01-0.02-0.01-0.04-0.02-0.05c0,0,0,0,0,0c0,0,0-0.01,0-0.01
			l-0.06,0l0.06,0c-0.03-0.12,0.08-0.21,0.17-0.3c0.02-0.02,0.05-0.02,0.08-0.04c0.01,0,0.01,0,0.02-0.01c0,0,0-0.01,0-0.01
			c0,0-0.01,0.01-0.02,0.01l-0.6-0.04l0.61,0.01c0-0.03-0.01-0.06,0-0.07c0.04-0.06,0.14-0.07,0.14,0.03
			c0.02,0.01,0.04,0.01,0.06,0.01c0.01-0.02,0.04-0.05,0.05-0.07c0.06,0.01,0.1,0.06,0.11,0.12c0,0.02,0.01,0.03,0.01,0.05
			c0.02,0.16-0.02,0.36,0.07,0.33c0-0.08,0.26-0.19,0.24-0.07c0.09,0.03,0.15-0.02,0.15-0.11c0.05,0.02,0.11,0.04,0.15,0.07
			c0.02,0.02,0.03,0.07,0.05,0.12c0.01,0.03,0.02,0.05,0.03,0.05c0.04,0.02,0.07-0.01,0.09-0.05c0.04-0.07,0.06-0.18,0.08-0.21
			c0.02-0.04,0.04-0.05,0.05-0.07c0.04-0.03,0.07-0.01,0.11,0.01c0.03,0.02,0.07,0.03,0.12,0.04c0.02,0,0.03-0.01,0.05-0.02
			c0.01-0.01,0.02-0.02,0.04-0.02c0.02,0,0.03,0.01,0.04,0.03c0.01,0.01,0.01,0.01,0.02,0.02c0.04,0,0.11,0.01,0.16,0.02
			c0-0.01,0.01-0.01,0.01-0.02c0.02-0.02,0.04-0.04,0.05-0.05l0.07-0.02c0.19,0.32,0.36,0.65,0.49,1l-0.04,0l-0.15-0.12
			c-0.02-0.01-0.03-0.02-0.04-0.03c0-0.01-0.01-0.01-0.01-0.02l-0.08-0.01c0,0-0.01,0.01-0.01,0.01c-0.04,0.03-0.06,0.1-0.06,0.15
			c0,0.03,0.01,0.06,0.01,0.09c0,0.02,0.01,0.05,0,0.08c0,0,0,0,0,0c0.01-0.04,0.01-0.06,0-0.09l0.42,0.01
			c0.02,0.05,0.03,0.09,0.05,0.14l-0.47-0.04c0,0,0,0.01-0.01,0.01c-0.02,0.05-0.06,0.09-0.08,0.13c-0.02,0.03-0.04,0.07-0.06,0.11
			l0.7,0.01c0.01,0.05,0.03,0.09,0.04,0.14l-0.78-0.06c0,0,0,0.01,0,0.01c-0.02,0.06-0.02,0.13-0.01,0.2
			c0.01,0.03,0.01,0.06,0.02,0.09c0.01,0.02,0.01,0.05,0.02,0.07c0,0,0,0.01,0,0.01c0.01,0.06-0.01,0.1,0.06,0.13
			c0.02-0.09,0.09-0.1,0.13-0.03c0.02,0.03,0.02,0.12,0.03,0.19c0,0.04,0,0.07,0,0.09c0,0,0,0,0,0c0.01,0.11,0,0.19-0.02,0.27
			l0.75,0.02c0.01,0.05,0.01,0.09,0.02,0.14l-0.55-0.05c0,0.06-0.02,0.1-0.09,0.1c0-0.04,0-0.08-0.01-0.11l-0.14-0.01
			c0,0,0,0.01,0,0.01c-0.01,0.03-0.02,0.06-0.03,0.09c-0.02,0.07-0.01,0.14,0,0.21c0,0.03,0,0.06,0,0.08c0,0.01,0,0.01,0,0.02
			c-0.02,0.08-0.1,0.11-0.11,0.18c-0.01,0.03,0,0.06,0.01,0.1c0.01,0.02,0.01,0.05,0.02,0.07c0.02,0.06,0.04,0.12,0.02,0.17
			c-0.06-0.01-0.08-0.1-0.1-0.18c0,0,0-0.01,0-0.01l-0.26-0.02c0,0,0,0.01,0,0.01c-0.02,0.1,0.01,0.21,0.05,0.32
			c0.01,0.02,0.01,0.04,0.02,0.05c0.02,0.07,0.04,0.13,0.04,0.19c0,0.06,0,0.11-0.01,0.16c0,0.01,0,0.01,0,0.02
			c0-0.01,0.01-0.02,0.01-0.03l1.15,0.03c-0.01,0.04-0.01,0.09-0.01,0.13l-1.15-0.11c0,0,0,0.01,0,0.01
			c-0.02,0.1-0.07,0.19-0.13,0.29l1.24,0.02c-0.01,0.04-0.02,0.09-0.02,0.13l-1.25-0.1c0,0-0.01,0.01-0.01,0.01
			c-0.11,0.12-0.29,0.18-0.36,0.3l0.53,0.01c0-0.02,0.01-0.03,0.01-0.04c0,0.02,0.01,0.03,0.01,0.04L305.07,109.68z M291.38,109.99
			l0.36-0.02c0.05-0.04,0.11-0.07,0.17-0.1l-0.57-0.01C291.35,109.9,291.37,109.95,291.38,109.99 M303.52,110.07l0.55,0.04
			c-0.02,0.03-0.04,0.06-0.05,0.1c0.07,0.01,0.11-0.04,0.13-0.09l0.79,0.06c0.01-0.04,0.03-0.09,0.04-0.13l-1.45-0.03
			C303.52,110.04,303.52,110.05,303.52,110.07 M291.05,108c0,0.04,0,0.09,0,0.13l1.99-0.12L291.05,108z M291.06,108.38
			c0,0.04,0,0.09,0.01,0.13l2.01-0.13L291.06,108.38z M304.01,108.58l1.2,0.1c0-0.04,0.01-0.09,0.01-0.13l-1.23-0.02
			C304,108.55,304,108.56,304.01,108.58 M291.1,108.74c0.01,0.04,0.01,0.09,0.02,0.13l2.02-0.11L291.1,108.74z M304.45,107.12
			l0.69,0.06c-0.01-0.05-0.01-0.09-0.02-0.14l-0.68-0.02C304.45,107.07,304.45,107.1,304.45,107.12 M304.38,107.86l0.17,0.01
			c-0.02,0.09-0.03,0.19-0.07,0.27c0,0.01-0.01,0.01-0.01,0.02l-0.2,0c0.01,0.02,0.01,0.05,0.02,0.07l0.12,0.01
			c-0.03,0.04-0.07,0.09-0.09,0.14c0.09,0.03,0.14-0.06,0.19-0.13l0.72,0.06c0-0.05,0-0.09,0-0.14l-0.61-0.01
			c0.01-0.1,0.03-0.21-0.02-0.29l0.63,0.05c0-0.05,0-0.09,0-0.14c-0.55-0.01-0.76-0.02-0.84-0.02
			C304.38,107.81,304.38,107.84,304.38,107.86 M304.23,106.73c0,0,0,0.01,0,0.01l0.85,0.08c-0.01-0.05-0.02-0.09-0.03-0.14
			l-0.83-0.02C304.22,106.68,304.23,106.7,304.23,106.73 M302.71,104.79l0.92,0.07c0.04-0.03,0.07-0.01,0.11,0.01l0.17,0.01
			c0.01-0.01,0.02-0.02,0.04-0.02c0.02,0,0.03,0.01,0.04,0.03l0.19,0.01c0.02-0.02,0.04-0.04,0.05-0.05l0.07-0.02
			c-0.01-0.02-0.02-0.04-0.03-0.06l-1.55-0.03C302.7,104.75,302.71,104.77,302.71,104.79 M303.4,105.18
			c0.04,0.02,0.07-0.01,0.09-0.05l-0.12,0C303.38,105.16,303.39,105.18,303.4,105.18 M295.58,103.57c0.01-0.01,0.01-0.01,0.01-0.02
			l-0.13,0c0,0.01-0.01,0.02-0.01,0.02L295.58,103.57z M295.12,103.59l0.19-0.01c0-0.01,0-0.02,0-0.03l-0.17,0
			C295.13,103.56,295.12,103.57,295.12,103.59 M303.52,103.78c-0.04-0.05-0.08-0.09-0.12-0.14l-3.34-0.05L303.52,103.78z
			 M301.85,104.04c-0.08,0.15,0.13,0.27,0.24,0.32c0.03-0.07-0.14-0.29-0.23-0.32l1.97,0.11c-0.04-0.05-0.07-0.09-0.1-0.14
			l-2.98-0.03L301.85,104.04z M302.22,102.63v-0.02c-0.06-0.04-0.13-0.08-0.19-0.12l-3.7-0.03L302.22,102.63z M302.69,102.97
			c-0.06-0.05-0.12-0.09-0.18-0.14l-3.45-0.03L302.69,102.97z M299.77,103.17l3.21,0.05c0.05,0.04,0.1,0.09,0.14,0.14L299.77,103.17
			z"/>
	</g>
	<g>
		<path class="st21" d="M291.84,100.57h0.12c0.12,0,0.2-0.07,0.2-0.17c0-0.11-0.08-0.16-0.2-0.16c-0.05,0-0.09,0-0.11,0.01V100.57z
			 M291.73,100.17c0.06-0.01,0.14-0.02,0.22-0.02c0.12,0,0.2,0.02,0.25,0.07c0.04,0.04,0.07,0.1,0.07,0.17
			c0,0.11-0.07,0.19-0.16,0.22v0c0.07,0.02,0.11,0.09,0.13,0.18c0.03,0.12,0.05,0.21,0.07,0.24h-0.12c-0.01-0.03-0.03-0.1-0.06-0.21
			c-0.03-0.12-0.07-0.17-0.18-0.17h-0.11v0.38h-0.11V100.17z"/>
	</g>
	<polygon class="st21" points="292.88,100.63 292.54,100.63 292.54,100.94 292.92,100.94 292.92,101.03 292.43,101.03 
		292.43,100.16 292.9,100.16 292.9,100.26 292.54,100.26 292.54,100.53 292.88,100.53 	"/>
	<g>
		<path class="st21" d="M293.49,100.67l-0.09-0.25c-0.02-0.06-0.03-0.11-0.05-0.16h0c-0.01,0.05-0.03,0.1-0.04,0.16l-0.09,0.25
			H293.49z M293.2,100.76l-0.09,0.27H293l0.3-0.87h0.13l0.3,0.87h-0.12l-0.09-0.27H293.2z"/>
	</g>
	<polygon class="st21" points="293.85,100.16 293.97,100.16 293.97,100.94 294.34,100.94 294.34,101.03 293.85,101.03 	"/>
	<polygon class="st21" points="294.54,100.25 294.27,100.25 294.27,100.16 294.92,100.16 294.92,100.25 294.65,100.25 
		294.65,101.03 294.54,101.03 	"/>
	<g>
		<path class="st21" d="M295.08,100.6c0,0.19,0.1,0.35,0.28,0.35c0.18,0,0.28-0.16,0.28-0.36c0-0.17-0.09-0.36-0.28-0.36
			C295.18,100.24,295.08,100.41,295.08,100.6 M295.76,100.59c0,0.3-0.18,0.46-0.41,0.46c-0.23,0-0.39-0.18-0.39-0.44
			c0-0.28,0.17-0.46,0.4-0.46C295.61,100.14,295.76,100.33,295.76,100.59"/>
		<path class="st21" d="M296.02,100.57h0.12c0.12,0,0.2-0.07,0.2-0.17c0-0.11-0.08-0.16-0.2-0.16c-0.05,0-0.09,0-0.11,0.01V100.57z
			 M295.91,100.17c0.06-0.01,0.14-0.02,0.22-0.02c0.12,0,0.2,0.02,0.25,0.07c0.04,0.04,0.07,0.1,0.07,0.17
			c0,0.11-0.07,0.19-0.16,0.22v0c0.07,0.02,0.11,0.09,0.13,0.18c0.03,0.12,0.05,0.21,0.07,0.24h-0.12c-0.01-0.03-0.03-0.1-0.06-0.21
			c-0.03-0.12-0.07-0.17-0.18-0.17h-0.11v0.38h-0.11V100.17z"/>
		<path class="st21" d="M296.59,100.89c0.05,0.03,0.12,0.06,0.2,0.06c0.11,0,0.18-0.06,0.18-0.15c0-0.08-0.05-0.13-0.16-0.17
			c-0.14-0.05-0.23-0.13-0.23-0.25c0-0.14,0.11-0.24,0.28-0.24c0.09,0,0.15,0.02,0.19,0.04l-0.03,0.09
			c-0.03-0.02-0.09-0.04-0.16-0.04c-0.12,0-0.16,0.07-0.16,0.13c0,0.08,0.05,0.12,0.17,0.17c0.15,0.06,0.22,0.13,0.22,0.26
			c0,0.13-0.1,0.25-0.3,0.25c-0.08,0-0.18-0.03-0.22-0.06L296.59,100.89z"/>
		<path class="st15" d="M298.24,108.1c-0.04,0-0.09,0.01-0.12,0.03c-0.04,0.02-0.07,0.05-0.1,0.08c-0.02,0.03-0.04,0.05-0.05,0.08
			c-0.01,0.03-0.01,0.06-0.01,0.09c0,0.04,0.01,0.07,0.02,0.11c0.01,0.03,0.03,0.06,0.06,0.09c0.03,0.03,0.06,0.05,0.09,0.06
			c0.03,0.01,0.07,0.02,0.11,0.02c0.04,0,0.07-0.01,0.11-0.02c0.03-0.01,0.07-0.04,0.09-0.06c0.03-0.03,0.05-0.06,0.06-0.09
			c0.01-0.03,0.02-0.07,0.02-0.11c0-0.04-0.01-0.09-0.03-0.12c-0.02-0.04-0.05-0.07-0.08-0.1c-0.02-0.02-0.05-0.03-0.08-0.04
			C298.31,108.11,298.27,108.1,298.24,108.1 M298.49,108.39c0,0.03-0.01,0.06-0.02,0.09c-0.01,0.03-0.03,0.06-0.05,0.08
			c-0.02,0.02-0.05,0.04-0.08,0.05c-0.03,0.01-0.06,0.02-0.1,0.02c-0.03,0-0.06-0.01-0.09-0.02c-0.03-0.01-0.06-0.03-0.08-0.05
			c-0.02-0.02-0.04-0.05-0.05-0.08c-0.01-0.03-0.02-0.06-0.02-0.09c0-0.03,0.01-0.06,0.02-0.09c0.01-0.03,0.03-0.06,0.05-0.08
			c0.02-0.02,0.05-0.04,0.08-0.05c0.03-0.01,0.06-0.02,0.09-0.02c0.03,0,0.06,0.01,0.09,0.02c0.03,0.01,0.06,0.03,0.08,0.05
			c0.02,0.02,0.04,0.05,0.05,0.08C298.48,108.32,298.49,108.35,298.49,108.39 M298.31,108.39c0.02,0,0.04-0.01,0.05-0.03
			c0.01-0.02,0.02-0.03,0.02-0.06c0-0.03-0.01-0.05-0.03-0.07c-0.02-0.01-0.06-0.02-0.1-0.02h-0.12v0.32h0.06v-0.14h0.06l0.06,0.14
			h0.07L298.31,108.39z M298.19,108.36v-0.11h0.05c0.03,0,0.05,0,0.06,0.01c0.01,0.01,0.02,0.02,0.02,0.04
			c0,0.02-0.01,0.03-0.02,0.04c-0.01,0.01-0.03,0.01-0.06,0.01H298.19z"/>
	</g>
</g>
<g>
	<polygon class="st13" points="57.73,111.62 39.44,111.62 37.17,111.62 37.17,109.35 37.17,79.38 37.17,78.05 38.34,77.4 
		63.59,63.32 64.69,62.71 65.79,63.32 91.04,77.4 92.21,78.05 92.21,79.38 92.21,89.44 87.67,89.44 87.67,80.7 64.69,67.89 
		41.71,80.7 41.71,107.08 57.73,107.08 	"/>
	<polygon class="st13" points="60.2,85.13 67.95,88.81 67.95,104.05 60.2,111.54 	"/>
</g>
</svg>
