<?xml version="1.0" encoding="utf-8"?>
<!-- Generator: Adobe Illustrator 27.3.1, SVG Export Plug-In . SVG Version: 6.00 Build 0)  -->
<svg version="1.1" id="Layer_1_xA0_Image_00000119836837881548228610000006395972817119780770_"
	 xmlns="http://www.w3.org/2000/svg" xmlns:xlink="http://www.w3.org/1999/xlink" x="0px" y="0px" viewBox="0 0 356.96 218.16"
	 style="enable-background:new 0 0 356.96 218.16;" xml:space="preserve">
<style type="text/css">
	.st0{fill:#58595B;}
	.st1{fill:url(#SVGID_1_);}
	.st2{fill:url(#SVGID_00000099637456193924060050000003285903156253708446_);}
	.st3{fill:url(#SVGID_00000070804761417172592230000008454554904402857108_);}
	.st4{fill:url(#SVGID_00000049914162458174329600000004622493209565553838_);}
	.st5{fill:url(#SVGID_00000129919346304402617290000018007842641344582308_);}
	.st6{fill:url(#SVGID_00000068648338184281796060000016589117283702196643_);}
	.st7{fill:url(#SVGID_00000091713711215431288710000013478614511817505932_);}
	.st8{fill:url(#SVGID_00000074438435181908955470000017690642329512681094_);}
	.st9{fill:url(#SVGID_00000133497673934451727370000009763641963949777795_);}
	.st10{fill:url(#SVGID_00000114765084891058733520000006737192646542630546_);}
	.st11{fill:url(#SVGID_00000125592748703443564300000014337161533552831881_);}
	.st12{fill:url(#SVGID_00000172434795345037166270000016719078456685958070_);}
	.st13{fill:url(#SVGID_00000133503462199664912030000005018078268868830638_);}
	.st14{fill:url(#SVGID_00000132090362713455343070000007146719086013511847_);}
	.st15{fill:url(#SVGID_00000127765891739539579220000002189213099251540905_);}
	.st16{fill:url(#SVGID_00000091718662079939818990000004178401154568726409_);}
	.st17{fill:url(#SVGID_00000096039179386228044490000003406641827632666253_);}
	.st18{fill:url(#SVGID_00000065061125329479441540000015452711963499410101_);}
	.st19{fill:url(#SVGID_00000090257091623457238690000001865213721539825054_);}
	.st20{fill:url(#SVGID_00000160868863726831570030000017064385487709202087_);}
	.st21{fill:url(#SVGID_00000122689193061593420810000018178139269829425028_);}
	.st22{fill:url(#SVGID_00000026129194631741540330000008278951662016564385_);}
	.st23{fill:url(#SVGID_00000110456999777842414650000002416271878443011739_);}
	.st24{fill:url(#SVGID_00000147909947545426282180000000847835153055427970_);}
	.st25{fill:url(#SVGID_00000084502525138208797240000011136003370018204092_);}
</style>
<g>
	<polygon class="st0" points="64.97,112.07 41.23,112.07 38.28,112.07 38.28,109.12 38.28,70.23 38.28,68.51 39.8,67.66 
		72.57,49.39 74,48.6 75.43,49.39 108.2,67.66 109.72,68.51 109.72,70.23 109.72,83.29 103.83,83.29 103.83,71.95 74,55.32 
		44.17,71.95 44.17,106.18 64.97,106.18 	"/>
	<polygon class="st0" points="68.18,77.69 78.23,82.47 78.23,102.25 68.18,111.97 	"/>
</g>
<g>
	<g>
		<linearGradient id="SVGID_1_" gradientUnits="userSpaceOnUse" x1="83.1758" y1="101.5385" x2="294.2808" y2="101.5385">
			<stop  offset="0" style="stop-color:#FFFFFF"/>
			<stop  offset="1" style="stop-color:#000000"/>
		</linearGradient>
		<path class="st1" d="M98.18,103.78H88.18l-1.84,5.1h-3.16l8.29-22.81h3.46l8.26,22.81h-3.16L98.18,103.78z M93.18,89.76
			l-4.15,11.59h8.29L93.18,89.76z"/>
		
			<linearGradient id="SVGID_00000036227738107710265310000015067828789678360194_" gradientUnits="userSpaceOnUse" x1="83.1758" y1="101.5385" x2="294.2808" y2="101.5385">
			<stop  offset="0" style="stop-color:#FFFFFF"/>
			<stop  offset="1" style="stop-color:#000000"/>
		</linearGradient>
		<path style="fill:url(#SVGID_00000036227738107710265310000015067828789678360194_);" d="M117.14,85.64
			c4.97,0,8.92,2.5,10.63,6.94h-3.59c-1.25-2.76-3.69-4.31-7.04-4.31c-4.81,0-8.39,3.49-8.39,9.12c0,5.6,3.59,9.08,8.39,9.08
			c3.36,0,5.79-1.55,7.04-4.28h3.59c-1.71,4.41-5.66,6.88-10.63,6.88c-6.42,0-11.45-4.81-11.45-11.68S110.72,85.64,117.14,85.64z"/>
		
			<linearGradient id="SVGID_00000069379531691591904250000016115297930011798936_" gradientUnits="userSpaceOnUse" x1="83.1758" y1="101.5385" x2="294.2808" y2="101.5385">
			<stop  offset="0" style="stop-color:#FFFFFF"/>
			<stop  offset="1" style="stop-color:#000000"/>
		</linearGradient>
		<path style="fill:url(#SVGID_00000069379531691591904250000016115297930011798936_);" d="M132.21,86.1h3.23l8.43,18.83l8.43-18.83
			h3.19v22.78h-2.99V91.89l-7.57,16.98h-2.11l-7.6-17.02v17.02h-3V86.1z"/>
		
			<linearGradient id="SVGID_00000152950022109132251440000011018121836993209238_" gradientUnits="userSpaceOnUse" x1="83.1758" y1="101.5385" x2="294.2808" y2="101.5385">
			<stop  offset="0" style="stop-color:#FFFFFF"/>
			<stop  offset="1" style="stop-color:#000000"/>
		</linearGradient>
		<path style="fill:url(#SVGID_00000152950022109132251440000011018121836993209238_);" d="M166.86,99.3h-4.41v9.58h-3V85.94h7.41
			c5.4,0,7.93,2.96,7.93,6.71C174.79,96.14,172.56,99.3,166.86,99.3z M166.86,96.83c3.42,0,4.87-1.61,4.87-4.18
			c0-2.67-1.45-4.25-4.87-4.25h-4.41v8.43H166.86z"/>
		
			<linearGradient id="SVGID_00000159441303364621772140000014204649590914639805_" gradientUnits="userSpaceOnUse" x1="83.1758" y1="101.5385" x2="294.2808" y2="101.5385">
			<stop  offset="0" style="stop-color:#FFFFFF"/>
			<stop  offset="1" style="stop-color:#000000"/>
		</linearGradient>
		<path style="fill:url(#SVGID_00000159441303364621772140000014204649590914639805_);" d="M181.5,108.88h-3V90.84h3v2.93
			c1.02-2.01,2.96-3.26,5.83-3.26v3.09h-0.79c-2.86,0-5.04,1.28-5.04,5.46V108.88z"/>
		
			<linearGradient id="SVGID_00000077286729905592750970000005541478232447865277_" gradientUnits="userSpaceOnUse" x1="83.1758" y1="101.5385" x2="294.2808" y2="101.5385">
			<stop  offset="0" style="stop-color:#FFFFFF"/>
			<stop  offset="1" style="stop-color:#000000"/>
		</linearGradient>
		<path style="fill:url(#SVGID_00000077286729905592750970000005541478232447865277_);" d="M198.65,109.17
			c-5.1,0-8.99-3.62-8.99-9.35c0-5.69,4.02-9.28,9.12-9.28c5.13,0,9.12,3.59,9.12,9.28C207.9,105.55,203.78,109.17,198.65,109.17z
			 M198.65,106.54c3.13,0,6.19-2.14,6.19-6.71c0-4.54-3-6.68-6.09-6.68c-3.16,0-6.02,2.14-6.02,6.68
			C192.73,104.4,195.52,106.54,198.65,106.54z"/>
		
			<linearGradient id="SVGID_00000163755042977745009260000008664044108831559581_" gradientUnits="userSpaceOnUse" x1="83.1758" y1="101.5385" x2="294.2808" y2="101.5385">
			<stop  offset="0" style="stop-color:#FFFFFF"/>
			<stop  offset="1" style="stop-color:#000000"/>
		</linearGradient>
		<path style="fill:url(#SVGID_00000163755042977745009260000008664044108831559581_);" d="M221.59,90.55
			c4.84,0,8.56,3.62,8.56,9.25c0,5.6-3.72,9.38-8.56,9.38c-3.29,0-5.63-1.78-6.75-3.62v11.88h-3V90.84h3v3.32
			C215.93,92.26,218.3,90.55,221.59,90.55z M220.96,93.15c-3.26,0-6.12,2.5-6.12,6.68c0,4.25,2.86,6.71,6.12,6.71
			c3.32,0,6.12-2.5,6.12-6.75C227.08,95.55,224.29,93.15,220.96,93.15z"/>
		
			<linearGradient id="SVGID_00000096020450229726318310000015638028508765472645_" gradientUnits="userSpaceOnUse" x1="83.1758" y1="101.5385" x2="294.2808" y2="101.5385">
			<stop  offset="0" style="stop-color:#FFFFFF"/>
			<stop  offset="1" style="stop-color:#000000"/>
		</linearGradient>
		<path style="fill:url(#SVGID_00000096020450229726318310000015638028508765472645_);" d="M241.89,109.17
			c-5.13,0-8.92-3.62-8.92-9.35c0-5.69,3.65-9.28,8.92-9.28c5.23,0,8.66,3.69,8.66,8.62c0,0.66-0.03,1.19-0.1,1.81h-14.42
			c0.23,3.65,2.8,5.66,5.86,5.66c2.7,0,4.41-1.38,5.07-3.32h3.23C249.26,106.61,246.37,109.17,241.89,109.17z M236.06,98.54h11.39
			c0.03-3.52-2.6-5.46-5.69-5.46C238.83,93.08,236.39,95.02,236.06,98.54z"/>
		
			<linearGradient id="SVGID_00000058555325373834394410000007236015943708655504_" gradientUnits="userSpaceOnUse" x1="83.1758" y1="101.5385" x2="294.2808" y2="101.5385">
			<stop  offset="0" style="stop-color:#FFFFFF"/>
			<stop  offset="1" style="stop-color:#000000"/>
		</linearGradient>
		<path style="fill:url(#SVGID_00000058555325373834394410000007236015943708655504_);" d="M257.49,108.88h-3V90.84h3v2.93
			c1.02-2.01,2.96-3.26,5.83-3.26v3.09h-0.79c-2.86,0-5.04,1.28-5.04,5.46V108.88z"/>
		
			<linearGradient id="SVGID_00000123428027250046260450000002145088625110474941_" gradientUnits="userSpaceOnUse" x1="83.1758" y1="101.5385" x2="294.2808" y2="101.5385">
			<stop  offset="0" style="stop-color:#FFFFFF"/>
			<stop  offset="1" style="stop-color:#000000"/>
		</linearGradient>
		<path style="fill:url(#SVGID_00000123428027250046260450000002145088625110474941_);" d="M267.43,93.31h-2.34v-2.47h2.34V86.3h3
			v4.54h4.71v2.47h-4.71v10.63c0,1.78,0.66,2.4,2.5,2.4h2.21v2.53h-2.7c-3.19,0-5-1.32-5-4.94V93.31z"/>
		
			<linearGradient id="SVGID_00000003796133887642063540000000861638899659221948_" gradientUnits="userSpaceOnUse" x1="83.1758" y1="101.5385" x2="294.2808" y2="101.5385">
			<stop  offset="0" style="stop-color:#FFFFFF"/>
			<stop  offset="1" style="stop-color:#000000"/>
		</linearGradient>
		<path style="fill:url(#SVGID_00000003796133887642063540000000861638899659221948_);" d="M291.19,90.84h3.09l-10.86,26.53h-3.09
			l3.55-8.69l-7.27-17.84h3.32l5.66,14.61L291.19,90.84z"/>
	</g>
	<g>
		<path class="st0" d="M98.18,103.78H88.18l-1.84,5.1h-3.16l8.29-22.81h3.46l8.26,22.81h-3.16L98.18,103.78z M93.18,89.76
			l-4.15,11.59h8.29L93.18,89.76z"/>
		<path class="st0" d="M117.14,85.64c4.97,0,8.92,2.5,10.63,6.94h-3.59c-1.25-2.76-3.69-4.31-7.04-4.31c-4.81,0-8.39,3.49-8.39,9.12
			c0,5.6,3.59,9.08,8.39,9.08c3.36,0,5.79-1.55,7.04-4.28h3.59c-1.71,4.41-5.66,6.88-10.63,6.88c-6.42,0-11.45-4.81-11.45-11.68
			S110.72,85.64,117.14,85.64z"/>
		<path class="st0" d="M132.21,86.1h3.23l8.43,18.83l8.43-18.83h3.19v22.78h-2.99V91.89l-7.57,16.98h-2.11l-7.6-17.02v17.02h-3V86.1
			z"/>
		<path d="M166.86,99.3h-4.41v9.58h-3V85.94h7.41c5.4,0,7.93,2.96,7.93,6.71C174.79,96.14,172.56,99.3,166.86,99.3z M166.86,96.83
			c3.42,0,4.87-1.61,4.87-4.18c0-2.67-1.45-4.25-4.87-4.25h-4.41v8.43H166.86z"/>
		<path d="M181.5,108.88h-3V90.84h3v2.93c1.02-2.01,2.96-3.26,5.83-3.26v3.09h-0.79c-2.86,0-5.04,1.28-5.04,5.46V108.88z"/>
		<path d="M198.65,109.17c-5.1,0-8.99-3.62-8.99-9.35c0-5.69,4.02-9.28,9.12-9.28c5.13,0,9.12,3.59,9.12,9.28
			C207.9,105.55,203.78,109.17,198.65,109.17z M198.65,106.54c3.13,0,6.19-2.14,6.19-6.71c0-4.54-3-6.68-6.09-6.68
			c-3.16,0-6.02,2.14-6.02,6.68C192.73,104.4,195.52,106.54,198.65,106.54z"/>
		<path d="M221.59,90.55c4.84,0,8.56,3.62,8.56,9.25c0,5.6-3.72,9.38-8.56,9.38c-3.29,0-5.63-1.78-6.75-3.62v11.88h-3V90.84h3v3.32
			C215.93,92.26,218.3,90.55,221.59,90.55z M220.96,93.15c-3.26,0-6.12,2.5-6.12,6.68c0,4.25,2.86,6.71,6.12,6.71
			c3.32,0,6.12-2.5,6.12-6.75C227.08,95.55,224.29,93.15,220.96,93.15z"/>
		<path d="M241.89,109.17c-5.13,0-8.92-3.62-8.92-9.35c0-5.69,3.65-9.28,8.92-9.28c5.23,0,8.66,3.69,8.66,8.62
			c0,0.66-0.03,1.19-0.1,1.81h-14.42c0.23,3.65,2.8,5.66,5.86,5.66c2.7,0,4.41-1.38,5.07-3.32h3.23
			C249.26,106.61,246.37,109.17,241.89,109.17z M236.06,98.54h11.39c0.03-3.52-2.6-5.46-5.69-5.46
			C238.83,93.08,236.39,95.02,236.06,98.54z"/>
		<path d="M257.49,108.88h-3V90.84h3v2.93c1.02-2.01,2.96-3.26,5.83-3.26v3.09h-0.79c-2.86,0-5.04,1.28-5.04,5.46V108.88z"/>
		<path d="M267.43,93.31h-2.34v-2.47h2.34V86.3h3v4.54h4.71v2.47h-4.71v10.63c0,1.78,0.66,2.4,2.5,2.4h2.21v2.53h-2.7
			c-3.19,0-5-1.32-5-4.94V93.31z"/>
		<path d="M291.19,90.84h3.09l-10.86,26.53h-3.09l3.55-8.69l-7.27-17.84h3.32l5.66,14.61L291.19,90.84z"/>
	</g>
</g>
<g>
	<g>
		
			<linearGradient id="SVGID_00000031186196838531986530000009209748998075131295_" gradientUnits="userSpaceOnUse" x1="84.4531" y1="129.8554" x2="294.312" y2="129.8554">
			<stop  offset="0" style="stop-color:#FFFFFF"/>
			<stop  offset="1" style="stop-color:#000000"/>
		</linearGradient>
		<path style="fill:url(#SVGID_00000031186196838531986530000009209748998075131295_);" d="M84.45,122.88h1.66l4.32,9.72l4.32-9.72
			h1.64v11.76h-1.54v-8.77l-3.88,8.77h-1.08l-3.9-8.79v8.79h-1.54V122.88z"/>
		
			<linearGradient id="SVGID_00000034067769079716804130000002398365053266953124_" gradientUnits="userSpaceOnUse" x1="84.4531" y1="129.8554" x2="294.312" y2="129.8554">
			<stop  offset="0" style="stop-color:#FFFFFF"/>
			<stop  offset="1" style="stop-color:#000000"/>
		</linearGradient>
		<path style="fill:url(#SVGID_00000034067769079716804130000002398365053266953124_);" d="M110.34,132.01h-5.13l-0.95,2.63h-1.62
			l4.26-11.78h1.77l4.24,11.78h-1.62L110.34,132.01z M107.78,124.76l-2.13,5.98h4.26L107.78,124.76z"/>
		
			<linearGradient id="SVGID_00000040560138344599252010000000381921298558221214_" gradientUnits="userSpaceOnUse" x1="84.4531" y1="129.8554" x2="294.312" y2="129.8554">
			<stop  offset="0" style="stop-color:#FFFFFF"/>
			<stop  offset="1" style="stop-color:#000000"/>
		</linearGradient>
		<path style="fill:url(#SVGID_00000040560138344599252010000000381921298558221214_);" d="M128.41,122.78v11.87h-1.54l-6.18-9.43
			v9.43h-1.54v-11.87h1.54l6.18,9.42v-9.42H128.41z"/>
		
			<linearGradient id="SVGID_00000016763203650301594200000000497485203367661502_" gradientUnits="userSpaceOnUse" x1="84.4531" y1="129.8554" x2="294.312" y2="129.8554">
			<stop  offset="0" style="stop-color:#FFFFFF"/>
			<stop  offset="1" style="stop-color:#000000"/>
		</linearGradient>
		<path style="fill:url(#SVGID_00000016763203650301594200000000497485203367661502_);" d="M142.38,132.01h-5.13l-0.95,2.63h-1.62
			l4.26-11.78h1.77l4.24,11.78h-1.62L142.38,132.01z M139.81,124.76l-2.13,5.98h4.26L139.81,124.76z"/>
		
			<linearGradient id="SVGID_00000013173728382587470900000004802462622571023018_" gradientUnits="userSpaceOnUse" x1="84.4531" y1="129.8554" x2="294.312" y2="129.8554">
			<stop  offset="0" style="stop-color:#FFFFFF"/>
			<stop  offset="1" style="stop-color:#000000"/>
		</linearGradient>
		<path style="fill:url(#SVGID_00000013173728382587470900000004802462622571023018_);" d="M161.95,126.23h-1.84
			c-0.64-1.38-1.93-2.18-3.58-2.18c-2.48,0-4.34,1.8-4.34,4.66c0,2.84,1.86,4.64,4.34,4.64c2.31,0,3.9-1.5,4.14-3.84h-4.7v-1.26
			h6.33v1.19c-0.27,2.94-2.58,5.3-5.78,5.3c-3.31,0-5.91-2.48-5.91-6.03s2.6-6.05,5.91-6.05
			C159.01,122.66,161.07,123.95,161.95,126.23z"/>
		
			<linearGradient id="SVGID_00000159460726718693628040000006299332023788184983_" gradientUnits="userSpaceOnUse" x1="84.4531" y1="129.8554" x2="294.312" y2="129.8554">
			<stop  offset="0" style="stop-color:#FFFFFF"/>
			<stop  offset="1" style="stop-color:#000000"/>
		</linearGradient>
		<path style="fill:url(#SVGID_00000159460726718693628040000006299332023788184983_);" d="M175.05,124.05h-4.8v3.96h4.29v1.27
			h-4.29v4.08h4.8v1.27h-6.33v-11.87h6.33V124.05z"/>
		
			<linearGradient id="SVGID_00000174604365793660726400000001508510603462891420_" gradientUnits="userSpaceOnUse" x1="84.4531" y1="129.8554" x2="294.312" y2="129.8554">
			<stop  offset="0" style="stop-color:#FFFFFF"/>
			<stop  offset="1" style="stop-color:#000000"/>
		</linearGradient>
		<path style="fill:url(#SVGID_00000174604365793660726400000001508510603462891420_);" d="M181.77,122.88h1.66l4.32,9.72l4.32-9.72
			h1.64v11.76h-1.54v-8.77l-3.89,8.77h-1.08l-3.9-8.79v8.79h-1.54V122.88z"/>
		
			<linearGradient id="SVGID_00000002381972909444521910000013598569665898564788_" gradientUnits="userSpaceOnUse" x1="84.4531" y1="129.8554" x2="294.312" y2="129.8554">
			<stop  offset="0" style="stop-color:#FFFFFF"/>
			<stop  offset="1" style="stop-color:#000000"/>
		</linearGradient>
		<path style="fill:url(#SVGID_00000002381972909444521910000013598569665898564788_);" d="M207.04,124.05h-4.8v3.96h4.29v1.27
			h-4.29v4.08h4.8v1.27h-6.33v-11.87h6.33V124.05z"/>
		
			<linearGradient id="SVGID_00000155108469225725524190000011578762164851123621_" gradientUnits="userSpaceOnUse" x1="84.4531" y1="129.8554" x2="294.312" y2="129.8554">
			<stop  offset="0" style="stop-color:#FFFFFF"/>
			<stop  offset="1" style="stop-color:#000000"/>
		</linearGradient>
		<path style="fill:url(#SVGID_00000155108469225725524190000011578762164851123621_);" d="M223.02,122.78v11.87h-1.54l-6.18-9.43
			v9.43h-1.54v-11.87h1.54l6.18,9.42v-9.42H223.02z"/>
		
			<linearGradient id="SVGID_00000098212982182988628680000017666738701025202567_" gradientUnits="userSpaceOnUse" x1="84.4531" y1="129.8554" x2="294.312" y2="129.8554">
			<stop  offset="0" style="stop-color:#FFFFFF"/>
			<stop  offset="1" style="stop-color:#000000"/>
		</linearGradient>
		<path style="fill:url(#SVGID_00000098212982182988628680000017666738701025202567_);" d="M229.29,122.79h7.97v1.26h-3.21v10.59
			h-1.54v-10.59h-3.23V122.79z"/>
		
			<linearGradient id="SVGID_00000116937145899695858040000006687029879552215189_" gradientUnits="userSpaceOnUse" x1="84.4531" y1="129.8554" x2="294.312" y2="129.8554">
			<stop  offset="0" style="stop-color:#FFFFFF"/>
			<stop  offset="1" style="stop-color:#000000"/>
		</linearGradient>
		<path style="fill:url(#SVGID_00000116937145899695858040000006687029879552215189_);" d="M243.44,132.5h1.69l-1.89,4.57h-1.03
			L243.44,132.5z"/>
		
			<linearGradient id="SVGID_00000081640656632521496510000006700684435757381009_" gradientUnits="userSpaceOnUse" x1="84.4531" y1="129.8554" x2="294.312" y2="129.8554">
			<stop  offset="0" style="stop-color:#FFFFFF"/>
			<stop  offset="1" style="stop-color:#000000"/>
		</linearGradient>
		<path style="fill:url(#SVGID_00000081640656632521496510000006700684435757381009_);" d="M261.72,122.79v10.59h4.12v1.26h-5.66
			v-11.85H261.72z"/>
		
			<linearGradient id="SVGID_00000029767076275734528470000010433078570832714680_" gradientUnits="userSpaceOnUse" x1="84.4531" y1="129.8554" x2="294.312" y2="129.8554">
			<stop  offset="0" style="stop-color:#FFFFFF"/>
			<stop  offset="1" style="stop-color:#000000"/>
		</linearGradient>
		<path style="fill:url(#SVGID_00000029767076275734528470000010433078570832714680_);" d="M273.4,122.79v10.59h4.12v1.26h-5.66
			v-11.85H273.4z"/>
		
			<linearGradient id="SVGID_00000045585731305157278010000014202801624362896518_" gradientUnits="userSpaceOnUse" x1="84.4531" y1="129.8554" x2="294.312" y2="129.8554">
			<stop  offset="0" style="stop-color:#FFFFFF"/>
			<stop  offset="1" style="stop-color:#000000"/>
		</linearGradient>
		<path style="fill:url(#SVGID_00000045585731305157278010000014202801624362896518_);" d="M288.86,122.64
			c2.55,0,4.58,1.29,5.46,3.59h-1.84c-0.64-1.43-1.89-2.23-3.62-2.23c-2.47,0-4.31,1.8-4.31,4.71c0,2.89,1.84,4.69,4.31,4.69
			c1.72,0,2.97-0.8,3.62-2.21h1.84c-0.88,2.28-2.91,3.55-5.46,3.55c-3.29,0-5.88-2.48-5.88-6.03S285.56,122.64,288.86,122.64z"/>
	</g>
	<g>
		<path d="M84.45,122.88h1.66l4.32,9.72l4.32-9.72h1.64v11.76h-1.54v-8.77l-3.88,8.77h-1.08l-3.9-8.79v8.79h-1.54V122.88z"/>
		<path d="M110.34,132.01h-5.13l-0.95,2.63h-1.62l4.26-11.78h1.77l4.24,11.78h-1.62L110.34,132.01z M107.78,124.76l-2.13,5.98h4.26
			L107.78,124.76z"/>
		<path d="M128.41,122.78v11.87h-1.54l-6.18-9.43v9.43h-1.54v-11.87h1.54l6.18,9.42v-9.42H128.41z"/>
		<path d="M142.38,132.01h-5.13l-0.95,2.63h-1.62l4.26-11.78h1.77l4.24,11.78h-1.62L142.38,132.01z M139.81,124.76l-2.13,5.98h4.26
			L139.81,124.76z"/>
		<path d="M161.95,126.23h-1.84c-0.64-1.38-1.93-2.18-3.58-2.18c-2.48,0-4.34,1.8-4.34,4.66c0,2.84,1.86,4.64,4.34,4.64
			c2.31,0,3.9-1.5,4.14-3.84h-4.7v-1.26h6.33v1.19c-0.27,2.94-2.58,5.3-5.78,5.3c-3.31,0-5.91-2.48-5.91-6.03s2.6-6.05,5.91-6.05
			C159.01,122.66,161.07,123.95,161.95,126.23z"/>
		<path d="M175.05,124.05h-4.8v3.96h4.29v1.27h-4.29v4.08h4.8v1.27h-6.33v-11.87h6.33V124.05z"/>
		<path d="M181.77,122.88h1.66l4.32,9.72l4.32-9.72h1.64v11.76h-1.54v-8.77l-3.89,8.77h-1.08l-3.9-8.79v8.79h-1.54V122.88z"/>
		<path d="M207.04,124.05h-4.8v3.96h4.29v1.27h-4.29v4.08h4.8v1.27h-6.33v-11.87h6.33V124.05z"/>
		<path d="M223.02,122.78v11.87h-1.54l-6.18-9.43v9.43h-1.54v-11.87h1.54l6.18,9.42v-9.42H223.02z"/>
		<path d="M229.29,122.79h7.97v1.26h-3.21v10.59h-1.54v-10.59h-3.23V122.79z"/>
		<path d="M243.44,132.5h1.69l-1.89,4.57h-1.03L243.44,132.5z"/>
		<path d="M261.72,122.79v10.59h4.12v1.26h-5.66v-11.85H261.72z"/>
		<path d="M273.4,122.79v10.59h4.12v1.26h-5.66v-11.85H273.4z"/>
		<path d="M288.86,122.64c2.55,0,4.58,1.29,5.46,3.59h-1.84c-0.64-1.43-1.89-2.23-3.62-2.23c-2.47,0-4.31,1.8-4.31,4.71
			c0,2.89,1.84,4.69,4.31,4.69c1.72,0,2.97-0.8,3.62-2.21h1.84c-0.88,2.28-2.91,3.55-5.46,3.55c-3.29,0-5.88-2.48-5.88-6.03
			S285.56,122.64,288.86,122.64z"/>
	</g>
</g>
</svg>
